<svg xmlns="http://www.w3.org/2000/svg" xmlns:xlink="http://www.w3.org/1999/xlink" width="500" zoomAndPan="magnify" viewBox="0 0 375 374.999991" height="500" preserveAspectRatio="xMidYMid meet" version="1.0"><defs><clipPath id="133d61db6e"><path d="M 18.75 60 L 356.25 60 L 356.25 315 L 18.75 315 Z M 18.75 60 " clip-rule="nonzero"/></clipPath></defs><g clip-path="url(#133d61db6e)"><path fill="#00e0ff" d="M 145.3125 92.578125 C 145.3125 91.542969 145.363281 90.507812 145.464844 89.476562 C 145.566406 88.445312 145.71875 87.421875 145.921875 86.40625 C 146.121094 85.390625 146.375 84.386719 146.675781 83.394531 C 146.976562 82.402344 147.324219 81.425781 147.722656 80.46875 C 148.117188 79.511719 148.558594 78.578125 149.046875 77.664062 C 149.535156 76.75 150.070312 75.859375 150.644531 75 C 151.21875 74.136719 151.835938 73.304688 152.496094 72.503906 C 153.152344 71.703125 153.847656 70.9375 154.578125 70.203125 C 155.3125 69.472656 156.078125 68.777344 156.878906 68.121094 C 157.679688 67.460938 158.511719 66.84375 159.375 66.269531 C 160.234375 65.695312 161.125 65.160156 162.039062 64.671875 C 162.953125 64.183594 163.886719 63.742188 164.84375 63.347656 C 165.800781 62.949219 166.777344 62.601562 167.769531 62.300781 C 168.761719 62 169.765625 61.746094 170.78125 61.546875 C 171.796875 61.34375 172.820312 61.191406 173.851562 61.089844 C 174.882812 60.988281 175.917969 60.9375 176.953125 60.9375 L 198.046875 60.9375 C 199.082031 60.9375 200.117188 60.988281 201.148438 61.089844 C 202.179688 61.191406 203.203125 61.34375 204.21875 61.546875 C 205.234375 61.746094 206.238281 62 207.230469 62.300781 C 208.222656 62.601562 209.199219 62.949219 210.15625 63.347656 C 211.113281 63.742188 212.046875 64.183594 212.960938 64.671875 C 213.875 65.160156 214.765625 65.695312 215.625 66.269531 C 216.488281 66.84375 217.320312 67.460938 218.121094 68.121094 C 218.921875 68.777344 219.6875 69.472656 220.421875 70.203125 C 221.152344 70.9375 221.847656 71.703125 222.503906 72.503906 C 223.164062 73.304688 223.78125 74.136719 224.355469 75 C 224.929688 75.859375 225.460938 76.75 225.953125 77.664062 C 226.441406 78.578125 226.882812 79.511719 227.277344 80.46875 C 227.675781 81.425781 228.023438 82.402344 228.324219 83.394531 C 228.625 84.386719 228.878906 85.390625 229.078125 86.40625 C 229.28125 87.421875 229.433594 88.445312 229.535156 89.476562 C 229.636719 90.507812 229.6875 91.542969 229.6875 92.578125 L 229.6875 113.671875 C 229.6875 114.707031 229.636719 115.742188 229.535156 116.773438 C 229.433594 117.804688 229.28125 118.828125 229.078125 119.84375 C 228.878906 120.859375 228.625 121.863281 228.324219 122.855469 C 228.023438 123.847656 227.675781 124.824219 227.277344 125.78125 C 226.882812 126.738281 226.441406 127.671875 225.953125 128.585938 C 225.460938 129.5 224.929688 130.390625 224.355469 131.25 C 223.78125 132.113281 223.164062 132.945312 222.503906 133.746094 C 221.847656 134.546875 221.152344 135.3125 220.421875 136.046875 C 219.6875 136.777344 218.921875 137.472656 218.121094 138.128906 C 217.320312 138.789062 216.488281 139.40625 215.625 139.980469 C 214.765625 140.554688 213.875 141.089844 212.960938 141.578125 C 212.046875 142.066406 211.113281 142.507812 210.15625 142.902344 C 209.199219 143.300781 208.222656 143.648438 207.230469 143.949219 C 206.238281 144.25 205.234375 144.503906 204.21875 144.703125 C 203.203125 144.90625 202.179688 145.058594 201.148438 145.160156 C 200.117188 145.261719 199.082031 145.3125 198.046875 145.3125 L 198.046875 166.40625 L 314.0625 166.40625 C 314.753906 166.40625 315.441406 166.472656 316.121094 166.609375 C 316.800781 166.742188 317.457031 166.945312 318.097656 167.210938 C 318.738281 167.472656 319.347656 167.800781 319.921875 168.183594 C 320.496094 168.570312 321.03125 169.003906 321.519531 169.496094 C 322.011719 169.984375 322.445312 170.519531 322.832031 171.09375 C 323.214844 171.667969 323.542969 172.277344 323.804688 172.917969 C 324.070312 173.558594 324.273438 174.214844 324.40625 174.894531 C 324.542969 175.574219 324.609375 176.261719 324.609375 176.953125 L 324.609375 198.046875 C 324.609375 198.738281 324.542969 199.425781 324.40625 200.105469 C 324.273438 200.785156 324.070312 201.441406 323.804688 202.082031 C 323.542969 202.722656 323.214844 203.332031 322.832031 203.90625 C 322.445312 204.480469 322.011719 205.015625 321.519531 205.503906 C 321.03125 205.996094 320.496094 206.429688 319.921875 206.816406 C 319.347656 207.199219 318.738281 207.527344 318.097656 207.789062 C 317.457031 208.054688 316.800781 208.257812 316.121094 208.390625 C 315.441406 208.527344 314.753906 208.59375 314.0625 208.59375 C 313.371094 208.59375 312.683594 208.527344 312.003906 208.390625 C 311.324219 208.257812 310.667969 208.054688 310.027344 207.789062 C 309.386719 207.527344 308.777344 207.199219 308.203125 206.816406 C 307.628906 206.429688 307.09375 205.996094 306.605469 205.503906 C 306.113281 205.015625 305.679688 204.480469 305.292969 203.90625 C 304.910156 203.332031 304.582031 202.722656 304.320312 202.082031 C 304.054688 201.441406 303.851562 200.785156 303.71875 200.105469 C 303.582031 199.425781 303.515625 198.738281 303.515625 198.046875 L 303.515625 187.5 L 198.046875 187.5 L 198.046875 198.046875 C 198.046875 198.738281 197.980469 199.425781 197.84375 200.105469 C 197.710938 200.785156 197.507812 201.441406 197.242188 202.082031 C 196.980469 202.722656 196.652344 203.332031 196.269531 203.90625 C 195.882812 204.480469 195.449219 205.015625 194.957031 205.503906 C 194.46875 205.996094 193.933594 206.429688 193.359375 206.816406 C 192.785156 207.199219 192.175781 207.527344 191.535156 207.789062 C 190.894531 208.054688 190.238281 208.257812 189.558594 208.390625 C 188.878906 208.527344 188.191406 208.59375 187.5 208.59375 C 186.808594 208.59375 186.121094 208.527344 185.441406 208.390625 C 184.761719 208.257812 184.105469 208.054688 183.464844 207.789062 C 182.824219 207.527344 182.214844 207.199219 181.640625 206.816406 C 181.066406 206.429688 180.53125 205.996094 180.042969 205.503906 C 179.550781 205.015625 179.117188 204.480469 178.730469 203.90625 C 178.347656 203.332031 178.019531 202.722656 177.757812 202.082031 C 177.492188 201.441406 177.289062 200.785156 177.15625 200.105469 C 177.019531 199.425781 176.953125 198.738281 176.953125 198.046875 L 176.953125 187.5 L 71.484375 187.5 L 71.484375 198.046875 C 71.484375 198.738281 71.417969 199.425781 71.28125 200.105469 C 71.148438 200.785156 70.945312 201.441406 70.679688 202.082031 C 70.417969 202.722656 70.089844 203.332031 69.707031 203.90625 C 69.320312 204.480469 68.886719 205.015625 68.394531 205.503906 C 67.90625 205.996094 67.371094 206.429688 66.796875 206.816406 C 66.222656 207.199219 65.613281 207.527344 64.972656 207.789062 C 64.332031 208.054688 63.675781 208.257812 62.996094 208.390625 C 62.316406 208.527344 61.628906 208.59375 60.9375 208.59375 C 60.246094 208.59375 59.558594 208.527344 58.878906 208.390625 C 58.199219 208.257812 57.542969 208.054688 56.902344 207.789062 C 56.261719 207.527344 55.652344 207.199219 55.078125 206.816406 C 54.503906 206.429688 53.96875 205.996094 53.480469 205.503906 C 52.988281 205.015625 52.554688 204.480469 52.167969 203.90625 C 51.785156 203.332031 51.457031 202.722656 51.195312 202.082031 C 50.929688 201.441406 50.726562 200.785156 50.59375 200.105469 C 50.457031 199.425781 50.390625 198.738281 50.390625 198.046875 L 50.390625 176.953125 C 50.390625 176.261719 50.457031 175.574219 50.59375 174.894531 C 50.726562 174.214844 50.929688 173.558594 51.195312 172.917969 C 51.457031 172.277344 51.785156 171.667969 52.167969 171.09375 C 52.554688 170.519531 52.988281 169.984375 53.480469 169.496094 C 53.96875 169.003906 54.503906 168.570312 55.078125 168.183594 C 55.652344 167.800781 56.261719 167.472656 56.902344 167.210938 C 57.542969 166.945312 58.199219 166.742188 58.878906 166.609375 C 59.558594 166.472656 60.246094 166.40625 60.9375 166.40625 L 176.953125 166.40625 L 176.953125 145.3125 C 175.917969 145.3125 174.882812 145.261719 173.851562 145.160156 C 172.820312 145.058594 171.796875 144.90625 170.78125 144.703125 C 169.765625 144.503906 168.761719 144.25 167.769531 143.949219 C 166.777344 143.648438 165.800781 143.300781 164.84375 142.902344 C 163.886719 142.507812 162.953125 142.066406 162.039062 141.578125 C 161.125 141.089844 160.234375 140.554688 159.375 139.980469 C 158.511719 139.40625 157.679688 138.789062 156.878906 138.128906 C 156.078125 137.472656 155.3125 136.777344 154.578125 136.046875 C 153.847656 135.3125 153.152344 134.546875 152.496094 133.746094 C 151.835938 132.945312 151.21875 132.113281 150.644531 131.25 C 150.070312 130.390625 149.535156 129.5 149.046875 128.585938 C 148.558594 127.671875 148.117188 126.738281 147.722656 125.78125 C 147.324219 124.824219 146.976562 123.847656 146.675781 122.855469 C 146.375 121.863281 146.121094 120.859375 145.921875 119.84375 C 145.71875 118.828125 145.566406 117.804688 145.464844 116.773438 C 145.363281 115.742188 145.3125 114.707031 145.3125 113.671875 Z M 198.046875 124.21875 C 198.738281 124.21875 199.425781 124.152344 200.105469 124.015625 C 200.785156 123.882812 201.441406 123.679688 202.082031 123.414062 C 202.722656 123.152344 203.332031 122.824219 203.90625 122.441406 C 204.480469 122.054688 205.015625 121.621094 205.503906 121.128906 C 205.996094 120.640625 206.429688 120.105469 206.816406 119.53125 C 207.199219 118.957031 207.527344 118.347656 207.789062 117.707031 C 208.054688 117.066406 208.257812 116.410156 208.390625 115.730469 C 208.527344 115.050781 208.59375 114.363281 208.59375 113.671875 L 208.59375 92.578125 C 208.59375 91.886719 208.527344 91.199219 208.390625 90.519531 C 208.257812 89.839844 208.054688 89.183594 207.789062 88.542969 C 207.527344 87.902344 207.199219 87.292969 206.816406 86.71875 C 206.429688 86.144531 205.996094 85.609375 205.503906 85.121094 C 205.015625 84.628906 204.480469 84.195312 203.90625 83.808594 C 203.332031 83.425781 202.722656 83.097656 202.082031 82.835938 C 201.441406 82.570312 200.785156 82.367188 200.105469 82.234375 C 199.425781 82.097656 198.738281 82.03125 198.046875 82.03125 L 176.953125 82.03125 C 176.261719 82.03125 175.574219 82.097656 174.894531 82.234375 C 174.214844 82.367188 173.558594 82.570312 172.917969 82.835938 C 172.277344 83.097656 171.667969 83.425781 171.09375 83.808594 C 170.519531 84.195312 169.984375 84.628906 169.496094 85.121094 C 169.003906 85.609375 168.570312 86.144531 168.183594 86.71875 C 167.800781 87.292969 167.472656 87.902344 167.210938 88.542969 C 166.945312 89.183594 166.742188 89.839844 166.609375 90.519531 C 166.472656 91.199219 166.40625 91.886719 166.40625 92.578125 L 166.40625 113.671875 C 166.40625 114.363281 166.472656 115.050781 166.609375 115.730469 C 166.742188 116.410156 166.945312 117.066406 167.210938 117.707031 C 167.472656 118.347656 167.800781 118.957031 168.183594 119.53125 C 168.570312 120.105469 169.003906 120.640625 169.496094 121.128906 C 169.984375 121.621094 170.519531 122.054688 171.09375 122.441406 C 171.667969 122.824219 172.277344 123.152344 172.917969 123.414062 C 173.558594 123.679688 174.214844 123.882812 174.894531 124.015625 C 175.574219 124.152344 176.261719 124.21875 176.953125 124.21875 Z M 18.75 261.328125 C 18.75 260.292969 18.800781 259.257812 18.902344 258.226562 C 19.003906 257.195312 19.15625 256.171875 19.359375 255.15625 C 19.558594 254.140625 19.8125 253.136719 20.113281 252.144531 C 20.414062 251.152344 20.761719 250.175781 21.160156 249.21875 C 21.554688 248.261719 21.996094 247.328125 22.484375 246.414062 C 22.972656 245.5 23.507812 244.609375 24.082031 243.75 C 24.65625 242.886719 25.273438 242.054688 25.933594 241.253906 C 26.589844 240.453125 27.285156 239.6875 28.015625 238.953125 C 28.75 238.222656 29.515625 237.527344 30.316406 236.871094 C 31.117188 236.210938 31.949219 235.59375 32.8125 235.019531 C 33.671875 234.445312 34.5625 233.910156 35.476562 233.421875 C 36.390625 232.933594 37.324219 232.492188 38.28125 232.097656 C 39.238281 231.699219 40.214844 231.351562 41.207031 231.050781 C 42.199219 230.75 43.203125 230.496094 44.21875 230.296875 C 45.234375 230.09375 46.257812 229.941406 47.289062 229.839844 C 48.320312 229.738281 49.355469 229.6875 50.390625 229.6875 L 71.484375 229.6875 C 72.519531 229.6875 73.554688 229.738281 74.585938 229.839844 C 75.617188 229.941406 76.640625 230.09375 77.65625 230.296875 C 78.671875 230.496094 79.675781 230.75 80.667969 231.050781 C 81.660156 231.351562 82.636719 231.699219 83.59375 232.097656 C 84.550781 232.492188 85.484375 232.933594 86.398438 233.421875 C 87.3125 233.910156 88.203125 234.445312 89.0625 235.019531 C 89.925781 235.59375 90.757812 236.210938 91.558594 236.871094 C 92.359375 237.527344 93.125 238.222656 93.859375 238.953125 C 94.589844 239.6875 95.285156 240.453125 95.941406 241.253906 C 96.601562 242.054688 97.21875 242.886719 97.792969 243.75 C 98.367188 244.609375 98.902344 245.5 99.390625 246.414062 C 99.878906 247.328125 100.320312 248.261719 100.714844 249.21875 C 101.113281 250.175781 101.460938 251.152344 101.761719 252.144531 C 102.0625 253.136719 102.316406 254.140625 102.515625 255.15625 C 102.71875 256.171875 102.871094 257.195312 102.972656 258.226562 C 103.074219 259.257812 103.125 260.292969 103.125 261.328125 L 103.125 282.421875 C 103.125 283.457031 103.074219 284.492188 102.972656 285.523438 C 102.871094 286.554688 102.71875 287.578125 102.515625 288.59375 C 102.316406 289.609375 102.0625 290.613281 101.761719 291.605469 C 101.460938 292.597656 101.113281 293.574219 100.714844 294.53125 C 100.320312 295.488281 99.878906 296.421875 99.390625 297.335938 C 98.902344 298.25 98.367188 299.140625 97.792969 300 C 97.21875 300.863281 96.601562 301.695312 95.941406 302.496094 C 95.285156 303.296875 94.589844 304.0625 93.859375 304.796875 C 93.125 305.527344 92.359375 306.222656 91.558594 306.878906 C 90.757812 307.539062 89.925781 308.15625 89.0625 308.730469 C 88.203125 309.304688 87.3125 309.835938 86.398438 310.328125 C 85.484375 310.816406 84.550781 311.257812 83.59375 311.652344 C 82.636719 312.050781 81.660156 312.398438 80.667969 312.699219 C 79.675781 313 78.671875 313.253906 77.65625 313.453125 C 76.640625 313.65625 75.617188 313.808594 74.585938 313.910156 C 73.554688 314.011719 72.519531 314.0625 71.484375 314.0625 L 50.390625 314.0625 C 49.355469 314.0625 48.320312 314.011719 47.289062 313.910156 C 46.257812 313.808594 45.234375 313.65625 44.21875 313.453125 C 43.203125 313.253906 42.199219 313 41.207031 312.699219 C 40.214844 312.398438 39.238281 312.050781 38.28125 311.652344 C 37.324219 311.257812 36.390625 310.816406 35.476562 310.328125 C 34.5625 309.835938 33.671875 309.304688 32.8125 308.730469 C 31.949219 308.15625 31.117188 307.539062 30.316406 306.878906 C 29.515625 306.222656 28.75 305.527344 28.015625 304.796875 C 27.285156 304.0625 26.589844 303.296875 25.933594 302.496094 C 25.273438 301.695312 24.65625 300.863281 24.082031 300 C 23.507812 299.140625 22.972656 298.25 22.484375 297.335938 C 21.996094 296.421875 21.554688 295.488281 21.160156 294.53125 C 20.761719 293.574219 20.414062 292.597656 20.113281 291.605469 C 19.8125 290.613281 19.558594 289.609375 19.359375 288.59375 C 19.15625 287.578125 19.003906 286.554688 18.902344 285.523438 C 18.800781 284.492188 18.75 283.457031 18.75 282.421875 Z M 50.390625 250.78125 C 49.699219 250.78125 49.011719 250.847656 48.332031 250.984375 C 47.652344 251.117188 46.996094 251.320312 46.355469 251.585938 C 45.714844 251.847656 45.105469 252.175781 44.53125 252.558594 C 43.957031 252.945312 43.421875 253.378906 42.933594 253.871094 C 42.441406 254.359375 42.007812 254.894531 41.621094 255.46875 C 41.238281 256.042969 40.910156 256.652344 40.648438 257.292969 C 40.382812 257.933594 40.179688 258.589844 40.046875 259.269531 C 39.910156 259.949219 39.84375 260.636719 39.84375 261.328125 L 39.84375 282.421875 C 39.84375 283.113281 39.910156 283.800781 40.046875 284.480469 C 40.179688 285.160156 40.382812 285.816406 40.648438 286.457031 C 40.910156 287.097656 41.238281 287.707031 41.621094 288.28125 C 42.007812 288.855469 42.441406 289.390625 42.933594 289.878906 C 43.421875 290.371094 43.957031 290.804688 44.53125 291.191406 C 45.105469 291.574219 45.714844 291.902344 46.355469 292.164062 C 46.996094 292.429688 47.652344 292.632812 48.332031 292.765625 C 49.011719 292.902344 49.699219 292.96875 50.390625 292.96875 L 71.484375 292.96875 C 72.175781 292.96875 72.863281 292.902344 73.542969 292.765625 C 74.222656 292.632812 74.878906 292.429688 75.519531 292.164062 C 76.160156 291.902344 76.769531 291.574219 77.34375 291.191406 C 77.917969 290.804688 78.453125 290.371094 78.941406 289.878906 C 79.433594 289.390625 79.867188 288.855469 80.253906 288.28125 C 80.636719 287.707031 80.964844 287.097656 81.226562 286.457031 C 81.492188 285.816406 81.695312 285.160156 81.828125 284.480469 C 81.964844 283.800781 82.03125 283.113281 82.03125 282.421875 L 82.03125 261.328125 C 82.03125 260.636719 81.964844 259.949219 81.828125 259.269531 C 81.695312 258.589844 81.492188 257.933594 81.226562 257.292969 C 80.964844 256.652344 80.636719 256.042969 80.253906 255.46875 C 79.867188 254.894531 79.433594 254.359375 78.941406 253.871094 C 78.453125 253.378906 77.917969 252.945312 77.34375 252.558594 C 76.769531 252.175781 76.160156 251.847656 75.519531 251.585938 C 74.878906 251.320312 74.222656 251.117188 73.542969 250.984375 C 72.863281 250.847656 72.175781 250.78125 71.484375 250.78125 Z M 145.3125 261.328125 C 145.3125 260.292969 145.363281 259.257812 145.464844 258.226562 C 145.566406 257.195312 145.71875 256.171875 145.921875 255.15625 C 146.121094 254.140625 146.375 253.136719 146.675781 252.144531 C 146.976562 251.152344 147.324219 250.175781 147.722656 249.21875 C 148.117188 248.261719 148.558594 247.328125 149.046875 246.414062 C 149.535156 245.5 150.070312 244.609375 150.644531 243.75 C 151.21875 242.886719 151.835938 242.054688 152.496094 241.253906 C 153.152344 240.453125 153.847656 239.6875 154.578125 238.953125 C 155.3125 238.222656 156.078125 237.527344 156.878906 236.871094 C 157.679688 236.210938 158.511719 235.59375 159.375 235.019531 C 160.234375 234.445312 161.125 233.910156 162.039062 233.421875 C 162.953125 232.933594 163.886719 232.492188 164.84375 232.097656 C 165.800781 231.699219 166.777344 231.351562 167.769531 231.050781 C 168.761719 230.75 169.765625 230.496094 170.78125 230.296875 C 171.796875 230.09375 172.820312 229.941406 173.851562 229.839844 C 174.882812 229.738281 175.917969 229.6875 176.953125 229.6875 L 198.046875 229.6875 C 199.082031 229.6875 200.117188 229.738281 201.148438 229.839844 C 202.179688 229.941406 203.203125 230.09375 204.21875 230.296875 C 205.234375 230.496094 206.238281 230.75 207.230469 231.050781 C 208.222656 231.351562 209.199219 231.699219 210.15625 232.097656 C 211.113281 232.492188 212.046875 232.933594 212.960938 233.421875 C 213.875 233.910156 214.765625 234.445312 215.625 235.019531 C 216.488281 235.59375 217.320312 236.210938 218.121094 236.871094 C 218.921875 237.527344 219.6875 238.222656 220.421875 238.953125 C 221.152344 239.6875 221.847656 240.453125 222.503906 241.253906 C 223.164062 242.054688 223.78125 242.886719 224.355469 243.75 C 224.929688 244.609375 225.460938 245.5 225.953125 246.414062 C 226.441406 247.328125 226.882812 248.261719 227.277344 249.21875 C 227.675781 250.175781 228.023438 251.152344 228.324219 252.144531 C 228.625 253.136719 228.878906 254.140625 229.078125 255.15625 C 229.28125 256.171875 229.433594 257.195312 229.535156 258.226562 C 229.636719 259.257812 229.6875 260.292969 229.6875 261.328125 L 229.6875 282.421875 C 229.6875 283.457031 229.636719 284.492188 229.535156 285.523438 C 229.433594 286.554688 229.28125 287.578125 229.078125 288.59375 C 228.878906 289.609375 228.625 290.613281 228.324219 291.605469 C 228.023438 292.597656 227.675781 293.574219 227.277344 294.53125 C 226.882812 295.488281 226.441406 296.421875 225.953125 297.335938 C 225.460938 298.25 224.929688 299.140625 224.355469 300 C 223.78125 300.863281 223.164062 301.695312 222.503906 302.496094 C 221.847656 303.296875 221.152344 304.0625 220.421875 304.796875 C 219.6875 305.527344 218.921875 306.222656 218.121094 306.878906 C 217.320312 307.539062 216.488281 308.15625 215.625 308.730469 C 214.765625 309.304688 213.875 309.835938 212.960938 310.328125 C 212.046875 310.816406 211.113281 311.257812 210.15625 311.652344 C 209.199219 312.050781 208.222656 312.398438 207.230469 312.699219 C 206.238281 313 205.234375 313.253906 204.21875 313.453125 C 203.203125 313.65625 202.179688 313.808594 201.148438 313.910156 C 200.117188 314.011719 199.082031 314.0625 198.046875 314.0625 L 176.953125 314.0625 C 175.917969 314.0625 174.882812 314.011719 173.851562 313.910156 C 172.820312 313.808594 171.796875 313.65625 170.78125 313.453125 C 169.765625 313.253906 168.761719 313 167.769531 312.699219 C 166.777344 312.398438 165.800781 312.050781 164.84375 311.652344 C 163.886719 311.257812 162.953125 310.816406 162.039062 310.328125 C 161.125 309.835938 160.234375 309.304688 159.375 308.730469 C 158.511719 308.15625 157.679688 307.539062 156.878906 306.878906 C 156.078125 306.222656 155.3125 305.527344 154.578125 304.796875 C 153.847656 304.0625 153.152344 303.296875 152.496094 302.496094 C 151.835938 301.695312 151.21875 300.863281 150.644531 300 C 150.070312 299.140625 149.535156 298.25 149.046875 297.335938 C 148.558594 296.421875 148.117188 295.488281 147.722656 294.53125 C 147.324219 293.574219 146.976562 292.597656 146.675781 291.605469 C 146.375 290.613281 146.121094 289.609375 145.921875 288.59375 C 145.71875 287.578125 145.566406 286.554688 145.464844 285.523438 C 145.363281 284.492188 145.3125 283.457031 145.3125 282.421875 Z M 176.953125 250.78125 C 176.261719 250.78125 175.574219 250.847656 174.894531 250.984375 C 174.214844 251.117188 173.558594 251.320312 172.917969 251.585938 C 172.277344 251.847656 171.667969 252.175781 171.09375 252.558594 C 170.519531 252.945312 169.984375 253.378906 169.496094 253.871094 C 169.003906 254.359375 168.570312 254.894531 168.183594 255.46875 C 167.800781 256.042969 167.472656 256.652344 167.210938 257.292969 C 166.945312 257.933594 166.742188 258.589844 166.609375 259.269531 C 166.472656 259.949219 166.40625 260.636719 166.40625 261.328125 L 166.40625 282.421875 C 166.40625 283.113281 166.472656 283.800781 166.609375 284.480469 C 166.742188 285.160156 166.945312 285.816406 167.210938 286.457031 C 167.472656 287.097656 167.800781 287.707031 168.183594 288.28125 C 168.570312 288.855469 169.003906 289.390625 169.496094 289.878906 C 169.984375 290.371094 170.519531 290.804688 171.09375 291.191406 C 171.667969 291.574219 172.277344 291.902344 172.917969 292.164062 C 173.558594 292.429688 174.214844 292.632812 174.894531 292.765625 C 175.574219 292.902344 176.261719 292.96875 176.953125 292.96875 L 198.046875 292.96875 C 198.738281 292.96875 199.425781 292.902344 200.105469 292.765625 C 200.785156 292.632812 201.441406 292.429688 202.082031 292.164062 C 202.722656 291.902344 203.332031 291.574219 203.90625 291.191406 C 204.480469 290.804688 205.015625 290.371094 205.503906 289.878906 C 205.996094 289.390625 206.429688 288.855469 206.816406 288.28125 C 207.199219 287.707031 207.527344 287.097656 207.789062 286.457031 C 208.054688 285.816406 208.257812 285.160156 208.390625 284.480469 C 208.527344 283.800781 208.59375 283.113281 208.59375 282.421875 L 208.59375 261.328125 C 208.59375 260.636719 208.527344 259.949219 208.390625 259.269531 C 208.257812 258.589844 208.054688 257.933594 207.789062 257.292969 C 207.527344 256.652344 207.199219 256.042969 206.816406 255.46875 C 206.429688 254.894531 205.996094 254.359375 205.503906 253.871094 C 205.015625 253.378906 204.480469 252.945312 203.90625 252.558594 C 203.332031 252.175781 202.722656 251.847656 202.082031 251.585938 C 201.441406 251.320312 200.785156 251.117188 200.105469 250.984375 C 199.425781 250.847656 198.738281 250.78125 198.046875 250.78125 Z M 271.875 261.328125 C 271.875 260.292969 271.925781 259.257812 272.027344 258.226562 C 272.128906 257.195312 272.28125 256.171875 272.484375 255.15625 C 272.683594 254.140625 272.9375 253.136719 273.238281 252.144531 C 273.539062 251.152344 273.886719 250.175781 274.285156 249.21875 C 274.679688 248.261719 275.121094 247.328125 275.609375 246.414062 C 276.097656 245.5 276.632812 244.609375 277.207031 243.75 C 277.78125 242.886719 278.398438 242.054688 279.058594 241.253906 C 279.714844 240.453125 280.410156 239.6875 281.140625 238.953125 C 281.875 238.222656 282.640625 237.527344 283.441406 236.871094 C 284.242188 236.210938 285.074219 235.59375 285.9375 235.019531 C 286.796875 234.445312 287.6875 233.910156 288.601562 233.421875 C 289.515625 232.933594 290.449219 232.492188 291.40625 232.097656 C 292.363281 231.699219 293.339844 231.351562 294.332031 231.050781 C 295.324219 230.75 296.328125 230.496094 297.34375 230.296875 C 298.359375 230.09375 299.382812 229.941406 300.414062 229.839844 C 301.445312 229.738281 302.480469 229.6875 303.515625 229.6875 L 324.609375 229.6875 C 325.644531 229.6875 326.679688 229.738281 327.710938 229.839844 C 328.742188 229.941406 329.765625 230.09375 330.78125 230.296875 C 331.796875 230.496094 332.800781 230.75 333.792969 231.050781 C 334.785156 231.351562 335.761719 231.699219 336.71875 232.097656 C 337.675781 232.492188 338.609375 232.933594 339.523438 233.421875 C 340.4375 233.910156 341.328125 234.445312 342.1875 235.019531 C 343.050781 235.59375 343.882812 236.210938 344.683594 236.871094 C 345.484375 237.527344 346.25 238.222656 346.984375 238.953125 C 347.714844 239.6875 348.410156 240.453125 349.066406 241.253906 C 349.726562 242.054688 350.34375 242.886719 350.917969 243.75 C 351.492188 244.609375 352.027344 245.5 352.515625 246.414062 C 353.003906 247.328125 353.445312 248.261719 353.839844 249.21875 C 354.238281 250.175781 354.585938 251.152344 354.886719 252.144531 C 355.1875 253.136719 355.441406 254.140625 355.640625 255.15625 C 355.84375 256.171875 355.996094 257.195312 356.097656 258.226562 C 356.199219 259.257812 356.25 260.292969 356.25 261.328125 L 356.25 282.421875 C 356.25 283.457031 356.199219 284.492188 356.097656 285.523438 C 355.996094 286.554688 355.84375 287.578125 355.640625 288.59375 C 355.441406 289.609375 355.1875 290.613281 354.886719 291.605469 C 354.585938 292.597656 354.238281 293.574219 353.839844 294.53125 C 353.445312 295.488281 353.003906 296.421875 352.515625 297.335938 C 352.027344 298.25 351.492188 299.140625 350.917969 300 C 350.34375 300.863281 349.726562 301.695312 349.066406 302.496094 C 348.410156 303.296875 347.714844 304.0625 346.984375 304.796875 C 346.25 305.527344 345.484375 306.222656 344.683594 306.878906 C 343.882812 307.539062 343.050781 308.15625 342.1875 308.730469 C 341.328125 309.304688 340.4375 309.835938 339.523438 310.328125 C 338.609375 310.816406 337.675781 311.257812 336.71875 311.652344 C 335.761719 312.050781 334.785156 312.398438 333.792969 312.699219 C 332.800781 313 331.796875 313.253906 330.78125 313.453125 C 329.765625 313.65625 328.742188 313.808594 327.710938 313.910156 C 326.679688 314.011719 325.644531 314.0625 324.609375 314.0625 L 303.515625 314.0625 C 302.480469 314.0625 301.445312 314.011719 300.414062 313.910156 C 299.382812 313.808594 298.359375 313.65625 297.34375 313.453125 C 296.328125 313.253906 295.324219 313 294.332031 312.699219 C 293.339844 312.398438 292.363281 312.050781 291.40625 311.652344 C 290.449219 311.257812 289.515625 310.816406 288.601562 310.328125 C 287.6875 309.835938 286.796875 309.304688 285.9375 308.730469 C 285.074219 308.15625 284.242188 307.539062 283.441406 306.878906 C 282.640625 306.222656 281.875 305.527344 281.140625 304.796875 C 280.410156 304.0625 279.714844 303.296875 279.058594 302.496094 C 278.398438 301.695312 277.78125 300.863281 277.207031 300 C 276.632812 299.140625 276.097656 298.25 275.609375 297.335938 C 275.121094 296.421875 274.679688 295.488281 274.285156 294.53125 C 273.886719 293.574219 273.539062 292.597656 273.238281 291.605469 C 272.9375 290.613281 272.683594 289.609375 272.484375 288.59375 C 272.28125 287.578125 272.128906 286.554688 272.027344 285.523438 C 271.925781 284.492188 271.875 283.457031 271.875 282.421875 Z M 303.515625 250.78125 C 302.824219 250.78125 302.136719 250.847656 301.457031 250.984375 C 300.777344 251.117188 300.121094 251.320312 299.480469 251.585938 C 298.839844 251.847656 298.230469 252.175781 297.65625 252.558594 C 297.082031 252.945312 296.546875 253.378906 296.058594 253.871094 C 295.566406 254.359375 295.132812 254.894531 294.746094 255.46875 C 294.363281 256.042969 294.035156 256.652344 293.773438 257.292969 C 293.507812 257.933594 293.304688 258.589844 293.171875 259.269531 C 293.035156 259.949219 292.96875 260.636719 292.96875 261.328125 L 292.96875 282.421875 C 292.96875 283.113281 293.035156 283.800781 293.171875 284.480469 C 293.304688 285.160156 293.507812 285.816406 293.773438 286.457031 C 294.035156 287.097656 294.363281 287.707031 294.746094 288.28125 C 295.132812 288.855469 295.566406 289.390625 296.058594 289.878906 C 296.546875 290.371094 297.082031 290.804688 297.65625 291.191406 C 298.230469 291.574219 298.839844 291.902344 299.480469 292.164062 C 300.121094 292.429688 300.777344 292.632812 301.457031 292.765625 C 302.136719 292.902344 302.824219 292.96875 303.515625 292.96875 L 324.609375 292.96875 C 325.300781 292.96875 325.988281 292.902344 326.667969 292.765625 C 327.347656 292.632812 328.003906 292.429688 328.644531 292.164062 C 329.285156 291.902344 329.894531 291.574219 330.46875 291.191406 C 331.042969 290.804688 331.578125 290.371094 332.066406 289.878906 C 332.558594 289.390625 332.992188 288.855469 333.378906 288.28125 C 333.761719 287.707031 334.089844 287.097656 334.351562 286.457031 C 334.617188 285.816406 334.820312 285.160156 334.953125 284.480469 C 335.089844 283.800781 335.15625 283.113281 335.15625 282.421875 L 335.15625 261.328125 C 335.15625 260.636719 335.089844 259.949219 334.953125 259.269531 C 334.820312 258.589844 334.617188 257.933594 334.351562 257.292969 C 334.089844 256.652344 333.761719 256.042969 333.378906 255.46875 C 332.992188 254.894531 332.558594 254.359375 332.066406 253.871094 C 331.578125 253.378906 331.042969 252.945312 330.46875 252.558594 C 329.894531 252.175781 329.285156 251.847656 328.644531 251.585938 C 328.003906 251.320312 327.347656 251.117188 326.667969 250.984375 C 325.988281 250.847656 325.300781 250.78125 324.609375 250.78125 Z M 303.515625 250.78125 " fill-opacity="1" fill-rule="evenodd"/></g></svg>