<svg xmlns="http://www.w3.org/2000/svg" xmlns:xlink="http://www.w3.org/1999/xlink" width="500" zoomAndPan="magnify" viewBox="0 0 375 374.999991" height="500" preserveAspectRatio="xMidYMid meet" version="1.0"><defs><clipPath id="dab6e3cf7d"><path d="M 18.75 18.75 L 356.25 18.75 L 356.25 125 L 18.75 125 Z M 18.75 18.75 " clip-rule="nonzero"/></clipPath><clipPath id="bbb41bad51"><path d="M 18.75 60 L 356.25 60 L 356.25 336 L 18.75 336 Z M 18.75 60 " clip-rule="nonzero"/></clipPath></defs><g clip-path="url(#dab6e3cf7d)"><path fill="#00e0ff" d="M 18.75 50.390625 C 18.75 49.355469 18.800781 48.320312 18.902344 47.289062 C 19.003906 46.257812 19.15625 45.234375 19.359375 44.21875 C 19.558594 43.203125 19.8125 42.199219 20.113281 41.207031 C 20.414062 40.214844 20.761719 39.238281 21.160156 38.28125 C 21.554688 37.324219 21.996094 36.390625 22.484375 35.476562 C 22.972656 34.5625 23.507812 33.671875 24.082031 32.8125 C 24.65625 31.949219 25.273438 31.117188 25.933594 30.316406 C 26.589844 29.515625 27.285156 28.75 28.015625 28.015625 C 28.75 27.285156 29.515625 26.589844 30.316406 25.933594 C 31.117188 25.273438 31.949219 24.65625 32.8125 24.082031 C 33.671875 23.507812 34.5625 22.972656 35.476562 22.484375 C 36.390625 21.996094 37.324219 21.554688 38.28125 21.160156 C 39.238281 20.761719 40.214844 20.414062 41.207031 20.113281 C 42.199219 19.8125 43.203125 19.558594 44.21875 19.359375 C 45.234375 19.15625 46.257812 19.003906 47.289062 18.902344 C 48.320312 18.800781 49.355469 18.75 50.390625 18.75 L 324.609375 18.75 C 325.644531 18.75 326.679688 18.800781 327.710938 18.902344 C 328.742188 19.003906 329.765625 19.15625 330.78125 19.359375 C 331.796875 19.558594 332.800781 19.8125 333.792969 20.113281 C 334.785156 20.414062 335.761719 20.761719 336.71875 21.160156 C 337.675781 21.554688 338.609375 21.996094 339.523438 22.484375 C 340.4375 22.972656 341.328125 23.507812 342.1875 24.082031 C 343.050781 24.65625 343.882812 25.273438 344.683594 25.933594 C 345.484375 26.589844 346.25 27.285156 346.984375 28.015625 C 347.714844 28.75 348.410156 29.515625 349.066406 30.316406 C 349.726562 31.117188 350.34375 31.949219 350.917969 32.8125 C 351.492188 33.671875 352.027344 34.5625 352.515625 35.476562 C 353.003906 36.390625 353.445312 37.324219 353.839844 38.28125 C 354.238281 39.238281 354.585938 40.214844 354.886719 41.207031 C 355.1875 42.199219 355.441406 43.203125 355.640625 44.21875 C 355.84375 45.234375 355.996094 46.257812 356.097656 47.289062 C 356.199219 48.320312 356.25 49.355469 356.25 50.390625 L 356.25 92.578125 C 356.25 93.613281 356.199219 94.648438 356.097656 95.679688 C 355.996094 96.710938 355.84375 97.734375 355.640625 98.75 C 355.441406 99.765625 355.1875 100.769531 354.886719 101.761719 C 354.585938 102.753906 354.238281 103.730469 353.839844 104.6875 C 353.445312 105.644531 353.003906 106.578125 352.515625 107.492188 C 352.027344 108.40625 351.492188 109.296875 350.917969 110.15625 C 350.34375 111.019531 349.726562 111.851562 349.066406 112.652344 C 348.410156 113.453125 347.714844 114.21875 346.984375 114.953125 C 346.25 115.683594 345.484375 116.378906 344.683594 117.035156 C 343.882812 117.695312 343.050781 118.3125 342.1875 118.886719 C 341.328125 119.460938 340.4375 119.996094 339.523438 120.484375 C 338.609375 120.972656 337.675781 121.414062 336.71875 121.808594 C 335.761719 122.207031 334.785156 122.554688 333.792969 122.855469 C 332.800781 123.15625 331.796875 123.410156 330.78125 123.609375 C 329.765625 123.8125 328.742188 123.964844 327.710938 124.066406 C 326.679688 124.167969 325.644531 124.21875 324.609375 124.21875 L 50.390625 124.21875 C 49.355469 124.21875 48.320312 124.167969 47.289062 124.066406 C 46.257812 123.964844 45.234375 123.8125 44.21875 123.609375 C 43.203125 123.410156 42.199219 123.15625 41.207031 122.855469 C 40.214844 122.554688 39.238281 122.207031 38.28125 121.808594 C 37.324219 121.414062 36.390625 120.972656 35.476562 120.484375 C 34.5625 119.996094 33.671875 119.460938 32.8125 118.886719 C 31.949219 118.3125 31.117188 117.695312 30.316406 117.035156 C 29.515625 116.378906 28.75 115.683594 28.015625 114.953125 C 27.285156 114.21875 26.589844 113.453125 25.933594 112.652344 C 25.273438 111.851562 24.65625 111.019531 24.082031 110.15625 C 23.507812 109.296875 22.972656 108.40625 22.484375 107.492188 C 21.996094 106.578125 21.554688 105.644531 21.160156 104.6875 C 20.761719 103.730469 20.414062 102.753906 20.113281 101.761719 C 19.8125 100.769531 19.558594 99.765625 19.359375 98.75 C 19.15625 97.734375 19.003906 96.710938 18.902344 95.679688 C 18.800781 94.648438 18.75 93.613281 18.75 92.578125 Z M 50.390625 39.84375 C 49.699219 39.84375 49.011719 39.910156 48.332031 40.046875 C 47.652344 40.179688 46.996094 40.382812 46.355469 40.648438 C 45.714844 40.910156 45.105469 41.238281 44.53125 41.621094 C 43.957031 42.007812 43.421875 42.441406 42.933594 42.933594 C 42.441406 43.421875 42.007812 43.957031 41.621094 44.53125 C 41.238281 45.105469 40.910156 45.714844 40.648438 46.355469 C 40.382812 46.996094 40.179688 47.652344 40.046875 48.332031 C 39.910156 49.011719 39.84375 49.699219 39.84375 50.390625 L 39.84375 92.578125 C 39.84375 93.269531 39.910156 93.957031 40.046875 94.636719 C 40.179688 95.316406 40.382812 95.972656 40.648438 96.613281 C 40.910156 97.253906 41.238281 97.863281 41.621094 98.4375 C 42.007812 99.011719 42.441406 99.546875 42.933594 100.035156 C 43.421875 100.527344 43.957031 100.960938 44.53125 101.347656 C 45.105469 101.730469 45.714844 102.058594 46.355469 102.320312 C 46.996094 102.585938 47.652344 102.789062 48.332031 102.921875 C 49.011719 103.058594 49.699219 103.125 50.390625 103.125 L 324.609375 103.125 C 325.300781 103.125 325.988281 103.058594 326.667969 102.921875 C 327.347656 102.789062 328.003906 102.585938 328.644531 102.320312 C 329.285156 102.058594 329.894531 101.730469 330.46875 101.347656 C 331.042969 100.960938 331.578125 100.527344 332.066406 100.035156 C 332.558594 99.546875 332.992188 99.011719 333.378906 98.4375 C 333.761719 97.863281 334.089844 97.253906 334.351562 96.613281 C 334.617188 95.972656 334.820312 95.316406 334.953125 94.636719 C 335.089844 93.957031 335.15625 93.269531 335.15625 92.578125 L 335.15625 50.390625 C 335.15625 49.699219 335.089844 49.011719 334.953125 48.332031 C 334.820312 47.652344 334.617188 46.996094 334.351562 46.355469 C 334.089844 45.714844 333.761719 45.105469 333.378906 44.53125 C 332.992188 43.957031 332.558594 43.421875 332.066406 42.933594 C 331.578125 42.441406 331.042969 42.007812 330.46875 41.621094 C 329.894531 41.238281 329.285156 40.910156 328.644531 40.648438 C 328.003906 40.382812 327.347656 40.179688 326.667969 40.046875 C 325.988281 39.910156 325.300781 39.84375 324.609375 39.84375 Z M 50.390625 39.84375 " fill-opacity="1" fill-rule="nonzero"/></g><g clip-path="url(#bbb41bad51)"><path fill="#00e0ff" d="M 60.9375 71.484375 C 60.9375 70.792969 61.003906 70.105469 61.140625 69.425781 C 61.273438 68.746094 61.476562 68.089844 61.742188 67.449219 C 62.003906 66.808594 62.332031 66.199219 62.714844 65.625 C 63.101562 65.050781 63.535156 64.515625 64.027344 64.027344 C 64.515625 63.535156 65.050781 63.101562 65.625 62.714844 C 66.199219 62.332031 66.808594 62.003906 67.449219 61.742188 C 68.089844 61.476562 68.746094 61.273438 69.425781 61.140625 C 70.105469 61.003906 70.792969 60.9375 71.484375 60.9375 L 134.765625 60.9375 C 135.457031 60.9375 136.144531 61.003906 136.824219 61.140625 C 137.503906 61.273438 138.160156 61.476562 138.800781 61.742188 C 139.441406 62.003906 140.050781 62.332031 140.625 62.714844 C 141.199219 63.101562 141.734375 63.535156 142.222656 64.027344 C 142.714844 64.515625 143.148438 65.050781 143.535156 65.625 C 143.917969 66.199219 144.246094 66.808594 144.507812 67.449219 C 144.773438 68.089844 144.976562 68.746094 145.109375 69.425781 C 145.246094 70.105469 145.3125 70.792969 145.3125 71.484375 C 145.3125 72.175781 145.246094 72.863281 145.109375 73.542969 C 144.976562 74.222656 144.773438 74.878906 144.507812 75.519531 C 144.246094 76.160156 143.917969 76.769531 143.535156 77.34375 C 143.148438 77.917969 142.714844 78.453125 142.222656 78.941406 C 141.734375 79.433594 141.199219 79.867188 140.625 80.253906 C 140.050781 80.636719 139.441406 80.964844 138.800781 81.226562 C 138.160156 81.492188 137.503906 81.695312 136.824219 81.828125 C 136.144531 81.964844 135.457031 82.03125 134.765625 82.03125 L 71.484375 82.03125 C 70.792969 82.03125 70.105469 81.964844 69.425781 81.828125 C 68.746094 81.695312 68.089844 81.492188 67.449219 81.226562 C 66.808594 80.964844 66.199219 80.636719 65.625 80.253906 C 65.050781 79.867188 64.515625 79.433594 64.027344 78.941406 C 63.535156 78.453125 63.101562 77.917969 62.714844 77.34375 C 62.332031 76.769531 62.003906 76.160156 61.742188 75.519531 C 61.476562 74.878906 61.273438 74.222656 61.140625 73.542969 C 61.003906 72.863281 60.9375 72.175781 60.9375 71.484375 M 289.234375 78.296875 L 280.882812 69.945312 C 280.511719 69.574219 280.203125 69.160156 279.957031 68.699219 C 279.710938 68.242188 279.535156 67.753906 279.433594 67.242188 C 279.332031 66.730469 279.308594 66.214844 279.359375 65.695312 C 279.410156 65.175781 279.535156 64.675781 279.734375 64.191406 C 279.933594 63.710938 280.199219 63.265625 280.53125 62.863281 C 280.863281 62.460938 281.246094 62.113281 281.679688 61.824219 C 282.117188 61.535156 282.582031 61.3125 283.082031 61.164062 C 283.582031 61.011719 284.09375 60.9375 284.617188 60.9375 L 301.320312 60.9375 C 301.84375 60.9375 302.355469 61.011719 302.855469 61.164062 C 303.355469 61.3125 303.820312 61.535156 304.257812 61.824219 C 304.691406 62.113281 305.074219 62.460938 305.40625 62.863281 C 305.738281 63.265625 306.003906 63.710938 306.203125 64.191406 C 306.402344 64.675781 306.527344 65.175781 306.578125 65.695312 C 306.628906 66.214844 306.605469 66.730469 306.503906 67.242188 C 306.402344 67.753906 306.226562 68.242188 305.980469 68.699219 C 305.734375 69.160156 305.425781 69.574219 305.054688 69.945312 L 296.703125 78.296875 C 296.457031 78.542969 296.191406 78.761719 295.902344 78.957031 C 295.613281 79.148438 295.308594 79.3125 294.988281 79.445312 C 294.667969 79.578125 294.339844 79.675781 294 79.746094 C 293.660156 79.8125 293.316406 79.847656 292.96875 79.847656 C 292.621094 79.847656 292.277344 79.8125 291.9375 79.746094 C 291.597656 79.675781 291.269531 79.578125 290.949219 79.445312 C 290.628906 79.3125 290.324219 79.148438 290.035156 78.957031 C 289.746094 78.761719 289.480469 78.542969 289.234375 78.296875 M 18.75 187.5 C 18.75 186.117188 18.816406 184.738281 18.953125 183.363281 C 19.089844 181.988281 19.292969 180.625 19.5625 179.269531 C 19.832031 177.914062 20.164062 176.574219 20.566406 175.253906 C 20.96875 173.929688 21.433594 172.632812 21.960938 171.355469 C 22.488281 170.078125 23.082031 168.832031 23.730469 167.613281 C 24.382812 166.394531 25.09375 165.210938 25.859375 164.0625 C 26.628906 162.914062 27.449219 161.804688 28.324219 160.738281 C 29.203125 159.667969 30.128906 158.644531 31.105469 157.667969 C 32.082031 156.691406 33.105469 155.765625 34.175781 154.886719 C 35.242188 154.011719 36.351562 153.191406 37.5 152.421875 C 38.648438 151.65625 39.832031 150.945312 41.050781 150.292969 C 42.269531 149.644531 43.515625 149.050781 44.792969 148.523438 C 46.070312 147.996094 47.367188 147.53125 48.691406 147.128906 C 50.011719 146.726562 51.351562 146.394531 52.707031 146.125 C 54.0625 145.855469 55.425781 145.652344 56.800781 145.515625 C 58.175781 145.378906 59.554688 145.3125 60.9375 145.3125 L 314.0625 145.3125 C 315.445312 145.3125 316.824219 145.378906 318.199219 145.515625 C 319.574219 145.652344 320.9375 145.855469 322.292969 146.125 C 323.648438 146.394531 324.988281 146.726562 326.308594 147.128906 C 327.632812 147.53125 328.929688 147.996094 330.207031 148.523438 C 331.484375 149.050781 332.730469 149.644531 333.949219 150.292969 C 335.167969 150.945312 336.351562 151.65625 337.5 152.421875 C 338.648438 153.191406 339.757812 154.011719 340.824219 154.886719 C 341.894531 155.765625 342.917969 156.691406 343.894531 157.667969 C 344.871094 158.644531 345.796875 159.667969 346.675781 160.738281 C 347.550781 161.804688 348.371094 162.914062 349.140625 164.0625 C 349.90625 165.210938 350.617188 166.394531 351.269531 167.613281 C 351.917969 168.832031 352.511719 170.078125 353.039062 171.355469 C 353.566406 172.632812 354.03125 173.929688 354.433594 175.253906 C 354.835938 176.574219 355.167969 177.914062 355.4375 179.269531 C 355.707031 180.625 355.910156 181.988281 356.046875 183.363281 C 356.183594 184.738281 356.25 186.117188 356.25 187.5 L 356.25 292.96875 C 356.25 294.351562 356.183594 295.730469 356.046875 297.105469 C 355.910156 298.480469 355.707031 299.84375 355.4375 301.199219 C 355.167969 302.554688 354.835938 303.894531 354.433594 305.214844 C 354.03125 306.539062 353.566406 307.835938 353.039062 309.113281 C 352.511719 310.390625 351.917969 311.636719 351.269531 312.855469 C 350.617188 314.074219 349.90625 315.257812 349.140625 316.40625 C 348.371094 317.554688 347.550781 318.664062 346.675781 319.730469 C 345.796875 320.800781 344.871094 321.824219 343.894531 322.800781 C 342.917969 323.777344 341.894531 324.703125 340.824219 325.582031 C 339.757812 326.457031 338.648438 327.277344 337.5 328.046875 C 336.351562 328.8125 335.167969 329.523438 333.949219 330.175781 C 332.730469 330.824219 331.484375 331.417969 330.207031 331.945312 C 328.929688 332.472656 327.632812 332.9375 326.308594 333.339844 C 324.988281 333.742188 323.648438 334.074219 322.292969 334.34375 C 320.9375 334.613281 319.574219 334.816406 318.199219 334.953125 C 316.824219 335.089844 315.445312 335.15625 314.0625 335.15625 L 60.9375 335.15625 C 59.554688 335.15625 58.175781 335.089844 56.800781 334.953125 C 55.425781 334.816406 54.0625 334.613281 52.707031 334.34375 C 51.351562 334.074219 50.011719 333.742188 48.691406 333.339844 C 47.367188 332.9375 46.070312 332.472656 44.792969 331.945312 C 43.515625 331.417969 42.269531 330.824219 41.050781 330.175781 C 39.832031 329.523438 38.648438 328.8125 37.5 328.046875 C 36.351562 327.277344 35.242188 326.457031 34.175781 325.582031 C 33.105469 324.703125 32.082031 323.777344 31.105469 322.800781 C 30.128906 321.824219 29.203125 320.800781 28.324219 319.730469 C 27.449219 318.664062 26.628906 317.554688 25.859375 316.40625 C 25.09375 315.257812 24.382812 314.074219 23.730469 312.855469 C 23.082031 311.636719 22.488281 310.390625 21.960938 309.113281 C 21.433594 307.835938 20.96875 306.539062 20.566406 305.214844 C 20.164062 303.894531 19.832031 302.554688 19.5625 301.199219 C 19.292969 299.84375 19.089844 298.480469 18.953125 297.105469 C 18.816406 295.730469 18.75 294.351562 18.75 292.96875 Z M 39.84375 250.78125 L 39.84375 292.96875 C 39.84375 293.660156 39.878906 294.347656 39.945312 295.035156 C 40.011719 295.722656 40.113281 296.40625 40.25 297.082031 C 40.382812 297.761719 40.550781 298.429688 40.753906 299.09375 C 40.953125 299.753906 41.183594 300.402344 41.449219 301.039062 C 41.714844 301.679688 42.007812 302.304688 42.335938 302.914062 C 42.660156 303.523438 43.015625 304.113281 43.398438 304.6875 C 43.78125 305.261719 44.195312 305.816406 44.632812 306.351562 C 45.070312 306.882812 45.535156 307.394531 46.023438 307.882812 C 46.511719 308.371094 47.023438 308.835938 47.554688 309.273438 C 48.089844 309.710938 48.644531 310.125 49.21875 310.507812 C 49.792969 310.890625 50.382812 311.246094 50.992188 311.570312 C 51.601562 311.898438 52.226562 312.191406 52.867188 312.457031 C 53.503906 312.722656 54.152344 312.953125 54.8125 313.152344 C 55.476562 313.355469 56.144531 313.523438 56.824219 313.65625 C 57.5 313.792969 58.183594 313.894531 58.871094 313.960938 C 59.558594 314.027344 60.246094 314.0625 60.9375 314.0625 L 314.0625 314.0625 C 314.753906 314.0625 315.441406 314.027344 316.128906 313.960938 C 316.816406 313.894531 317.5 313.792969 318.175781 313.65625 C 318.855469 313.523438 319.523438 313.355469 320.1875 313.152344 C 320.847656 312.953125 321.496094 312.722656 322.132812 312.457031 C 322.773438 312.191406 323.398438 311.898438 324.007812 311.570312 C 324.617188 311.246094 325.207031 310.890625 325.78125 310.507812 C 326.355469 310.125 326.910156 309.710938 327.445312 309.273438 C 327.976562 308.835938 328.488281 308.371094 328.976562 307.882812 C 329.464844 307.394531 329.929688 306.882812 330.367188 306.351562 C 330.804688 305.816406 331.21875 305.261719 331.601562 304.6875 C 331.984375 304.113281 332.339844 303.523438 332.664062 302.914062 C 332.992188 302.304688 333.285156 301.679688 333.550781 301.039062 C 333.816406 300.402344 334.046875 299.753906 334.246094 299.09375 C 334.449219 298.429688 334.617188 297.761719 334.75 297.082031 C 334.886719 296.40625 334.988281 295.722656 335.054688 295.035156 C 335.121094 294.347656 335.15625 293.660156 335.15625 292.96875 L 335.15625 250.78125 Z M 335.15625 229.6875 L 335.15625 187.5 C 335.15625 186.808594 335.121094 186.121094 335.054688 185.433594 C 334.988281 184.746094 334.886719 184.0625 334.75 183.386719 C 334.617188 182.707031 334.449219 182.039062 334.246094 181.375 C 334.046875 180.714844 333.816406 180.066406 333.550781 179.425781 C 333.285156 178.789062 332.992188 178.164062 332.664062 177.554688 C 332.339844 176.945312 331.984375 176.355469 331.601562 175.78125 C 331.21875 175.207031 330.804688 174.652344 330.367188 174.117188 C 329.929688 173.585938 329.464844 173.074219 328.976562 172.585938 C 328.488281 172.097656 327.976562 171.632812 327.445312 171.195312 C 326.910156 170.757812 326.355469 170.34375 325.78125 169.960938 C 325.207031 169.578125 324.617188 169.222656 324.007812 168.898438 C 323.398438 168.570312 322.773438 168.277344 322.132812 168.011719 C 321.496094 167.746094 320.847656 167.515625 320.1875 167.316406 C 319.523438 167.113281 318.855469 166.945312 318.175781 166.8125 C 317.5 166.675781 316.816406 166.574219 316.128906 166.507812 C 315.441406 166.441406 314.753906 166.40625 314.0625 166.40625 L 60.9375 166.40625 C 60.246094 166.40625 59.558594 166.441406 58.871094 166.507812 C 58.183594 166.574219 57.5 166.675781 56.824219 166.8125 C 56.144531 166.945312 55.476562 167.113281 54.8125 167.316406 C 54.152344 167.515625 53.503906 167.746094 52.867188 168.011719 C 52.226562 168.277344 51.601562 168.570312 50.992188 168.898438 C 50.382812 169.222656 49.792969 169.578125 49.21875 169.960938 C 48.644531 170.34375 48.089844 170.757812 47.554688 171.195312 C 47.023438 171.632812 46.511719 172.097656 46.023438 172.585938 C 45.535156 173.074219 45.070312 173.585938 44.632812 174.117188 C 44.195312 174.652344 43.78125 175.207031 43.398438 175.78125 C 43.015625 176.355469 42.660156 176.945312 42.335938 177.554688 C 42.007812 178.164062 41.714844 178.789062 41.449219 179.429688 C 41.183594 180.066406 40.953125 180.714844 40.753906 181.375 C 40.550781 182.039062 40.382812 182.707031 40.25 183.386719 C 40.113281 184.0625 40.011719 184.746094 39.945312 185.433594 C 39.878906 186.121094 39.84375 186.808594 39.84375 187.5 L 39.84375 229.6875 Z M 60.9375 198.046875 C 60.9375 197.355469 61.003906 196.667969 61.140625 195.988281 C 61.273438 195.308594 61.476562 194.652344 61.742188 194.011719 C 62.003906 193.371094 62.332031 192.761719 62.714844 192.1875 C 63.101562 191.613281 63.535156 191.078125 64.027344 190.589844 C 64.515625 190.097656 65.050781 189.664062 65.625 189.277344 C 66.199219 188.894531 66.808594 188.566406 67.449219 188.304688 C 68.089844 188.039062 68.746094 187.835938 69.425781 187.703125 C 70.105469 187.566406 70.792969 187.5 71.484375 187.5 L 261.328125 187.5 C 262.019531 187.5 262.707031 187.566406 263.386719 187.703125 C 264.066406 187.835938 264.722656 188.039062 265.363281 188.304688 C 266.003906 188.566406 266.613281 188.894531 267.1875 189.277344 C 267.761719 189.664062 268.296875 190.097656 268.785156 190.589844 C 269.277344 191.078125 269.710938 191.613281 270.097656 192.1875 C 270.480469 192.761719 270.808594 193.371094 271.070312 194.011719 C 271.335938 194.652344 271.539062 195.308594 271.671875 195.988281 C 271.808594 196.667969 271.875 197.355469 271.875 198.046875 C 271.875 198.738281 271.808594 199.425781 271.671875 200.105469 C 271.539062 200.785156 271.335938 201.441406 271.070312 202.082031 C 270.808594 202.722656 270.480469 203.332031 270.097656 203.90625 C 269.710938 204.480469 269.277344 205.015625 268.785156 205.503906 C 268.296875 205.996094 267.761719 206.429688 267.1875 206.816406 C 266.613281 207.199219 266.003906 207.527344 265.363281 207.789062 C 264.722656 208.054688 264.066406 208.257812 263.386719 208.390625 C 262.707031 208.527344 262.019531 208.59375 261.328125 208.59375 L 71.484375 208.59375 C 70.792969 208.59375 70.105469 208.527344 69.425781 208.390625 C 68.746094 208.257812 68.089844 208.054688 67.449219 207.789062 C 66.808594 207.527344 66.199219 207.199219 65.625 206.816406 C 65.050781 206.429688 64.515625 205.996094 64.027344 205.503906 C 63.535156 205.015625 63.101562 204.480469 62.714844 203.90625 C 62.332031 203.332031 62.003906 202.722656 61.742188 202.082031 C 61.476562 201.441406 61.273438 200.785156 61.140625 200.105469 C 61.003906 199.425781 60.9375 198.738281 60.9375 198.046875 M 60.9375 282.421875 C 60.9375 281.730469 61.003906 281.042969 61.140625 280.363281 C 61.273438 279.683594 61.476562 279.027344 61.742188 278.386719 C 62.003906 277.746094 62.332031 277.136719 62.714844 276.5625 C 63.101562 275.988281 63.535156 275.453125 64.027344 274.964844 C 64.515625 274.472656 65.050781 274.039062 65.625 273.652344 C 66.199219 273.269531 66.808594 272.941406 67.449219 272.679688 C 68.089844 272.414062 68.746094 272.210938 69.425781 272.078125 C 70.105469 271.941406 70.792969 271.875 71.484375 271.875 L 198.046875 271.875 C 198.738281 271.875 199.425781 271.941406 200.105469 272.078125 C 200.785156 272.210938 201.441406 272.414062 202.082031 272.679688 C 202.722656 272.941406 203.332031 273.269531 203.90625 273.652344 C 204.480469 274.039062 205.015625 274.472656 205.503906 274.964844 C 205.996094 275.453125 206.429688 275.988281 206.816406 276.5625 C 207.199219 277.136719 207.527344 277.746094 207.789062 278.386719 C 208.054688 279.027344 208.257812 279.683594 208.390625 280.363281 C 208.527344 281.042969 208.59375 281.730469 208.59375 282.421875 C 208.59375 283.113281 208.527344 283.800781 208.390625 284.480469 C 208.257812 285.160156 208.054688 285.816406 207.789062 286.457031 C 207.527344 287.097656 207.199219 287.707031 206.816406 288.28125 C 206.429688 288.855469 205.996094 289.390625 205.503906 289.878906 C 205.015625 290.371094 204.480469 290.804688 203.90625 291.191406 C 203.332031 291.574219 202.722656 291.902344 202.082031 292.164062 C 201.441406 292.429688 200.785156 292.632812 200.105469 292.765625 C 199.425781 292.902344 198.738281 292.96875 198.046875 292.96875 L 71.484375 292.96875 C 70.792969 292.96875 70.105469 292.902344 69.425781 292.765625 C 68.746094 292.632812 68.089844 292.429688 67.449219 292.164062 C 66.808594 291.902344 66.199219 291.574219 65.625 291.191406 C 65.050781 290.804688 64.515625 290.371094 64.027344 289.878906 C 63.535156 289.390625 63.101562 288.855469 62.714844 288.28125 C 62.332031 287.707031 62.003906 287.097656 61.742188 286.457031 C 61.476562 285.816406 61.273438 285.160156 61.140625 284.480469 C 61.003906 283.800781 60.9375 283.113281 60.9375 282.421875 " fill-opacity="1" fill-rule="nonzero"/></g></svg>