<svg xmlns="http://www.w3.org/2000/svg" xmlns:xlink="http://www.w3.org/1999/xlink" width="500" zoomAndPan="magnify" viewBox="0 0 375 374.999991" height="500" preserveAspectRatio="xMidYMid meet" version="1.0"><defs><clipPath id="5b07da89e4"><path d="M 18.75 39 L 356.25 39 L 356.25 356.25 L 18.75 356.25 Z M 18.75 39 " clip-rule="nonzero"/></clipPath></defs><g clip-path="url(#5b07da89e4)"><path fill="#00ff85" d="M 81.398438 47.226562 C 82.386719 46.070312 83.492188 45.03125 84.707031 44.113281 C 85.921875 43.191406 87.222656 42.414062 88.605469 41.777344 C 89.988281 41.140625 91.425781 40.660156 92.914062 40.332031 C 94.402344 40.007812 95.90625 39.84375 97.429688 39.84375 L 277.570312 39.84375 C 279.09375 39.84375 280.597656 40.007812 282.085938 40.332031 C 283.574219 40.660156 285.011719 41.140625 286.394531 41.777344 C 287.777344 42.414062 289.078125 43.191406 290.292969 44.113281 C 291.507812 45.03125 292.613281 46.070312 293.601562 47.226562 L 348.636719 111.4375 C 349.855469 112.859375 350.9375 114.375 351.886719 115.992188 C 352.835938 117.605469 353.636719 119.292969 354.285156 121.046875 C 354.933594 122.804688 355.425781 124.605469 355.753906 126.449219 C 356.085938 128.292969 356.25 130.152344 356.25 132.023438 L 356.25 137.402344 C 356.25 138.699219 356.199219 139.992188 356.101562 141.28125 C 356 142.574219 355.851562 143.859375 355.648438 145.140625 C 355.449219 146.417969 355.199219 147.6875 354.902344 148.949219 C 354.605469 150.210938 354.257812 151.457031 353.863281 152.691406 C 353.46875 153.925781 353.023438 155.140625 352.535156 156.339844 C 352.046875 157.539062 351.511719 158.71875 350.929688 159.875 C 350.347656 161.03125 349.722656 162.167969 349.054688 163.277344 C 348.386719 164.386719 347.675781 165.464844 346.921875 166.519531 C 346.171875 167.574219 345.378906 168.597656 344.546875 169.589844 C 343.714844 170.582031 342.84375 171.542969 341.9375 172.46875 C 341.03125 173.394531 340.089844 174.28125 339.113281 175.132812 C 338.140625 175.984375 337.132812 176.800781 336.09375 177.574219 C 335.054688 178.347656 333.988281 179.082031 332.894531 179.773438 C 331.796875 180.464844 330.675781 181.109375 329.53125 181.714844 C 328.386719 182.320312 327.21875 182.878906 326.03125 183.394531 C 324.839844 183.90625 323.632812 184.375 322.410156 184.792969 C 321.183594 185.214844 319.945312 185.585938 318.691406 185.910156 C 317.4375 186.234375 316.171875 186.511719 314.894531 186.738281 C 313.621094 186.960938 312.339844 187.140625 311.050781 187.265625 C 309.761719 187.390625 308.46875 187.46875 307.171875 187.496094 C 305.878906 187.523438 304.582031 187.496094 303.289062 187.421875 C 301.996094 187.351562 300.710938 187.226562 299.425781 187.050781 C 298.140625 186.878906 296.867188 186.65625 295.601562 186.382812 C 294.335938 186.109375 293.082031 185.789062 291.839844 185.417969 C 290.597656 185.046875 289.375 184.628906 288.164062 184.164062 C 286.957031 183.699219 285.765625 183.1875 284.597656 182.632812 C 283.425781 182.074219 282.28125 181.472656 281.160156 180.824219 C 280.035156 180.179688 278.941406 179.492188 277.871094 178.757812 C 276.800781 178.027344 275.761719 177.257812 274.753906 176.445312 C 273.746094 175.632812 272.769531 174.785156 271.824219 173.894531 C 270.882812 173.007812 269.972656 172.085938 269.101562 171.128906 C 268.230469 170.167969 267.398438 169.179688 266.601562 168.15625 C 265.4375 169.660156 264.1875 171.089844 262.859375 172.449219 C 261.53125 173.8125 260.128906 175.089844 258.652344 176.289062 C 257.175781 177.492188 255.636719 178.601562 254.035156 179.628906 C 252.433594 180.652344 250.777344 181.582031 249.070312 182.417969 C 247.363281 183.253906 245.613281 183.988281 243.820312 184.625 C 242.027344 185.257812 240.203125 185.792969 238.351562 186.21875 C 236.5 186.648438 234.628906 186.96875 232.738281 187.183594 C 230.847656 187.394531 228.953125 187.503906 227.050781 187.5 C 225.148438 187.503906 223.253906 187.394531 221.363281 187.183594 C 219.472656 186.96875 217.601562 186.648438 215.75 186.21875 C 213.898438 185.792969 212.074219 185.257812 210.28125 184.625 C 208.488281 183.988281 206.738281 183.253906 205.03125 182.417969 C 203.324219 181.582031 201.667969 180.652344 200.066406 179.628906 C 198.464844 178.601562 196.925781 177.492188 195.449219 176.289062 C 193.972656 175.089844 192.570312 173.8125 191.242188 172.449219 C 189.914062 171.089844 188.664062 169.660156 187.5 168.15625 C 186.335938 169.660156 185.085938 171.089844 183.757812 172.449219 C 182.429688 173.8125 181.027344 175.089844 179.550781 176.289062 C 178.074219 177.492188 176.535156 178.601562 174.933594 179.628906 C 173.332031 180.652344 171.675781 181.582031 169.96875 182.417969 C 168.261719 183.253906 166.511719 183.988281 164.71875 184.625 C 162.925781 185.257812 161.101562 185.792969 159.25 186.21875 C 157.398438 186.648438 155.527344 186.96875 153.636719 187.183594 C 151.746094 187.394531 149.851562 187.503906 147.949219 187.5 C 146.046875 187.503906 144.152344 187.394531 142.261719 187.183594 C 140.371094 186.96875 138.5 186.648438 136.648438 186.21875 C 134.796875 185.792969 132.972656 185.257812 131.179688 184.625 C 129.386719 183.988281 127.636719 183.253906 125.929688 182.417969 C 124.222656 181.582031 122.566406 180.652344 120.964844 179.628906 C 119.363281 178.601562 117.824219 177.492188 116.347656 176.289062 C 114.871094 175.089844 113.46875 173.8125 112.140625 172.449219 C 110.8125 171.089844 109.5625 169.660156 108.398438 168.15625 C 107.601562 169.179688 106.769531 170.167969 105.898438 171.128906 C 105.027344 172.085938 104.117188 173.007812 103.175781 173.894531 C 102.230469 174.785156 101.253906 175.632812 100.246094 176.445312 C 99.238281 177.257812 98.199219 178.027344 97.128906 178.757812 C 96.058594 179.492188 94.964844 180.179688 93.839844 180.824219 C 92.71875 181.472656 91.574219 182.074219 90.402344 182.632812 C 89.234375 183.1875 88.042969 183.699219 86.835938 184.164062 C 85.625 184.628906 84.402344 185.046875 83.160156 185.417969 C 81.917969 185.789062 80.664062 186.109375 79.398438 186.382812 C 78.132812 186.65625 76.859375 186.878906 75.574219 187.050781 C 74.292969 187.226562 73.003906 187.351562 71.710938 187.421875 C 70.417969 187.496094 69.121094 187.523438 67.828125 187.496094 C 66.53125 187.46875 65.238281 187.390625 63.949219 187.265625 C 62.660156 187.140625 61.378906 186.960938 60.105469 186.738281 C 58.828125 186.511719 57.5625 186.234375 56.308594 185.910156 C 55.054688 185.585938 53.816406 185.214844 52.589844 184.792969 C 51.367188 184.375 50.160156 183.90625 48.96875 183.394531 C 47.78125 182.878906 46.613281 182.320312 45.46875 181.714844 C 44.324219 181.109375 43.203125 180.464844 42.105469 179.773438 C 41.011719 179.082031 39.945312 178.347656 38.90625 177.574219 C 37.867188 176.800781 36.859375 175.984375 35.886719 175.132812 C 34.910156 174.28125 33.96875 173.394531 33.0625 172.46875 C 32.15625 171.542969 31.285156 170.582031 30.453125 169.589844 C 29.621094 168.597656 28.828125 167.574219 28.078125 166.519531 C 27.324219 165.464844 26.613281 164.386719 25.945312 163.277344 C 25.277344 162.167969 24.652344 161.03125 24.070312 159.875 C 23.488281 158.71875 22.953125 157.539062 22.464844 156.339844 C 21.976562 155.140625 21.53125 153.925781 21.136719 152.691406 C 20.742188 151.457031 20.394531 150.210938 20.097656 148.949219 C 19.800781 147.6875 19.550781 146.417969 19.351562 145.140625 C 19.148438 143.859375 19 142.574219 18.898438 141.28125 C 18.800781 139.992188 18.75 138.699219 18.75 137.402344 L 18.75 132.023438 C 18.75 130.152344 18.914062 128.292969 19.246094 126.449219 C 19.574219 124.605469 20.066406 122.804688 20.714844 121.046875 C 21.363281 119.292969 22.164062 117.605469 23.113281 115.992188 C 24.0625 114.375 25.144531 112.859375 26.363281 111.4375 Z M 118.945312 137.402344 C 118.945312 138.351562 118.992188 139.300781 119.085938 140.246094 C 119.179688 141.191406 119.316406 142.128906 119.503906 143.0625 C 119.6875 143.992188 119.917969 144.914062 120.195312 145.820312 C 120.46875 146.730469 120.789062 147.625 121.152344 148.5 C 121.515625 149.378906 121.921875 150.238281 122.371094 151.074219 C 122.816406 151.914062 123.304688 152.726562 123.832031 153.515625 C 124.359375 154.304688 124.925781 155.066406 125.527344 155.800781 C 126.132812 156.535156 126.769531 157.238281 127.441406 157.910156 C 128.113281 158.582031 128.816406 159.21875 129.550781 159.824219 C 130.285156 160.425781 131.046875 160.992188 131.835938 161.519531 C 132.625 162.046875 133.4375 162.535156 134.277344 162.980469 C 135.113281 163.429688 135.972656 163.835938 136.851562 164.199219 C 137.726562 164.5625 138.621094 164.882812 139.53125 165.15625 C 140.4375 165.433594 141.359375 165.664062 142.289062 165.847656 C 143.222656 166.035156 144.160156 166.171875 145.105469 166.265625 C 146.050781 166.359375 147 166.40625 147.949219 166.40625 C 148.898438 166.40625 149.847656 166.359375 150.792969 166.265625 C 151.738281 166.171875 152.675781 166.035156 153.609375 165.847656 C 154.539062 165.664062 155.460938 165.433594 156.367188 165.15625 C 157.277344 164.882812 158.171875 164.5625 159.046875 164.199219 C 159.925781 163.835938 160.785156 163.429688 161.621094 162.980469 C 162.460938 162.535156 163.273438 162.046875 164.0625 161.519531 C 164.851562 160.992188 165.613281 160.425781 166.347656 159.824219 C 167.082031 159.21875 167.785156 158.582031 168.457031 157.910156 C 169.128906 157.238281 169.765625 156.535156 170.371094 155.800781 C 170.972656 155.066406 171.539062 154.304688 172.066406 153.515625 C 172.59375 152.726562 173.082031 151.914062 173.527344 151.074219 C 173.976562 150.238281 174.382812 149.378906 174.746094 148.5 C 175.109375 147.625 175.429688 146.730469 175.703125 145.820312 C 175.980469 144.914062 176.210938 143.992188 176.394531 143.0625 C 176.582031 142.128906 176.71875 141.191406 176.8125 140.246094 C 176.90625 139.300781 176.953125 138.351562 176.953125 137.402344 C 176.953125 136.710938 177.019531 136.023438 177.15625 135.34375 C 177.289062 134.664062 177.492188 134.007812 177.757812 133.367188 C 178.019531 132.726562 178.347656 132.117188 178.730469 131.542969 C 179.117188 130.96875 179.550781 130.433594 180.042969 129.945312 C 180.53125 129.453125 181.066406 129.019531 181.640625 128.632812 C 182.214844 128.25 182.824219 127.921875 183.464844 127.660156 C 184.105469 127.394531 184.761719 127.191406 185.441406 127.058594 C 186.121094 126.921875 186.808594 126.855469 187.5 126.855469 C 188.191406 126.855469 188.878906 126.921875 189.558594 127.058594 C 190.238281 127.191406 190.894531 127.394531 191.535156 127.660156 C 192.175781 127.921875 192.785156 128.25 193.359375 128.632812 C 193.933594 129.019531 194.46875 129.453125 194.957031 129.945312 C 195.449219 130.433594 195.882812 130.96875 196.269531 131.542969 C 196.652344 132.117188 196.980469 132.726562 197.242188 133.367188 C 197.507812 134.007812 197.710938 134.664062 197.84375 135.34375 C 197.980469 136.023438 198.046875 136.710938 198.046875 137.402344 C 198.046875 138.351562 198.09375 139.300781 198.1875 140.242188 C 198.28125 141.1875 198.421875 142.125 198.609375 143.058594 C 198.792969 143.988281 199.023438 144.910156 199.300781 145.816406 C 199.578125 146.726562 199.898438 147.617188 200.261719 148.496094 C 200.625 149.371094 201.03125 150.230469 201.476562 151.066406 C 201.925781 151.902344 202.414062 152.71875 202.941406 153.507812 C 203.46875 154.296875 204.035156 155.058594 204.636719 155.789062 C 205.238281 156.523438 205.878906 157.226562 206.550781 157.898438 C 207.21875 158.570312 207.921875 159.207031 208.65625 159.808594 C 209.390625 160.410156 210.152344 160.976562 210.941406 161.503906 C 211.734375 162.03125 212.546875 162.515625 213.382812 162.964844 C 214.222656 163.410156 215.078125 163.816406 215.957031 164.179688 C 216.832031 164.542969 217.726562 164.863281 218.636719 165.136719 C 219.542969 165.414062 220.464844 165.644531 221.394531 165.828125 C 222.324219 166.015625 223.265625 166.152344 224.210938 166.246094 C 225.152344 166.339844 226.101562 166.386719 227.050781 166.386719 C 228 166.386719 228.949219 166.339844 229.890625 166.246094 C 230.835938 166.152344 231.777344 166.015625 232.707031 165.828125 C 233.636719 165.644531 234.558594 165.414062 235.464844 165.136719 C 236.375 164.863281 237.269531 164.542969 238.144531 164.179688 C 239.023438 163.816406 239.878906 163.410156 240.71875 162.964844 C 241.554688 162.515625 242.367188 162.03125 243.160156 161.503906 C 243.949219 160.976562 244.710938 160.410156 245.445312 159.808594 C 246.179688 159.207031 246.882812 158.570312 247.550781 157.898438 C 248.222656 157.226562 248.859375 156.523438 249.464844 155.789062 C 250.066406 155.058594 250.632812 154.296875 251.160156 153.507812 C 251.6875 152.71875 252.175781 151.902344 252.625 151.066406 C 253.070312 150.230469 253.476562 149.371094 253.839844 148.496094 C 254.203125 147.617188 254.523438 146.726562 254.800781 145.816406 C 255.078125 144.910156 255.308594 143.988281 255.492188 143.058594 C 255.679688 142.125 255.820312 141.1875 255.914062 140.242188 C 256.007812 139.300781 256.054688 138.351562 256.054688 137.402344 C 256.054688 136.710938 256.121094 136.023438 256.257812 135.34375 C 256.390625 134.664062 256.59375 134.007812 256.859375 133.367188 C 257.121094 132.726562 257.449219 132.117188 257.832031 131.542969 C 258.21875 130.96875 258.652344 130.433594 259.144531 129.945312 C 259.632812 129.453125 260.167969 129.019531 260.742188 128.632812 C 261.316406 128.25 261.925781 127.921875 262.566406 127.660156 C 263.207031 127.394531 263.863281 127.191406 264.542969 127.058594 C 265.222656 126.921875 265.910156 126.855469 266.601562 126.855469 C 267.292969 126.855469 267.980469 126.921875 268.660156 127.058594 C 269.339844 127.191406 269.996094 127.394531 270.636719 127.660156 C 271.277344 127.921875 271.886719 128.25 272.460938 128.632812 C 273.035156 129.019531 273.570312 129.453125 274.058594 129.945312 C 274.550781 130.433594 274.984375 130.96875 275.371094 131.542969 C 275.753906 132.117188 276.082031 132.726562 276.34375 133.367188 C 276.609375 134.007812 276.8125 134.664062 276.945312 135.34375 C 277.082031 136.023438 277.148438 136.710938 277.148438 137.402344 C 277.148438 138.351562 277.195312 139.300781 277.289062 140.246094 C 277.382812 141.191406 277.519531 142.128906 277.707031 143.0625 C 277.890625 143.992188 278.121094 144.914062 278.398438 145.820312 C 278.671875 146.730469 278.992188 147.625 279.355469 148.5 C 279.71875 149.378906 280.125 150.238281 280.574219 151.074219 C 281.019531 151.914062 281.507812 152.726562 282.035156 153.515625 C 282.5625 154.304688 283.128906 155.066406 283.730469 155.800781 C 284.335938 156.535156 284.972656 157.238281 285.644531 157.910156 C 286.316406 158.582031 287.019531 159.21875 287.753906 159.824219 C 288.488281 160.425781 289.25 160.992188 290.039062 161.519531 C 290.828125 162.046875 291.640625 162.535156 292.480469 162.980469 C 293.316406 163.429688 294.175781 163.835938 295.054688 164.199219 C 295.929688 164.5625 296.824219 164.882812 297.734375 165.15625 C 298.640625 165.433594 299.5625 165.664062 300.492188 165.847656 C 301.425781 166.035156 302.363281 166.171875 303.308594 166.265625 C 304.253906 166.359375 305.203125 166.40625 306.152344 166.40625 C 307.101562 166.40625 308.050781 166.359375 308.996094 166.265625 C 309.941406 166.171875 310.878906 166.035156 311.8125 165.847656 C 312.742188 165.664062 313.664062 165.433594 314.570312 165.15625 C 315.480469 164.882812 316.375 164.5625 317.25 164.199219 C 318.128906 163.835938 318.988281 163.429688 319.824219 162.980469 C 320.664062 162.535156 321.476562 162.046875 322.265625 161.519531 C 323.054688 160.992188 323.816406 160.425781 324.550781 159.824219 C 325.285156 159.21875 325.988281 158.582031 326.660156 157.910156 C 327.332031 157.238281 327.96875 156.535156 328.574219 155.800781 C 329.175781 155.066406 329.742188 154.304688 330.269531 153.515625 C 330.796875 152.726562 331.285156 151.914062 331.730469 151.074219 C 332.179688 150.238281 332.585938 149.378906 332.949219 148.5 C 333.3125 147.625 333.632812 146.730469 333.90625 145.820312 C 334.183594 144.914062 334.414062 143.992188 334.597656 143.0625 C 334.785156 142.128906 334.921875 141.191406 335.015625 140.246094 C 335.109375 139.300781 335.15625 138.351562 335.15625 137.402344 L 335.15625 132.023438 C 335.15625 130.765625 334.9375 129.546875 334.503906 128.371094 C 334.066406 127.191406 333.441406 126.125 332.625 125.167969 L 277.570312 60.9375 L 97.429688 60.9375 L 42.375 125.167969 C 41.558594 126.125 40.933594 127.191406 40.496094 128.371094 C 40.0625 129.546875 39.84375 130.765625 39.84375 132.023438 L 39.84375 137.402344 C 39.84375 138.351562 39.890625 139.300781 39.984375 140.246094 C 40.078125 141.191406 40.214844 142.128906 40.402344 143.0625 C 40.585938 143.992188 40.816406 144.914062 41.09375 145.820312 C 41.367188 146.730469 41.6875 147.625 42.050781 148.5 C 42.414062 149.378906 42.820312 150.238281 43.269531 151.074219 C 43.714844 151.914062 44.203125 152.726562 44.730469 153.515625 C 45.257812 154.304688 45.824219 155.066406 46.425781 155.800781 C 47.03125 156.535156 47.667969 157.238281 48.339844 157.910156 C 49.011719 158.582031 49.714844 159.21875 50.449219 159.824219 C 51.183594 160.425781 51.945312 160.992188 52.734375 161.519531 C 53.523438 162.046875 54.335938 162.535156 55.175781 162.980469 C 56.011719 163.429688 56.871094 163.835938 57.75 164.199219 C 58.625 164.5625 59.519531 164.882812 60.429688 165.15625 C 61.335938 165.433594 62.257812 165.664062 63.1875 165.847656 C 64.121094 166.035156 65.058594 166.171875 66.003906 166.265625 C 66.949219 166.359375 67.898438 166.40625 68.847656 166.40625 C 69.796875 166.40625 70.746094 166.359375 71.691406 166.265625 C 72.636719 166.171875 73.574219 166.035156 74.507812 165.847656 C 75.4375 165.664062 76.359375 165.433594 77.265625 165.15625 C 78.175781 164.882812 79.070312 164.5625 79.945312 164.199219 C 80.824219 163.835938 81.683594 163.429688 82.519531 162.980469 C 83.359375 162.535156 84.171875 162.046875 84.960938 161.519531 C 85.75 160.992188 86.511719 160.425781 87.246094 159.824219 C 87.980469 159.21875 88.683594 158.582031 89.355469 157.910156 C 90.027344 157.238281 90.664062 156.535156 91.269531 155.800781 C 91.871094 155.066406 92.4375 154.304688 92.964844 153.515625 C 93.492188 152.726562 93.980469 151.914062 94.425781 151.074219 C 94.875 150.238281 95.28125 149.378906 95.644531 148.5 C 96.007812 147.625 96.328125 146.730469 96.601562 145.820312 C 96.878906 144.914062 97.109375 143.992188 97.292969 143.0625 C 97.480469 142.128906 97.617188 141.191406 97.710938 140.246094 C 97.804688 139.300781 97.851562 138.351562 97.851562 137.402344 C 97.851562 136.710938 97.917969 136.023438 98.054688 135.34375 C 98.1875 134.664062 98.390625 134.007812 98.65625 133.367188 C 98.917969 132.726562 99.246094 132.117188 99.628906 131.542969 C 100.015625 130.96875 100.449219 130.433594 100.941406 129.945312 C 101.429688 129.453125 101.964844 129.019531 102.539062 128.632812 C 103.113281 128.25 103.722656 127.921875 104.363281 127.660156 C 105.003906 127.394531 105.660156 127.191406 106.339844 127.058594 C 107.019531 126.921875 107.707031 126.855469 108.398438 126.855469 C 109.089844 126.855469 109.777344 126.921875 110.457031 127.058594 C 111.136719 127.191406 111.792969 127.394531 112.433594 127.660156 C 113.074219 127.921875 113.683594 128.25 114.257812 128.632812 C 114.832031 129.019531 115.367188 129.453125 115.855469 129.945312 C 116.347656 130.433594 116.78125 130.96875 117.167969 131.542969 C 117.550781 132.117188 117.878906 132.726562 118.140625 133.367188 C 118.40625 134.007812 118.609375 134.664062 118.742188 135.34375 C 118.878906 136.023438 118.945312 136.710938 118.945312 137.402344 M 50.390625 198.046875 C 51.082031 198.046875 51.769531 198.113281 52.449219 198.25 C 53.128906 198.382812 53.785156 198.585938 54.425781 198.851562 C 55.066406 199.113281 55.675781 199.441406 56.25 199.824219 C 56.824219 200.210938 57.359375 200.644531 57.847656 201.136719 C 58.339844 201.625 58.773438 202.160156 59.160156 202.734375 C 59.542969 203.308594 59.871094 203.917969 60.132812 204.558594 C 60.398438 205.199219 60.601562 205.855469 60.734375 206.535156 C 60.871094 207.214844 60.9375 207.902344 60.9375 208.59375 L 60.9375 335.15625 L 82.03125 335.15625 L 82.03125 229.6875 C 82.03125 228.996094 82.066406 228.308594 82.132812 227.621094 C 82.199219 226.933594 82.300781 226.25 82.4375 225.574219 C 82.570312 224.894531 82.738281 224.226562 82.941406 223.5625 C 83.140625 222.902344 83.371094 222.253906 83.636719 221.617188 C 83.902344 220.976562 84.195312 220.351562 84.523438 219.742188 C 84.847656 219.132812 85.203125 218.542969 85.585938 217.96875 C 85.96875 217.394531 86.382812 216.839844 86.820312 216.304688 C 87.257812 215.773438 87.722656 215.261719 88.210938 214.773438 C 88.699219 214.285156 89.210938 213.820312 89.742188 213.382812 C 90.277344 212.945312 90.832031 212.53125 91.40625 212.148438 C 91.980469 211.765625 92.570312 211.410156 93.179688 211.085938 C 93.789062 210.757812 94.414062 210.464844 95.054688 210.199219 C 95.691406 209.933594 96.339844 209.703125 97 209.503906 C 97.664062 209.300781 98.332031 209.132812 99.011719 209 C 99.6875 208.863281 100.371094 208.761719 101.058594 208.695312 C 101.746094 208.628906 102.433594 208.59375 103.125 208.59375 L 166.40625 208.59375 C 167.097656 208.59375 167.785156 208.628906 168.472656 208.695312 C 169.160156 208.761719 169.84375 208.863281 170.519531 209 C 171.199219 209.132812 171.867188 209.300781 172.53125 209.503906 C 173.191406 209.703125 173.839844 209.933594 174.476562 210.199219 C 175.117188 210.464844 175.742188 210.757812 176.351562 211.085938 C 176.960938 211.410156 177.550781 211.765625 178.125 212.148438 C 178.699219 212.53125 179.253906 212.945312 179.789062 213.382812 C 180.320312 213.820312 180.832031 214.285156 181.320312 214.773438 C 181.808594 215.261719 182.273438 215.773438 182.710938 216.304688 C 183.148438 216.839844 183.5625 217.394531 183.945312 217.96875 C 184.328125 218.542969 184.683594 219.132812 185.007812 219.742188 C 185.335938 220.351562 185.628906 220.976562 185.894531 221.613281 C 186.160156 222.253906 186.390625 222.902344 186.589844 223.5625 C 186.792969 224.226562 186.960938 224.894531 187.09375 225.574219 C 187.230469 226.25 187.332031 226.933594 187.398438 227.621094 C 187.464844 228.308594 187.5 228.996094 187.5 229.6875 L 187.5 335.15625 L 314.0625 335.15625 L 314.0625 208.59375 C 314.0625 207.902344 314.128906 207.214844 314.265625 206.535156 C 314.398438 205.855469 314.601562 205.199219 314.867188 204.558594 C 315.128906 203.917969 315.457031 203.308594 315.839844 202.734375 C 316.226562 202.160156 316.660156 201.625 317.152344 201.136719 C 317.640625 200.644531 318.175781 200.210938 318.75 199.824219 C 319.324219 199.441406 319.933594 199.113281 320.574219 198.851562 C 321.214844 198.585938 321.871094 198.382812 322.550781 198.25 C 323.230469 198.113281 323.917969 198.046875 324.609375 198.046875 C 325.300781 198.046875 325.988281 198.113281 326.667969 198.25 C 327.347656 198.382812 328.003906 198.585938 328.644531 198.851562 C 329.285156 199.113281 329.894531 199.441406 330.46875 199.824219 C 331.042969 200.210938 331.578125 200.644531 332.066406 201.136719 C 332.558594 201.625 332.992188 202.160156 333.378906 202.734375 C 333.761719 203.308594 334.089844 203.917969 334.351562 204.558594 C 334.617188 205.199219 334.820312 205.855469 334.953125 206.535156 C 335.089844 207.214844 335.15625 207.902344 335.15625 208.59375 L 335.15625 335.15625 L 345.703125 335.15625 C 346.394531 335.15625 347.082031 335.222656 347.761719 335.359375 C 348.441406 335.492188 349.097656 335.695312 349.738281 335.960938 C 350.378906 336.222656 350.988281 336.550781 351.5625 336.933594 C 352.136719 337.320312 352.671875 337.753906 353.160156 338.246094 C 353.652344 338.734375 354.085938 339.269531 354.472656 339.84375 C 354.855469 340.417969 355.183594 341.027344 355.445312 341.667969 C 355.710938 342.308594 355.914062 342.964844 356.046875 343.644531 C 356.183594 344.324219 356.25 345.011719 356.25 345.703125 C 356.25 346.394531 356.183594 347.082031 356.046875 347.761719 C 355.914062 348.441406 355.710938 349.097656 355.445312 349.738281 C 355.183594 350.378906 354.855469 350.988281 354.472656 351.5625 C 354.085938 352.136719 353.652344 352.671875 353.160156 353.160156 C 352.671875 353.652344 352.136719 354.085938 351.5625 354.472656 C 350.988281 354.855469 350.378906 355.183594 349.738281 355.445312 C 349.097656 355.710938 348.441406 355.914062 347.761719 356.046875 C 347.082031 356.183594 346.394531 356.25 345.703125 356.25 L 29.296875 356.25 C 28.605469 356.25 27.917969 356.183594 27.238281 356.046875 C 26.558594 355.914062 25.902344 355.710938 25.261719 355.445312 C 24.621094 355.183594 24.011719 354.855469 23.4375 354.472656 C 22.863281 354.085938 22.328125 353.652344 21.839844 353.160156 C 21.347656 352.671875 20.914062 352.136719 20.527344 351.5625 C 20.144531 350.988281 19.816406 350.378906 19.554688 349.738281 C 19.289062 349.097656 19.085938 348.441406 18.953125 347.761719 C 18.816406 347.082031 18.75 346.394531 18.75 345.703125 C 18.75 345.011719 18.816406 344.324219 18.953125 343.644531 C 19.085938 342.964844 19.289062 342.308594 19.554688 341.667969 C 19.816406 341.027344 20.144531 340.417969 20.527344 339.84375 C 20.914062 339.269531 21.347656 338.734375 21.839844 338.246094 C 22.328125 337.753906 22.863281 337.320312 23.4375 336.933594 C 24.011719 336.550781 24.621094 336.222656 25.261719 335.960938 C 25.902344 335.695312 26.558594 335.492188 27.238281 335.359375 C 27.917969 335.222656 28.605469 335.15625 29.296875 335.15625 L 39.84375 335.15625 L 39.84375 208.59375 C 39.84375 207.902344 39.910156 207.214844 40.046875 206.535156 C 40.179688 205.855469 40.382812 205.199219 40.648438 204.558594 C 40.910156 203.917969 41.238281 203.308594 41.621094 202.734375 C 42.007812 202.160156 42.441406 201.625 42.933594 201.136719 C 43.421875 200.644531 43.957031 200.210938 44.53125 199.824219 C 45.105469 199.441406 45.714844 199.113281 46.355469 198.851562 C 46.996094 198.585938 47.652344 198.382812 48.332031 198.25 C 49.011719 198.113281 49.699219 198.046875 50.390625 198.046875 M 103.125 335.15625 L 166.40625 335.15625 L 166.40625 229.6875 L 103.125 229.6875 Z M 208.59375 229.6875 C 208.59375 228.996094 208.628906 228.308594 208.695312 227.621094 C 208.761719 226.933594 208.863281 226.25 209 225.574219 C 209.132812 224.894531 209.300781 224.226562 209.503906 223.5625 C 209.703125 222.902344 209.933594 222.253906 210.199219 221.617188 C 210.464844 220.976562 210.757812 220.351562 211.085938 219.742188 C 211.410156 219.132812 211.765625 218.542969 212.148438 217.96875 C 212.53125 217.394531 212.945312 216.839844 213.382812 216.304688 C 213.820312 215.773438 214.285156 215.261719 214.773438 214.773438 C 215.261719 214.285156 215.773438 213.820312 216.304688 213.382812 C 216.839844 212.945312 217.394531 212.53125 217.96875 212.148438 C 218.542969 211.765625 219.132812 211.410156 219.742188 211.085938 C 220.351562 210.757812 220.976562 210.464844 221.617188 210.199219 C 222.253906 209.933594 222.902344 209.703125 223.5625 209.503906 C 224.226562 209.300781 224.894531 209.132812 225.574219 209 C 226.25 208.863281 226.933594 208.761719 227.621094 208.695312 C 228.308594 208.628906 228.996094 208.59375 229.6875 208.59375 L 271.875 208.59375 C 272.566406 208.59375 273.253906 208.628906 273.941406 208.695312 C 274.628906 208.761719 275.3125 208.863281 275.988281 209 C 276.667969 209.132812 277.335938 209.300781 278 209.503906 C 278.660156 209.703125 279.308594 209.933594 279.945312 210.199219 C 280.585938 210.464844 281.210938 210.757812 281.820312 211.085938 C 282.429688 211.410156 283.019531 211.765625 283.59375 212.148438 C 284.167969 212.53125 284.722656 212.945312 285.257812 213.382812 C 285.789062 213.820312 286.300781 214.285156 286.789062 214.773438 C 287.277344 215.261719 287.742188 215.773438 288.179688 216.304688 C 288.617188 216.839844 289.03125 217.394531 289.414062 217.96875 C 289.796875 218.542969 290.152344 219.132812 290.476562 219.742188 C 290.804688 220.351562 291.097656 220.976562 291.363281 221.613281 C 291.628906 222.253906 291.859375 222.902344 292.058594 223.5625 C 292.261719 224.226562 292.429688 224.894531 292.5625 225.574219 C 292.699219 226.25 292.800781 226.933594 292.867188 227.621094 C 292.933594 228.308594 292.96875 228.996094 292.96875 229.6875 L 292.96875 292.96875 C 292.96875 293.660156 292.933594 294.347656 292.867188 295.035156 C 292.800781 295.722656 292.699219 296.40625 292.5625 297.082031 C 292.429688 297.761719 292.261719 298.429688 292.058594 299.09375 C 291.859375 299.753906 291.628906 300.402344 291.363281 301.039062 C 291.097656 301.679688 290.804688 302.304688 290.476562 302.914062 C 290.152344 303.523438 289.796875 304.113281 289.414062 304.6875 C 289.03125 305.261719 288.617188 305.816406 288.179688 306.351562 C 287.742188 306.882812 287.277344 307.394531 286.789062 307.882812 C 286.300781 308.371094 285.789062 308.835938 285.257812 309.273438 C 284.722656 309.710938 284.167969 310.125 283.59375 310.507812 C 283.019531 310.890625 282.429688 311.246094 281.820312 311.570312 C 281.210938 311.898438 280.585938 312.191406 279.945312 312.457031 C 279.308594 312.722656 278.660156 312.953125 278 313.152344 C 277.335938 313.355469 276.667969 313.523438 275.988281 313.65625 C 275.3125 313.792969 274.628906 313.894531 273.941406 313.960938 C 273.253906 314.027344 272.566406 314.0625 271.875 314.0625 L 229.6875 314.0625 C 228.996094 314.0625 228.308594 314.027344 227.621094 313.960938 C 226.933594 313.894531 226.25 313.792969 225.574219 313.65625 C 224.894531 313.523438 224.226562 313.355469 223.5625 313.152344 C 222.902344 312.953125 222.253906 312.722656 221.617188 312.457031 C 220.976562 312.191406 220.351562 311.898438 219.742188 311.570312 C 219.132812 311.246094 218.542969 310.890625 217.96875 310.507812 C 217.394531 310.125 216.839844 309.710938 216.304688 309.273438 C 215.773438 308.835938 215.261719 308.371094 214.773438 307.882812 C 214.285156 307.394531 213.820312 306.882812 213.382812 306.351562 C 212.945312 305.816406 212.53125 305.261719 212.148438 304.6875 C 211.765625 304.113281 211.410156 303.523438 211.085938 302.914062 C 210.757812 302.304688 210.464844 301.679688 210.199219 301.039062 C 209.933594 300.402344 209.703125 299.753906 209.503906 299.09375 C 209.300781 298.429688 209.132812 297.761719 209 297.082031 C 208.863281 296.40625 208.761719 295.722656 208.695312 295.035156 C 208.628906 294.347656 208.59375 293.660156 208.59375 292.96875 Z M 271.875 229.6875 L 229.6875 229.6875 L 229.6875 292.96875 L 271.875 292.96875 Z M 271.875 229.6875 " fill-opacity="1" fill-rule="nonzero"/></g></svg>