<svg xmlns="http://www.w3.org/2000/svg" xmlns:xlink="http://www.w3.org/1999/xlink" width="500" zoomAndPan="magnify" viewBox="0 0 375 374.999991" height="500" preserveAspectRatio="xMidYMid meet" version="1.0"><defs><clipPath id="11d60aaabd"><path d="M 18.75 93.441406 L 266.5625 93.441406 L 266.5625 326 L 18.75 326 Z M 18.75 93.441406 " clip-rule="nonzero"/></clipPath><clipPath id="40b6e8c315"><path d="M 236.859375 41 L 355.808594 41 L 355.808594 152.695312 L 236.859375 152.695312 Z M 236.859375 41 " clip-rule="nonzero"/></clipPath></defs><path fill="#00ff85" d="M 111.679688 287.046875 C 111.679688 286.535156 111.730469 286.035156 111.828125 285.535156 C 111.929688 285.035156 112.074219 284.550781 112.269531 284.082031 C 112.464844 283.613281 112.703125 283.164062 112.984375 282.742188 C 113.269531 282.320312 113.589844 281.929688 113.949219 281.570312 C 114.308594 281.210938 114.699219 280.890625 115.121094 280.605469 C 115.542969 280.324219 115.992188 280.085938 116.460938 279.890625 C 116.929688 279.695312 117.414062 279.550781 117.914062 279.449219 C 118.410156 279.351562 118.914062 279.300781 119.425781 279.300781 L 165.890625 279.300781 C 166.398438 279.300781 166.902344 279.351562 167.398438 279.449219 C 167.898438 279.550781 168.382812 279.695312 168.851562 279.890625 C 169.324219 280.085938 169.769531 280.324219 170.191406 280.605469 C 170.613281 280.890625 171.003906 281.210938 171.363281 281.570312 C 171.726562 281.929688 172.046875 282.320312 172.328125 282.742188 C 172.609375 283.164062 172.847656 283.613281 173.042969 284.082031 C 173.238281 284.550781 173.386719 285.035156 173.484375 285.535156 C 173.582031 286.035156 173.632812 286.535156 173.632812 287.046875 C 173.632812 287.554688 173.582031 288.058594 173.484375 288.554688 C 173.386719 289.054688 173.238281 289.539062 173.042969 290.007812 C 172.847656 290.480469 172.609375 290.925781 172.328125 291.347656 C 172.046875 291.769531 171.726562 292.160156 171.363281 292.519531 C 171.003906 292.878906 170.613281 293.203125 170.191406 293.484375 C 169.769531 293.765625 169.324219 294.003906 168.851562 294.199219 C 168.382812 294.394531 167.898438 294.542969 167.398438 294.640625 C 166.902344 294.738281 166.398438 294.789062 165.890625 294.789062 L 119.425781 294.789062 C 118.914062 294.789062 118.410156 294.738281 117.914062 294.640625 C 117.414062 294.542969 116.929688 294.394531 116.460938 294.199219 C 115.992188 294.003906 115.542969 293.765625 115.121094 293.484375 C 114.699219 293.203125 114.308594 292.878906 113.949219 292.519531 C 113.589844 292.160156 113.269531 291.769531 112.984375 291.347656 C 112.703125 290.925781 112.464844 290.480469 112.269531 290.007812 C 112.074219 289.539062 111.929688 289.054688 111.828125 288.554688 C 111.730469 288.058594 111.679688 287.554688 111.679688 287.046875 M 65.214844 218.308594 C 65.214844 198.140625 84.34375 182.730469 104.402344 184.605469 C 129.90625 186.984375 155.410156 186.984375 180.914062 184.605469 C 200.96875 182.730469 220.097656 198.140625 220.097656 218.308594 L 220.097656 236.226562 C 220.117188 237.078125 220.058594 237.925781 219.925781 238.765625 C 219.796875 239.605469 219.589844 240.425781 219.3125 241.230469 C 219.035156 242.035156 218.691406 242.808594 218.277344 243.550781 C 217.859375 244.296875 217.382812 244.996094 216.84375 245.65625 C 216.308594 246.3125 215.714844 246.917969 215.066406 247.472656 C 214.421875 248.027344 213.734375 248.519531 213 248.949219 C 212.265625 249.382812 211.5 249.746094 210.703125 250.039062 C 209.90625 250.335938 209.085938 250.558594 208.25 250.710938 C 195.164062 252.988281 172.007812 256.070312 142.65625 256.070312 C 113.304688 256.070312 90.152344 252.972656 77.0625 250.710938 C 76.226562 250.558594 75.410156 250.335938 74.609375 250.039062 C 73.8125 249.746094 73.046875 249.382812 72.3125 248.949219 C 71.582031 248.519531 70.890625 248.027344 70.246094 247.472656 C 69.597656 246.917969 69.007812 246.3125 68.46875 245.65625 C 67.929688 244.996094 67.453125 244.296875 67.039062 243.550781 C 66.625 242.808594 66.277344 242.035156 66 241.230469 C 65.722656 240.425781 65.515625 239.605469 65.386719 238.765625 C 65.253906 237.925781 65.195312 237.078125 65.214844 236.226562 Z M 135.5625 205.5 C 134.949219 205.394531 134.347656 205.4375 133.753906 205.621094 C 133.164062 205.808594 132.644531 206.117188 132.203125 206.550781 L 117.953125 220.492188 C 108.257812 219.910156 98.597656 218.964844 88.972656 217.65625 C 88.476562 217.609375 87.984375 217.652344 87.503906 217.792969 C 87.023438 217.933594 86.585938 218.160156 86.195312 218.46875 C 85.800781 218.78125 85.480469 219.152344 85.230469 219.585938 C 84.980469 220.023438 84.824219 220.488281 84.753906 220.984375 C 84.6875 221.480469 84.714844 221.972656 84.835938 222.457031 C 84.957031 222.941406 85.167969 223.386719 85.460938 223.792969 C 85.757812 224.195312 86.117188 224.53125 86.542969 224.796875 C 86.96875 225.0625 87.425781 225.238281 87.921875 225.324219 C 96.441406 226.5 107.003906 227.632812 119.207031 228.3125 C 119.75 228.34375 120.277344 228.265625 120.785156 228.074219 C 121.296875 227.882812 121.746094 227.59375 122.132812 227.214844 L 133.8125 215.816406 L 146.929688 242.300781 C 147.070312 242.578125 147.238281 242.835938 147.4375 243.070312 C 147.640625 243.308594 147.863281 243.519531 148.113281 243.703125 C 148.367188 243.886719 148.632812 244.035156 148.921875 244.152344 C 149.207031 244.273438 149.503906 244.355469 149.8125 244.402344 C 150.117188 244.449219 150.425781 244.460938 150.734375 244.433594 C 151.042969 244.40625 151.34375 244.34375 151.640625 244.242188 C 151.933594 244.144531 152.210938 244.011719 152.472656 243.84375 C 152.734375 243.679688 152.972656 243.484375 153.1875 243.261719 L 167.625 228.234375 C 177.585938 227.648438 187.507812 226.679688 197.390625 225.324219 C 197.886719 225.238281 198.34375 225.0625 198.769531 224.796875 C 199.195312 224.53125 199.554688 224.195312 199.851562 223.792969 C 200.144531 223.386719 200.355469 222.941406 200.476562 222.457031 C 200.597656 221.972656 200.625 221.480469 200.558594 220.984375 C 200.488281 220.488281 200.332031 220.023438 200.082031 219.585938 C 199.832031 219.152344 199.511719 218.78125 199.121094 218.46875 C 198.726562 218.160156 198.289062 217.933594 197.808594 217.792969 C 197.328125 217.652344 196.835938 217.609375 196.339844 217.65625 C 188.007812 218.804688 177.644531 219.902344 165.671875 220.585938 C 164.660156 220.640625 163.804688 221.035156 163.101562 221.761719 L 151.421875 233.921875 L 138.382812 207.589844 C 138.105469 207.035156 137.71875 206.574219 137.222656 206.207031 C 136.726562 205.839844 136.171875 205.601562 135.5625 205.5 " fill-opacity="1" fill-rule="nonzero"/><g clip-path="url(#11d60aaabd)"><path fill="#00ff85" d="M 150.402344 122.34375 C 150.890625 122.058594 151.359375 121.753906 151.816406 121.417969 C 152.269531 121.085938 152.703125 120.730469 153.121094 120.347656 C 153.535156 119.96875 153.929688 119.566406 154.300781 119.140625 C 154.671875 118.71875 155.019531 118.273438 155.34375 117.8125 C 155.667969 117.351562 155.964844 116.875 156.234375 116.378906 C 156.507812 115.882812 156.75 115.378906 156.964844 114.855469 C 157.183594 114.335938 157.367188 113.804688 157.527344 113.261719 C 157.683594 112.722656 157.8125 112.171875 157.910156 111.617188 C 158.007812 111.0625 158.074219 110.503906 158.113281 109.941406 C 158.148438 109.378906 158.15625 108.816406 158.128906 108.253906 C 158.105469 107.691406 158.050781 107.128906 157.964844 106.574219 C 157.878906 106.015625 157.761719 105.464844 157.617188 104.921875 C 157.472656 104.375 157.296875 103.839844 157.09375 103.316406 C 156.886719 102.789062 156.65625 102.277344 156.394531 101.777344 C 156.132812 101.277344 155.847656 100.792969 155.535156 100.324219 C 155.222656 99.855469 154.882812 99.40625 154.519531 98.972656 C 154.160156 98.542969 153.773438 98.128906 153.367188 97.742188 C 152.960938 97.351562 152.53125 96.984375 152.085938 96.640625 C 151.636719 96.296875 151.171875 95.980469 150.691406 95.6875 C 150.210938 95.394531 149.714844 95.128906 149.203125 94.890625 C 148.691406 94.652344 148.167969 94.445312 147.636719 94.261719 C 147.101562 94.082031 146.558594 93.929688 146.007812 93.808594 C 145.457031 93.6875 144.902344 93.59375 144.34375 93.53125 C 143.78125 93.472656 143.21875 93.441406 142.65625 93.441406 C 142.09375 93.441406 141.53125 93.472656 140.96875 93.53125 C 140.410156 93.59375 139.855469 93.6875 139.304688 93.808594 C 138.753906 93.929688 138.210938 94.082031 137.679688 94.261719 C 137.144531 94.445312 136.621094 94.652344 136.109375 94.890625 C 135.601562 95.128906 135.105469 95.394531 134.621094 95.6875 C 134.140625 95.980469 133.675781 96.296875 133.226562 96.640625 C 132.78125 96.984375 132.351562 97.351562 131.945312 97.742188 C 131.539062 98.128906 131.152344 98.542969 130.792969 98.972656 C 130.429688 99.40625 130.089844 99.855469 129.777344 100.324219 C 129.464844 100.792969 129.179688 101.277344 128.917969 101.777344 C 128.65625 102.277344 128.425781 102.789062 128.222656 103.316406 C 128.015625 103.839844 127.84375 104.375 127.695312 104.921875 C 127.550781 105.464844 127.433594 106.015625 127.347656 106.574219 C 127.261719 107.128906 127.207031 107.691406 127.183594 108.253906 C 127.160156 108.816406 127.164062 109.378906 127.203125 109.941406 C 127.238281 110.503906 127.304688 111.0625 127.402344 111.617188 C 127.5 112.171875 127.628906 112.722656 127.785156 113.261719 C 127.945312 113.804688 128.132812 114.335938 128.347656 114.855469 C 128.5625 115.378906 128.804688 115.882812 129.078125 116.378906 C 129.347656 116.875 129.644531 117.351562 129.96875 117.8125 C 130.292969 118.273438 130.640625 118.71875 131.011719 119.140625 C 131.382812 119.566406 131.777344 119.96875 132.191406 120.347656 C 132.609375 120.730469 133.042969 121.085938 133.5 121.417969 C 133.953125 121.753906 134.425781 122.058594 134.914062 122.34375 L 134.914062 139.90625 L 103.9375 139.90625 C 102.796875 139.90625 101.65625 139.933594 100.515625 139.988281 C 99.375 140.046875 98.238281 140.128906 97.105469 140.242188 C 95.96875 140.355469 94.835938 140.492188 93.710938 140.660156 C 92.582031 140.828125 91.457031 141.023438 90.339844 141.246094 C 89.21875 141.46875 88.105469 141.71875 87 141.996094 C 85.894531 142.273438 84.796875 142.578125 83.703125 142.90625 C 82.613281 143.238281 81.53125 143.597656 80.457031 143.980469 C 79.382812 144.363281 78.316406 144.773438 77.265625 145.210938 C 76.210938 145.648438 75.167969 146.109375 74.136719 146.597656 C 73.105469 147.085938 72.085938 147.597656 71.082031 148.136719 C 70.074219 148.671875 69.082031 149.234375 68.105469 149.820312 C 67.125 150.410156 66.164062 151.019531 65.214844 151.652344 C 64.265625 152.285156 63.332031 152.941406 62.417969 153.621094 C 61.5 154.300781 60.601562 155.003906 59.71875 155.726562 C 58.839844 156.449219 57.976562 157.195312 57.128906 157.960938 C 56.285156 158.726562 55.457031 159.511719 54.652344 160.320312 C 53.84375 161.125 53.058594 161.953125 52.292969 162.796875 C 51.527344 163.644531 50.78125 164.507812 50.058594 165.386719 C 49.335938 166.269531 48.632812 167.167969 47.953125 168.085938 C 47.273438 169 46.617188 169.933594 45.984375 170.882812 C 45.351562 171.832031 44.742188 172.792969 44.15625 173.773438 C 43.566406 174.75 43.003906 175.742188 42.46875 176.75 C 41.929688 177.753906 41.417969 178.773438 40.929688 179.804688 C 40.441406 180.835938 39.980469 181.878906 39.542969 182.929688 C 39.105469 183.984375 38.695312 185.050781 38.3125 186.125 C 37.929688 187.195312 37.570312 188.28125 37.238281 189.371094 C 36.910156 190.464844 36.605469 191.5625 36.328125 192.667969 C 36.050781 193.773438 35.800781 194.886719 35.578125 196.007812 C 35.355469 197.125 35.160156 198.25 34.992188 199.375 C 34.824219 200.503906 34.6875 201.636719 34.574219 202.773438 C 34.460938 203.90625 34.378906 205.042969 34.324219 206.183594 C 34.265625 207.324219 34.238281 208.464844 34.238281 209.605469 L 34.238281 217.347656 C 33.222656 217.347656 32.214844 217.445312 31.214844 217.644531 C 30.21875 217.84375 29.25 218.136719 28.3125 218.527344 C 27.371094 218.914062 26.480469 219.394531 25.632812 219.957031 C 24.789062 220.523438 24.003906 221.164062 23.285156 221.882812 C 22.566406 222.601562 21.925781 223.386719 21.359375 224.230469 C 20.796875 225.078125 20.316406 225.96875 19.929688 226.910156 C 19.539062 227.847656 19.246094 228.816406 19.046875 229.816406 C 18.847656 230.8125 18.75 231.820312 18.75 232.835938 L 18.75 263.8125 C 18.75 264.828125 18.847656 265.835938 19.046875 266.835938 C 19.246094 267.832031 19.539062 268.800781 19.929688 269.738281 C 20.316406 270.679688 20.796875 271.570312 21.359375 272.417969 C 21.925781 273.261719 22.566406 274.046875 23.285156 274.765625 C 24.003906 275.484375 24.789062 276.125 25.632812 276.691406 C 26.480469 277.257812 27.371094 277.734375 28.3125 278.121094 C 29.25 278.511719 30.21875 278.804688 31.214844 279.003906 C 32.214844 279.203125 33.222656 279.300781 34.238281 279.300781 L 34.238281 294.789062 C 34.238281 295.804688 34.289062 296.816406 34.386719 297.824219 C 34.488281 298.835938 34.636719 299.835938 34.832031 300.832031 C 35.03125 301.828125 35.277344 302.8125 35.570312 303.78125 C 35.867188 304.753906 36.207031 305.707031 36.597656 306.644531 C 36.984375 307.582031 37.417969 308.496094 37.894531 309.390625 C 38.375 310.285156 38.894531 311.15625 39.457031 312 C 40.023438 312.84375 40.625 313.65625 41.269531 314.441406 C 41.914062 315.226562 42.59375 315.976562 43.3125 316.691406 C 44.027344 317.410156 44.78125 318.089844 45.5625 318.734375 C 46.347656 319.378906 47.160156 319.980469 48.003906 320.546875 C 48.847656 321.109375 49.71875 321.628906 50.613281 322.109375 C 51.507812 322.585938 52.421875 323.019531 53.359375 323.40625 C 54.296875 323.796875 55.253906 324.136719 56.222656 324.433594 C 57.195312 324.726562 58.175781 324.972656 59.171875 325.171875 C 60.167969 325.367188 61.167969 325.515625 62.179688 325.617188 C 63.1875 325.714844 64.199219 325.765625 65.214844 325.765625 L 220.097656 325.765625 C 221.113281 325.765625 222.125 325.714844 223.132812 325.617188 C 224.144531 325.515625 225.148438 325.367188 226.140625 325.171875 C 227.136719 324.972656 228.121094 324.726562 229.089844 324.433594 C 230.0625 324.136719 231.015625 323.796875 231.953125 323.40625 C 232.890625 323.019531 233.804688 322.585938 234.699219 322.109375 C 235.59375 321.628906 236.464844 321.109375 237.308594 320.546875 C 238.152344 319.980469 238.964844 319.378906 239.75 318.734375 C 240.535156 318.089844 241.285156 317.410156 242.003906 316.691406 C 242.71875 315.976562 243.398438 315.226562 244.042969 314.441406 C 244.6875 313.65625 245.289062 312.84375 245.855469 312 C 246.417969 311.15625 246.9375 310.285156 247.417969 309.390625 C 247.894531 308.496094 248.328125 307.582031 248.71875 306.644531 C 249.105469 305.707031 249.445312 304.753906 249.742188 303.78125 C 250.035156 302.8125 250.28125 301.828125 250.480469 300.832031 C 250.675781 299.835938 250.828125 298.835938 250.925781 297.824219 C 251.023438 296.816406 251.074219 295.804688 251.074219 294.789062 L 251.074219 279.300781 C 252.09375 279.300781 253.097656 279.203125 254.097656 279.003906 C 255.09375 278.804688 256.0625 278.511719 257.003906 278.121094 C 257.941406 277.734375 258.835938 277.257812 259.679688 276.691406 C 260.527344 276.125 261.308594 275.484375 262.027344 274.765625 C 262.746094 274.046875 263.386719 273.261719 263.953125 272.417969 C 264.519531 271.570312 264.996094 270.679688 265.382812 269.738281 C 265.773438 268.800781 266.066406 267.832031 266.265625 266.835938 C 266.464844 265.835938 266.5625 264.828125 266.5625 263.8125 L 266.5625 232.835938 C 266.5625 231.820312 266.464844 230.8125 266.265625 229.816406 C 266.066406 228.816406 265.773438 227.847656 265.382812 226.910156 C 264.996094 225.96875 264.519531 225.078125 263.953125 224.230469 C 263.386719 223.386719 262.746094 222.601562 262.027344 221.882812 C 261.308594 221.164062 260.527344 220.523438 259.679688 219.957031 C 258.835938 219.394531 257.941406 218.914062 257.003906 218.527344 C 256.0625 218.136719 255.09375 217.84375 254.097656 217.644531 C 253.097656 217.445312 252.09375 217.347656 251.074219 217.347656 L 251.074219 209.605469 C 251.074219 208.464844 251.046875 207.324219 250.992188 206.183594 C 250.933594 205.042969 250.851562 203.90625 250.738281 202.773438 C 250.628906 201.636719 250.488281 200.503906 250.320312 199.375 C 250.152344 198.25 249.957031 197.125 249.734375 196.007812 C 249.511719 194.886719 249.261719 193.773438 248.984375 192.667969 C 248.710938 191.5625 248.40625 190.464844 248.074219 189.371094 C 247.742188 188.28125 247.386719 187.195312 247 186.125 C 246.617188 185.050781 246.207031 183.984375 245.769531 182.929688 C 245.332031 181.878906 244.871094 180.835938 244.382812 179.804688 C 243.894531 178.773438 243.382812 177.753906 242.84375 176.75 C 242.308594 175.742188 241.746094 174.75 241.160156 173.773438 C 240.574219 172.792969 239.960938 171.832031 239.328125 170.882812 C 238.695312 169.933594 238.039062 169 237.359375 168.085938 C 236.679688 167.167969 235.976562 166.269531 235.253906 165.386719 C 234.53125 164.507812 233.785156 163.644531 233.019531 162.796875 C 232.253906 161.953125 231.46875 161.125 230.660156 160.320312 C 229.855469 159.511719 229.027344 158.726562 228.183594 157.960938 C 227.339844 157.195312 226.476562 156.449219 225.59375 155.726562 C 224.710938 155.003906 223.8125 154.300781 222.894531 153.621094 C 221.980469 152.941406 221.046875 152.285156 220.097656 151.652344 C 219.152344 151.019531 218.1875 150.410156 217.210938 149.820312 C 216.230469 149.234375 215.238281 148.671875 214.234375 148.136719 C 213.226562 147.597656 212.207031 147.085938 211.175781 146.597656 C 210.144531 146.109375 209.101562 145.648438 208.050781 145.210938 C 206.996094 144.773438 205.933594 144.363281 204.859375 143.980469 C 203.785156 143.597656 202.699219 143.238281 201.609375 142.90625 C 200.519531 142.578125 199.417969 142.273438 198.3125 141.996094 C 197.207031 141.71875 196.09375 141.46875 194.976562 141.246094 C 193.855469 141.023438 192.734375 140.828125 191.605469 140.660156 C 190.476562 140.492188 189.34375 140.355469 188.210938 140.242188 C 187.074219 140.128906 185.9375 140.046875 184.796875 139.988281 C 183.65625 139.933594 182.519531 139.90625 181.378906 139.90625 L 150.402344 139.90625 Z M 235.585938 209.605469 L 235.585938 294.789062 C 235.585938 295.804688 235.488281 296.8125 235.289062 297.8125 C 235.089844 298.808594 234.796875 299.777344 234.40625 300.714844 C 234.019531 301.65625 233.542969 302.546875 232.976562 303.394531 C 232.410156 304.238281 231.769531 305.023438 231.050781 305.742188 C 230.332031 306.460938 229.546875 307.101562 228.703125 307.667969 C 227.859375 308.234375 226.964844 308.710938 226.027344 309.097656 C 225.085938 309.488281 224.117188 309.78125 223.121094 309.980469 C 222.121094 310.179688 221.117188 310.277344 220.097656 310.277344 L 65.214844 310.277344 C 64.199219 310.277344 63.191406 310.179688 62.195312 309.980469 C 61.195312 309.78125 60.226562 309.488281 59.289062 309.097656 C 58.347656 308.710938 57.457031 308.234375 56.609375 307.667969 C 55.765625 307.101562 54.980469 306.460938 54.261719 305.742188 C 53.542969 305.023438 52.902344 304.238281 52.335938 303.394531 C 51.773438 302.546875 51.292969 301.65625 50.90625 300.714844 C 50.515625 299.777344 50.222656 298.808594 50.023438 297.8125 C 49.824219 296.8125 49.726562 295.804688 49.726562 294.789062 L 49.726562 209.605469 C 49.726562 207.828125 49.8125 206.058594 49.988281 204.289062 C 50.160156 202.523438 50.421875 200.769531 50.769531 199.027344 C 51.113281 197.285156 51.546875 195.566406 52.0625 193.867188 C 52.578125 192.167969 53.171875 190.5 53.851562 188.859375 C 54.53125 187.21875 55.289062 185.617188 56.128906 184.050781 C 56.964844 182.484375 57.875 180.960938 58.863281 179.488281 C 59.847656 178.011719 60.90625 176.585938 62.03125 175.214844 C 63.15625 173.839844 64.347656 172.527344 65.605469 171.273438 C 66.859375 170.015625 68.171875 168.824219 69.546875 167.699219 C 70.917969 166.574219 72.34375 165.515625 73.820312 164.53125 C 75.296875 163.542969 76.816406 162.632812 78.382812 161.796875 C 79.949219 160.957031 81.550781 160.199219 83.191406 159.519531 C 84.832031 158.839844 86.5 158.242188 88.199219 157.730469 C 89.898438 157.214844 91.617188 156.78125 93.359375 156.4375 C 95.101562 156.089844 96.855469 155.828125 98.621094 155.65625 C 100.390625 155.480469 102.160156 155.394531 103.9375 155.394531 L 181.378906 155.394531 C 183.152344 155.394531 184.925781 155.480469 186.691406 155.65625 C 188.457031 155.828125 190.210938 156.089844 191.953125 156.4375 C 193.695312 156.78125 195.414062 157.214844 197.113281 157.730469 C 198.8125 158.242188 200.480469 158.839844 202.121094 159.519531 C 203.761719 160.199219 205.367188 160.957031 206.929688 161.796875 C 208.496094 162.632812 210.019531 163.542969 211.496094 164.53125 C 212.96875 165.515625 214.394531 166.574219 215.765625 167.699219 C 217.140625 168.824219 218.453125 170.015625 219.710938 171.273438 C 220.964844 172.527344 222.15625 173.839844 223.28125 175.214844 C 224.40625 176.585938 225.464844 178.011719 226.449219 179.488281 C 227.4375 180.960938 228.347656 182.484375 229.1875 184.050781 C 230.023438 185.617188 230.78125 187.21875 231.460938 188.859375 C 232.140625 190.5 232.738281 192.167969 233.253906 193.867188 C 233.769531 195.566406 234.199219 197.285156 234.546875 199.027344 C 234.890625 200.769531 235.152344 202.523438 235.324219 204.289062 C 235.5 206.058594 235.585938 207.828125 235.585938 209.605469 " fill-opacity="1" fill-rule="nonzero"/></g><path fill="#00ff85" d="M 274.164062 93.433594 C 274.164062 93.921875 274.117188 94.410156 274.019531 94.890625 C 273.925781 95.371094 273.785156 95.835938 273.597656 96.289062 C 273.410156 96.742188 273.179688 97.171875 272.90625 97.578125 C 272.632812 97.984375 272.324219 98.363281 271.976562 98.710938 C 271.632812 99.054688 271.253906 99.363281 270.847656 99.636719 C 270.441406 99.910156 270.011719 100.140625 269.558594 100.328125 C 269.105469 100.515625 268.640625 100.65625 268.160156 100.75 C 267.679688 100.847656 267.191406 100.894531 266.703125 100.894531 C 266.210938 100.894531 265.726562 100.847656 265.246094 100.75 C 264.765625 100.65625 264.300781 100.515625 263.847656 100.328125 C 263.394531 100.140625 262.964844 99.910156 262.558594 99.636719 C 262.148438 99.363281 261.773438 99.054688 261.425781 98.710938 C 261.082031 98.363281 260.769531 97.984375 260.5 97.578125 C 260.226562 97.171875 259.996094 96.742188 259.808594 96.289062 C 259.621094 95.835938 259.480469 95.371094 259.386719 94.890625 C 259.289062 94.410156 259.242188 93.921875 259.242188 93.433594 C 259.242188 92.945312 259.289062 92.457031 259.386719 91.976562 C 259.480469 91.496094 259.621094 91.03125 259.808594 90.578125 C 259.996094 90.125 260.226562 89.695312 260.5 89.289062 C 260.769531 88.882812 261.082031 88.503906 261.425781 88.15625 C 261.773438 87.8125 262.148438 87.503906 262.558594 87.230469 C 262.964844 86.957031 263.394531 86.726562 263.847656 86.539062 C 264.300781 86.351562 264.765625 86.210938 265.246094 86.117188 C 265.726562 86.019531 266.210938 85.972656 266.703125 85.972656 C 267.191406 85.972656 267.679688 86.019531 268.160156 86.117188 C 268.640625 86.210938 269.105469 86.351562 269.558594 86.539062 C 270.011719 86.726562 270.441406 86.957031 270.847656 87.230469 C 271.253906 87.503906 271.632812 87.8125 271.976562 88.15625 C 272.324219 88.503906 272.632812 88.882812 272.90625 89.289062 C 273.179688 89.695312 273.410156 90.125 273.597656 90.578125 C 273.785156 91.03125 273.925781 91.496094 274.019531 91.976562 C 274.117188 92.457031 274.164062 92.945312 274.164062 93.433594 M 304.007812 93.433594 C 304.007812 93.921875 303.960938 94.410156 303.863281 94.890625 C 303.769531 95.371094 303.628906 95.835938 303.441406 96.289062 C 303.253906 96.742188 303.023438 97.171875 302.75 97.578125 C 302.476562 97.984375 302.167969 98.363281 301.824219 98.710938 C 301.476562 99.054688 301.097656 99.363281 300.691406 99.636719 C 300.285156 99.910156 299.855469 100.140625 299.402344 100.328125 C 298.949219 100.515625 298.484375 100.65625 298.003906 100.75 C 297.523438 100.847656 297.035156 100.894531 296.546875 100.894531 C 296.058594 100.894531 295.570312 100.847656 295.089844 100.75 C 294.609375 100.65625 294.144531 100.515625 293.691406 100.328125 C 293.238281 100.140625 292.808594 99.910156 292.402344 99.636719 C 291.996094 99.363281 291.617188 99.054688 291.269531 98.710938 C 290.925781 98.363281 290.617188 97.984375 290.34375 97.578125 C 290.070312 97.171875 289.839844 96.742188 289.652344 96.289062 C 289.464844 95.835938 289.324219 95.371094 289.230469 94.890625 C 289.132812 94.410156 289.085938 93.921875 289.085938 93.433594 C 289.085938 92.945312 289.132812 92.457031 289.230469 91.976562 C 289.324219 91.496094 289.464844 91.03125 289.652344 90.578125 C 289.839844 90.125 290.070312 89.695312 290.34375 89.289062 C 290.617188 88.882812 290.925781 88.503906 291.269531 88.15625 C 291.617188 87.8125 291.996094 87.503906 292.402344 87.230469 C 292.808594 86.957031 293.238281 86.726562 293.691406 86.539062 C 294.144531 86.351562 294.609375 86.210938 295.089844 86.117188 C 295.570312 86.019531 296.058594 85.972656 296.546875 85.972656 C 297.035156 85.972656 297.523438 86.019531 298.003906 86.117188 C 298.484375 86.210938 298.949219 86.351562 299.402344 86.539062 C 299.855469 86.726562 300.285156 86.957031 300.691406 87.230469 C 301.097656 87.503906 301.476562 87.8125 301.824219 88.15625 C 302.167969 88.503906 302.476562 88.882812 302.75 89.289062 C 303.023438 89.695312 303.253906 90.125 303.441406 90.578125 C 303.628906 91.03125 303.769531 91.496094 303.863281 91.976562 C 303.960938 92.457031 304.007812 92.945312 304.007812 93.433594 M 326.390625 100.894531 C 326.878906 100.894531 327.367188 100.847656 327.847656 100.75 C 328.328125 100.65625 328.792969 100.515625 329.246094 100.328125 C 329.699219 100.140625 330.128906 99.910156 330.535156 99.636719 C 330.941406 99.363281 331.320312 99.054688 331.667969 98.710938 C 332.011719 98.363281 332.324219 97.984375 332.59375 97.578125 C 332.867188 97.171875 333.097656 96.742188 333.285156 96.289062 C 333.472656 95.835938 333.613281 95.371094 333.707031 94.890625 C 333.804688 94.410156 333.851562 93.921875 333.851562 93.433594 C 333.851562 92.945312 333.804688 92.457031 333.707031 91.976562 C 333.613281 91.496094 333.472656 91.03125 333.285156 90.578125 C 333.097656 90.125 332.867188 89.695312 332.59375 89.289062 C 332.324219 88.882812 332.011719 88.503906 331.667969 88.15625 C 331.320312 87.8125 330.941406 87.503906 330.535156 87.230469 C 330.128906 86.957031 329.699219 86.726562 329.246094 86.539062 C 328.792969 86.351562 328.328125 86.210938 327.847656 86.117188 C 327.367188 86.019531 326.878906 85.972656 326.390625 85.972656 C 325.902344 85.972656 325.414062 86.019531 324.933594 86.117188 C 324.453125 86.210938 323.988281 86.351562 323.535156 86.539062 C 323.082031 86.726562 322.652344 86.957031 322.246094 87.230469 C 321.839844 87.503906 321.460938 87.8125 321.113281 88.15625 C 320.769531 88.503906 320.460938 88.882812 320.1875 89.289062 C 319.914062 89.695312 319.683594 90.125 319.496094 90.578125 C 319.308594 91.03125 319.167969 91.496094 319.074219 91.976562 C 318.976562 92.457031 318.929688 92.945312 318.929688 93.433594 C 318.929688 93.921875 318.976562 94.410156 319.074219 94.890625 C 319.167969 95.371094 319.308594 95.835938 319.496094 96.289062 C 319.683594 96.742188 319.914062 97.171875 320.1875 97.578125 C 320.460938 97.984375 320.769531 98.363281 321.113281 98.710938 C 321.460938 99.054688 321.839844 99.363281 322.246094 99.636719 C 322.652344 99.910156 323.082031 100.140625 323.535156 100.328125 C 323.988281 100.515625 324.453125 100.65625 324.933594 100.75 C 325.414062 100.847656 325.902344 100.894531 326.390625 100.894531 " fill-opacity="1" fill-rule="nonzero"/><g clip-path="url(#40b6e8c315)"><path fill="#00ff85" d="M 253.011719 151.652344 L 253.160156 151.621094 C 266.816406 148.914062 275.15625 145.339844 279.035156 143.378906 C 284.773438 144.914062 290.609375 145.675781 296.546875 145.660156 C 329.507812 145.660156 356.234375 122.277344 356.234375 93.433594 C 356.234375 64.589844 329.507812 41.207031 296.546875 41.207031 C 263.582031 41.207031 236.859375 64.589844 236.859375 93.433594 C 236.859375 106.566406 242.402344 118.578125 251.558594 127.753906 C 250.917969 133.667969 249.613281 139.433594 247.648438 145.050781 L 247.625 145.132812 C 247.066406 146.734375 246.460938 148.316406 245.804688 149.882812 C 245.214844 151.269531 246.355469 152.824219 247.839844 152.585938 C 249.570312 152.300781 251.292969 151.992188 253.011719 151.652344 M 258.980469 128.464844 C 259.085938 127.355469 258.953125 126.28125 258.578125 125.234375 C 258.203125 124.191406 257.625 123.273438 256.839844 122.488281 C 248.929688 114.546875 244.320312 104.386719 244.320312 93.433594 C 244.320312 69.617188 266.734375 48.667969 296.546875 48.667969 C 326.359375 48.667969 348.773438 69.617188 348.773438 93.433594 C 348.773438 117.25 326.359375 138.199219 296.546875 138.199219 C 291.265625 138.210938 286.070312 137.535156 280.96875 136.171875 C 280.082031 135.933594 279.179688 135.859375 278.265625 135.957031 C 277.351562 136.050781 276.484375 136.308594 275.664062 136.722656 C 272.777344 138.183594 266.410156 140.976562 256.011719 143.386719 C 257.464844 138.503906 258.453125 133.527344 258.980469 128.464844 " fill-opacity="1" fill-rule="nonzero"/></g></svg>