<svg xmlns="http://www.w3.org/2000/svg" xmlns:xlink="http://www.w3.org/1999/xlink" width="500" zoomAndPan="magnify" viewBox="0 0 375 374.999991" height="500" preserveAspectRatio="xMidYMid meet" version="1.0"><defs><clipPath id="11a30e18e8"><path d="M 106.621094 85 L 268.621094 85 L 268.621094 207 L 106.621094 207 Z M 106.621094 85 " clip-rule="nonzero"/></clipPath><clipPath id="d2fd5f7c9c"><path d="M 60 18.75 L 315 18.75 L 315 356.25 L 60 356.25 Z M 60 18.75 " clip-rule="nonzero"/></clipPath></defs><g clip-path="url(#11a30e18e8)"><path fill="#00e0ff" d="M 117.882812 146.753906 L 117.882812 145.105469 C 128.042969 144.074219 133.015625 138.886719 133.015625 128.929688 L 133.015625 110.761719 C 133.015625 99.703125 136.960938 95.214844 146.707031 95.214844 L 149.464844 95.214844 L 149.464844 85.457031 L 145.664062 85.457031 C 129.367188 85.457031 121.683594 93.128906 121.683594 109.234375 L 121.683594 124.640625 C 121.683594 135.703125 117.882812 139.363281 106.621094 139.363281 L 106.621094 152.496094 C 117.882812 152.496094 121.683594 156.152344 121.683594 167.214844 L 121.683594 182.621094 C 121.683594 198.726562 129.359375 206.398438 145.664062 206.398438 L 149.464844 206.398438 L 149.464844 196.652344 L 146.707031 196.652344 C 136.960938 196.652344 133.015625 192.164062 133.015625 181.105469 L 133.015625 162.925781 C 133.015625 152.980469 128.042969 147.792969 117.882812 146.753906 M 257.113281 145.105469 L 257.113281 146.761719 C 246.953125 147.804688 241.980469 152.988281 241.980469 162.9375 L 241.980469 181.113281 C 241.980469 192.175781 238.035156 196.664062 228.289062 196.664062 L 225.53125 196.664062 L 225.53125 206.410156 L 229.332031 206.410156 C 245.636719 206.410156 253.3125 198.734375 253.3125 182.632812 L 253.3125 167.222656 C 253.3125 156.164062 257.113281 152.503906 268.375 152.503906 L 268.375 139.363281 C 257.113281 139.363281 253.3125 135.703125 253.3125 124.640625 L 253.3125 109.234375 C 253.3125 93.128906 245.628906 85.457031 229.332031 85.457031 L 225.53125 85.457031 L 225.53125 95.203125 L 228.289062 95.203125 C 238.035156 95.203125 241.980469 99.691406 241.980469 110.75 L 241.980469 128.929688 C 241.980469 138.875 246.953125 144.0625 257.113281 145.105469 M 182.441406 181.5 L 182.441406 158.316406 L 166.054688 174.707031 L 158.90625 167.558594 L 175.285156 151.171875 L 152.113281 151.171875 L 152.113281 141.058594 L 175.296875 141.058594 L 158.90625 124.671875 L 166.054688 117.523438 L 182.441406 133.902344 L 182.441406 110.730469 L 192.554688 110.730469 L 192.554688 133.914062 L 208.941406 117.523438 L 216.089844 124.671875 L 199.710938 141.058594 L 222.882812 141.058594 L 222.882812 151.171875 L 199.699219 151.171875 L 216.089844 167.558594 L 208.941406 174.707031 L 192.554688 158.328125 L 192.554688 181.5 Z M 182.441406 181.5 " fill-opacity="1" fill-rule="evenodd"/></g><g clip-path="url(#d2fd5f7c9c)"><path fill="#00e0ff" d="M 271.875 39.84375 C 272.566406 39.84375 273.253906 39.878906 273.941406 39.945312 C 274.628906 40.011719 275.3125 40.113281 275.988281 40.25 C 276.667969 40.382812 277.335938 40.550781 278 40.753906 C 278.660156 40.953125 279.308594 41.183594 279.945312 41.449219 C 280.585938 41.714844 281.210938 42.007812 281.820312 42.335938 C 282.429688 42.660156 283.019531 43.015625 283.59375 43.398438 C 284.167969 43.78125 284.722656 44.195312 285.257812 44.632812 C 285.789062 45.070312 286.300781 45.535156 286.789062 46.023438 C 287.277344 46.511719 287.742188 47.023438 288.179688 47.554688 C 288.617188 48.089844 289.03125 48.644531 289.414062 49.21875 C 289.796875 49.792969 290.152344 50.382812 290.476562 50.992188 C 290.804688 51.601562 291.097656 52.226562 291.363281 52.867188 C 291.628906 53.503906 291.859375 54.152344 292.058594 54.8125 C 292.261719 55.476562 292.429688 56.144531 292.5625 56.824219 C 292.699219 57.5 292.800781 58.183594 292.867188 58.871094 C 292.933594 59.558594 292.96875 60.246094 292.96875 60.9375 L 292.96875 314.0625 C 292.96875 314.753906 292.933594 315.441406 292.867188 316.128906 C 292.800781 316.816406 292.699219 317.5 292.5625 318.175781 C 292.429688 318.855469 292.261719 319.523438 292.058594 320.1875 C 291.859375 320.847656 291.628906 321.496094 291.363281 322.132812 C 291.097656 322.773438 290.804688 323.398438 290.476562 324.007812 C 290.152344 324.617188 289.796875 325.207031 289.414062 325.78125 C 289.03125 326.355469 288.617188 326.910156 288.179688 327.445312 C 287.742188 327.976562 287.277344 328.488281 286.789062 328.976562 C 286.300781 329.464844 285.789062 329.929688 285.257812 330.367188 C 284.722656 330.804688 284.167969 331.21875 283.59375 331.601562 C 283.019531 331.984375 282.429688 332.339844 281.820312 332.664062 C 281.210938 332.992188 280.585938 333.285156 279.945312 333.550781 C 279.308594 333.816406 278.660156 334.046875 278 334.246094 C 277.335938 334.449219 276.667969 334.617188 275.988281 334.75 C 275.3125 334.886719 274.628906 334.988281 273.941406 335.054688 C 273.253906 335.121094 272.566406 335.15625 271.875 335.15625 L 103.125 335.15625 C 102.433594 335.15625 101.746094 335.121094 101.058594 335.054688 C 100.371094 334.988281 99.6875 334.886719 99.011719 334.75 C 98.332031 334.617188 97.664062 334.449219 97 334.246094 C 96.339844 334.046875 95.691406 333.816406 95.054688 333.550781 C 94.414062 333.285156 93.789062 332.992188 93.179688 332.664062 C 92.570312 332.339844 91.980469 331.984375 91.40625 331.601562 C 90.832031 331.21875 90.277344 330.804688 89.742188 330.367188 C 89.210938 329.929688 88.699219 329.464844 88.210938 328.976562 C 87.722656 328.488281 87.257812 327.976562 86.820312 327.445312 C 86.382812 326.910156 85.96875 326.355469 85.585938 325.78125 C 85.203125 325.207031 84.847656 324.617188 84.523438 324.007812 C 84.195312 323.398438 83.902344 322.773438 83.636719 322.132812 C 83.371094 321.496094 83.140625 320.847656 82.941406 320.1875 C 82.738281 319.523438 82.570312 318.855469 82.4375 318.175781 C 82.300781 317.5 82.199219 316.816406 82.132812 316.128906 C 82.066406 315.441406 82.03125 314.753906 82.03125 314.0625 L 82.03125 60.9375 C 82.03125 60.246094 82.066406 59.558594 82.132812 58.871094 C 82.199219 58.183594 82.300781 57.5 82.4375 56.824219 C 82.570312 56.144531 82.738281 55.476562 82.941406 54.8125 C 83.140625 54.152344 83.371094 53.503906 83.636719 52.867188 C 83.902344 52.226562 84.195312 51.601562 84.523438 50.992188 C 84.847656 50.382812 85.203125 49.792969 85.585938 49.21875 C 85.96875 48.644531 86.382812 48.089844 86.820312 47.554688 C 87.257812 47.023438 87.722656 46.511719 88.210938 46.023438 C 88.699219 45.535156 89.210938 45.070312 89.742188 44.632812 C 90.277344 44.195312 90.832031 43.78125 91.40625 43.398438 C 91.980469 43.015625 92.570312 42.660156 93.179688 42.335938 C 93.789062 42.007812 94.414062 41.714844 95.054688 41.449219 C 95.691406 41.183594 96.339844 40.953125 97 40.753906 C 97.664062 40.550781 98.332031 40.382812 99.011719 40.25 C 99.6875 40.113281 100.371094 40.011719 101.058594 39.945312 C 101.746094 39.878906 102.433594 39.84375 103.125 39.84375 Z M 103.125 18.75 C 101.742188 18.75 100.363281 18.816406 98.988281 18.953125 C 97.613281 19.089844 96.25 19.292969 94.894531 19.5625 C 93.539062 19.832031 92.199219 20.164062 90.878906 20.566406 C 89.554688 20.96875 88.257812 21.433594 86.980469 21.960938 C 85.703125 22.488281 84.457031 23.082031 83.238281 23.730469 C 82.019531 24.382812 80.835938 25.09375 79.6875 25.859375 C 78.539062 26.628906 77.429688 27.449219 76.363281 28.324219 C 75.292969 29.203125 74.269531 30.128906 73.292969 31.105469 C 72.316406 32.082031 71.390625 33.105469 70.511719 34.175781 C 69.636719 35.242188 68.816406 36.351562 68.046875 37.5 C 67.28125 38.648438 66.570312 39.832031 65.917969 41.050781 C 65.269531 42.269531 64.675781 43.515625 64.148438 44.792969 C 63.621094 46.070312 63.15625 47.367188 62.753906 48.691406 C 62.351562 50.011719 62.019531 51.351562 61.75 52.707031 C 61.480469 54.0625 61.277344 55.425781 61.140625 56.800781 C 61.003906 58.175781 60.9375 59.554688 60.9375 60.9375 L 60.9375 314.0625 C 60.9375 315.445312 61.003906 316.824219 61.140625 318.199219 C 61.277344 319.574219 61.480469 320.9375 61.75 322.292969 C 62.019531 323.648438 62.351562 324.988281 62.753906 326.308594 C 63.15625 327.632812 63.621094 328.929688 64.148438 330.207031 C 64.675781 331.484375 65.269531 332.730469 65.917969 333.949219 C 66.570312 335.167969 67.28125 336.351562 68.046875 337.5 C 68.816406 338.648438 69.636719 339.757812 70.511719 340.824219 C 71.390625 341.894531 72.316406 342.917969 73.292969 343.894531 C 74.269531 344.871094 75.292969 345.796875 76.363281 346.675781 C 77.429688 347.550781 78.539062 348.371094 79.6875 349.140625 C 80.835938 349.90625 82.019531 350.617188 83.238281 351.269531 C 84.457031 351.917969 85.703125 352.511719 86.980469 353.039062 C 88.257812 353.566406 89.554688 354.03125 90.878906 354.433594 C 92.199219 354.835938 93.539062 355.167969 94.894531 355.4375 C 96.25 355.707031 97.613281 355.910156 98.988281 356.046875 C 100.363281 356.183594 101.742188 356.25 103.125 356.25 L 271.875 356.25 C 273.257812 356.25 274.636719 356.183594 276.011719 356.046875 C 277.386719 355.910156 278.75 355.707031 280.105469 355.4375 C 281.460938 355.167969 282.800781 354.835938 284.121094 354.433594 C 285.445312 354.03125 286.742188 353.566406 288.019531 353.039062 C 289.296875 352.511719 290.542969 351.917969 291.761719 351.269531 C 292.980469 350.617188 294.164062 349.90625 295.3125 349.140625 C 296.460938 348.371094 297.570312 347.550781 298.636719 346.675781 C 299.707031 345.796875 300.730469 344.871094 301.707031 343.894531 C 302.683594 342.917969 303.609375 341.894531 304.488281 340.824219 C 305.363281 339.757812 306.183594 338.648438 306.953125 337.5 C 307.71875 336.351562 308.429688 335.167969 309.082031 333.949219 C 309.730469 332.730469 310.324219 331.484375 310.851562 330.207031 C 311.378906 328.929688 311.84375 327.632812 312.246094 326.308594 C 312.648438 324.988281 312.980469 323.648438 313.25 322.292969 C 313.519531 320.9375 313.722656 319.574219 313.859375 318.199219 C 313.996094 316.824219 314.0625 315.445312 314.0625 314.0625 L 314.0625 60.9375 C 314.0625 59.554688 313.996094 58.175781 313.859375 56.800781 C 313.722656 55.425781 313.519531 54.0625 313.25 52.707031 C 312.980469 51.351562 312.648438 50.011719 312.246094 48.691406 C 311.84375 47.367188 311.378906 46.070312 310.851562 44.792969 C 310.324219 43.515625 309.730469 42.269531 309.082031 41.050781 C 308.429688 39.832031 307.71875 38.648438 306.953125 37.5 C 306.183594 36.351562 305.363281 35.242188 304.488281 34.175781 C 303.609375 33.105469 302.683594 32.082031 301.707031 31.105469 C 300.730469 30.128906 299.707031 29.203125 298.636719 28.324219 C 297.570312 27.449219 296.460938 26.628906 295.3125 25.859375 C 294.164062 25.09375 292.980469 24.382812 291.761719 23.730469 C 290.542969 23.082031 289.296875 22.488281 288.019531 21.960938 C 286.742188 21.433594 285.445312 20.96875 284.121094 20.566406 C 282.800781 20.164062 281.460938 19.832031 280.105469 19.5625 C 278.75 19.292969 277.386719 19.089844 276.011719 18.953125 C 274.636719 18.816406 273.257812 18.75 271.875 18.75 Z M 103.125 18.75 " fill-opacity="1" fill-rule="nonzero"/></g><path fill="#00e0ff" d="M 187.5 314.0625 C 188.191406 314.0625 188.878906 314.027344 189.566406 313.960938 C 190.253906 313.894531 190.9375 313.792969 191.613281 313.65625 C 192.292969 313.523438 192.960938 313.355469 193.625 313.152344 C 194.285156 312.953125 194.933594 312.722656 195.570312 312.457031 C 196.210938 312.191406 196.835938 311.898438 197.445312 311.570312 C 198.054688 311.246094 198.644531 310.890625 199.21875 310.507812 C 199.792969 310.125 200.347656 309.710938 200.882812 309.273438 C 201.414062 308.835938 201.925781 308.371094 202.414062 307.882812 C 202.902344 307.394531 203.367188 306.882812 203.804688 306.351562 C 204.242188 305.816406 204.65625 305.261719 205.039062 304.6875 C 205.421875 304.113281 205.777344 303.523438 206.101562 302.914062 C 206.429688 302.304688 206.722656 301.679688 206.988281 301.039062 C 207.253906 300.402344 207.484375 299.753906 207.683594 299.09375 C 207.886719 298.429688 208.054688 297.761719 208.1875 297.082031 C 208.324219 296.40625 208.425781 295.722656 208.492188 295.035156 C 208.558594 294.347656 208.59375 293.660156 208.59375 292.96875 C 208.59375 292.277344 208.558594 291.589844 208.492188 290.902344 C 208.425781 290.214844 208.324219 289.53125 208.1875 288.855469 C 208.054688 288.175781 207.886719 287.507812 207.683594 286.84375 C 207.484375 286.183594 207.253906 285.535156 206.988281 284.894531 C 206.722656 284.257812 206.429688 283.632812 206.101562 283.023438 C 205.777344 282.414062 205.421875 281.824219 205.039062 281.25 C 204.65625 280.675781 204.242188 280.121094 203.804688 279.585938 C 203.367188 279.054688 202.902344 278.542969 202.414062 278.054688 C 201.925781 277.566406 201.414062 277.101562 200.882812 276.664062 C 200.347656 276.226562 199.792969 275.8125 199.21875 275.429688 C 198.644531 275.046875 198.054688 274.691406 197.445312 274.367188 C 196.835938 274.039062 196.210938 273.746094 195.570312 273.480469 C 194.933594 273.214844 194.285156 272.984375 193.625 272.785156 C 192.960938 272.582031 192.292969 272.414062 191.613281 272.28125 C 190.9375 272.144531 190.253906 272.042969 189.566406 271.976562 C 188.878906 271.910156 188.191406 271.875 187.5 271.875 C 186.808594 271.875 186.121094 271.910156 185.433594 271.976562 C 184.746094 272.042969 184.0625 272.144531 183.386719 272.28125 C 182.707031 272.414062 182.039062 272.582031 181.375 272.785156 C 180.714844 272.984375 180.066406 273.214844 179.429688 273.480469 C 178.789062 273.746094 178.164062 274.039062 177.554688 274.367188 C 176.945312 274.691406 176.355469 275.046875 175.78125 275.429688 C 175.207031 275.8125 174.652344 276.226562 174.117188 276.664062 C 173.585938 277.101562 173.074219 277.566406 172.585938 278.054688 C 172.097656 278.542969 171.632812 279.054688 171.195312 279.585938 C 170.757812 280.121094 170.34375 280.675781 169.960938 281.25 C 169.578125 281.824219 169.222656 282.414062 168.898438 283.023438 C 168.570312 283.632812 168.277344 284.257812 168.011719 284.894531 C 167.746094 285.535156 167.515625 286.183594 167.316406 286.84375 C 167.113281 287.507812 166.945312 288.175781 166.8125 288.855469 C 166.675781 289.53125 166.574219 290.214844 166.507812 290.902344 C 166.441406 291.589844 166.40625 292.277344 166.40625 292.96875 C 166.40625 293.660156 166.441406 294.347656 166.507812 295.035156 C 166.574219 295.722656 166.675781 296.40625 166.8125 297.082031 C 166.945312 297.761719 167.113281 298.429688 167.316406 299.09375 C 167.515625 299.753906 167.746094 300.402344 168.011719 301.039062 C 168.277344 301.679688 168.570312 302.304688 168.898438 302.914062 C 169.222656 303.523438 169.578125 304.113281 169.960938 304.6875 C 170.34375 305.261719 170.757812 305.816406 171.195312 306.351562 C 171.632812 306.882812 172.097656 307.394531 172.585938 307.882812 C 173.074219 308.371094 173.585938 308.835938 174.117188 309.273438 C 174.652344 309.710938 175.207031 310.125 175.78125 310.507812 C 176.355469 310.890625 176.945312 311.246094 177.554688 311.570312 C 178.164062 311.898438 178.789062 312.191406 179.429688 312.457031 C 180.066406 312.722656 180.714844 312.953125 181.375 313.152344 C 182.039062 313.355469 182.707031 313.523438 183.386719 313.65625 C 184.0625 313.792969 184.746094 313.894531 185.433594 313.960938 C 186.121094 314.027344 186.808594 314.0625 187.5 314.0625 " fill-opacity="1" fill-rule="nonzero"/></svg>