<svg xmlns="http://www.w3.org/2000/svg" xmlns:xlink="http://www.w3.org/1999/xlink" width="500" zoomAndPan="magnify" viewBox="0 0 375 374.999991" height="500" preserveAspectRatio="xMidYMid meet" version="1.0"><defs><clipPath id="ffc66e20e5"><path d="M 18.75 60 L 336 60 L 336 315 L 18.75 315 Z M 18.75 60 " clip-rule="nonzero"/></clipPath><clipPath id="14f56b3b49"><path d="M 82 124 L 356.25 124 L 356.25 356.25 L 82 356.25 Z M 82 124 " clip-rule="nonzero"/></clipPath></defs><g clip-path="url(#ffc66e20e5)"><path fill="#00ff85" d="M 60.9375 82.03125 C 60.246094 82.03125 59.558594 82.066406 58.871094 82.132812 C 58.183594 82.199219 57.5 82.300781 56.824219 82.4375 C 56.144531 82.570312 55.476562 82.738281 54.8125 82.941406 C 54.152344 83.140625 53.503906 83.371094 52.867188 83.636719 C 52.226562 83.902344 51.601562 84.195312 50.992188 84.523438 C 50.382812 84.847656 49.792969 85.203125 49.21875 85.585938 C 48.644531 85.96875 48.089844 86.382812 47.554688 86.820312 C 47.023438 87.257812 46.511719 87.722656 46.023438 88.210938 C 45.535156 88.699219 45.070312 89.210938 44.632812 89.742188 C 44.195312 90.277344 43.78125 90.832031 43.398438 91.40625 C 43.015625 91.980469 42.660156 92.570312 42.335938 93.179688 C 42.007812 93.789062 41.714844 94.414062 41.449219 95.054688 C 41.183594 95.691406 40.953125 96.339844 40.753906 97 C 40.550781 97.664062 40.382812 98.332031 40.25 99.011719 C 40.113281 99.6875 40.011719 100.371094 39.945312 101.058594 C 39.878906 101.746094 39.84375 102.433594 39.84375 103.125 L 39.84375 271.875 C 39.84375 272.566406 39.878906 273.253906 39.945312 273.941406 C 40.011719 274.628906 40.113281 275.3125 40.25 275.988281 C 40.382812 276.667969 40.550781 277.335938 40.753906 278 C 40.953125 278.660156 41.183594 279.308594 41.449219 279.945312 C 41.714844 280.585938 42.007812 281.210938 42.335938 281.820312 C 42.660156 282.425781 43.015625 283.019531 43.398438 283.59375 C 43.78125 284.167969 44.195312 284.722656 44.632812 285.257812 C 45.070312 285.789062 45.535156 286.300781 46.023438 286.789062 C 46.511719 287.277344 47.023438 287.742188 47.554688 288.179688 C 48.089844 288.617188 48.644531 289.03125 49.21875 289.414062 C 49.792969 289.796875 50.382812 290.152344 50.992188 290.476562 C 51.601562 290.804688 52.226562 291.097656 52.867188 291.363281 C 53.503906 291.628906 54.152344 291.859375 54.8125 292.058594 C 55.476562 292.261719 56.144531 292.429688 56.824219 292.5625 C 57.5 292.699219 58.183594 292.800781 58.871094 292.867188 C 59.558594 292.933594 60.246094 292.96875 60.9375 292.96875 L 176.953125 292.96875 C 177.644531 292.96875 178.332031 293.035156 179.011719 293.171875 C 179.691406 293.304688 180.347656 293.507812 180.988281 293.773438 C 181.628906 294.035156 182.238281 294.363281 182.8125 294.746094 C 183.386719 295.132812 183.921875 295.566406 184.410156 296.058594 C 184.902344 296.546875 185.335938 297.082031 185.722656 297.65625 C 186.105469 298.230469 186.433594 298.839844 186.695312 299.480469 C 186.960938 300.121094 187.164062 300.777344 187.296875 301.457031 C 187.433594 302.136719 187.5 302.824219 187.5 303.515625 C 187.5 304.207031 187.433594 304.894531 187.296875 305.574219 C 187.164062 306.253906 186.960938 306.910156 186.695312 307.550781 C 186.433594 308.191406 186.105469 308.800781 185.722656 309.375 C 185.335938 309.949219 184.902344 310.484375 184.410156 310.972656 C 183.921875 311.464844 183.386719 311.898438 182.8125 312.285156 C 182.238281 312.667969 181.628906 312.996094 180.988281 313.257812 C 180.347656 313.523438 179.691406 313.726562 179.011719 313.859375 C 178.332031 313.996094 177.644531 314.0625 176.953125 314.0625 L 60.9375 314.0625 C 59.554688 314.0625 58.175781 313.996094 56.800781 313.859375 C 55.425781 313.722656 54.0625 313.519531 52.707031 313.25 C 51.351562 312.980469 50.011719 312.648438 48.691406 312.246094 C 47.367188 311.84375 46.070312 311.378906 44.792969 310.851562 C 43.515625 310.324219 42.269531 309.730469 41.050781 309.082031 C 39.832031 308.429688 38.648438 307.71875 37.5 306.953125 C 36.351562 306.183594 35.242188 305.363281 34.175781 304.488281 C 33.105469 303.609375 32.082031 302.683594 31.105469 301.707031 C 30.128906 300.730469 29.203125 299.707031 28.324219 298.636719 C 27.449219 297.570312 26.628906 296.460938 25.859375 295.3125 C 25.09375 294.164062 24.382812 292.980469 23.730469 291.761719 C 23.082031 290.542969 22.488281 289.296875 21.960938 288.019531 C 21.433594 286.742188 20.96875 285.445312 20.566406 284.121094 C 20.164062 282.800781 19.832031 281.460938 19.5625 280.105469 C 19.292969 278.75 19.089844 277.386719 18.953125 276.011719 C 18.816406 274.636719 18.75 273.257812 18.75 271.875 L 18.75 103.125 C 18.75 101.742188 18.816406 100.363281 18.953125 98.988281 C 19.089844 97.613281 19.292969 96.25 19.5625 94.894531 C 19.832031 93.539062 20.164062 92.199219 20.566406 90.878906 C 20.96875 89.554688 21.433594 88.257812 21.960938 86.980469 C 22.488281 85.703125 23.082031 84.457031 23.730469 83.238281 C 24.382812 82.019531 25.09375 80.835938 25.859375 79.6875 C 26.628906 78.539062 27.449219 77.429688 28.324219 76.363281 C 29.203125 75.292969 30.128906 74.269531 31.105469 73.292969 C 32.082031 72.316406 33.105469 71.390625 34.175781 70.511719 C 35.242188 69.636719 36.351562 68.816406 37.5 68.046875 C 38.648438 67.28125 39.832031 66.570312 41.050781 65.917969 C 42.269531 65.269531 43.515625 64.675781 44.792969 64.148438 C 46.070312 63.621094 47.367188 63.15625 48.691406 62.753906 C 50.011719 62.351562 51.351562 62.019531 52.707031 61.75 C 54.0625 61.480469 55.425781 61.277344 56.800781 61.140625 C 58.175781 61.003906 59.554688 60.9375 60.9375 60.9375 L 292.96875 60.9375 C 294.351562 60.9375 295.730469 61.003906 297.105469 61.140625 C 298.480469 61.277344 299.84375 61.480469 301.199219 61.75 C 302.554688 62.019531 303.894531 62.351562 305.214844 62.753906 C 306.539062 63.15625 307.835938 63.621094 309.113281 64.148438 C 310.390625 64.675781 311.636719 65.269531 312.855469 65.917969 C 314.074219 66.570312 315.257812 67.28125 316.40625 68.046875 C 317.554688 68.816406 318.664062 69.636719 319.730469 70.511719 C 320.800781 71.390625 321.824219 72.316406 322.800781 73.292969 C 323.777344 74.269531 324.703125 75.292969 325.582031 76.363281 C 326.457031 77.429688 327.277344 78.539062 328.046875 79.6875 C 328.8125 80.835938 329.523438 82.019531 330.175781 83.238281 C 330.824219 84.457031 331.417969 85.703125 331.945312 86.980469 C 332.472656 88.257812 332.9375 89.554688 333.339844 90.878906 C 333.742188 92.199219 334.074219 93.539062 334.34375 94.894531 C 334.613281 96.25 334.816406 97.613281 334.953125 98.988281 C 335.089844 100.363281 335.15625 101.742188 335.15625 103.125 L 335.15625 187.5 C 335.15625 188.191406 335.089844 188.878906 334.953125 189.558594 C 334.820312 190.238281 334.617188 190.894531 334.351562 191.535156 C 334.089844 192.175781 333.761719 192.785156 333.378906 193.359375 C 332.992188 193.933594 332.558594 194.46875 332.066406 194.957031 C 331.578125 195.449219 331.042969 195.882812 330.46875 196.269531 C 329.894531 196.652344 329.285156 196.980469 328.644531 197.242188 C 328.003906 197.507812 327.347656 197.710938 326.667969 197.84375 C 325.988281 197.980469 325.300781 198.046875 324.609375 198.046875 C 323.917969 198.046875 323.230469 197.980469 322.550781 197.84375 C 321.871094 197.710938 321.214844 197.507812 320.574219 197.242188 C 319.933594 196.980469 319.324219 196.652344 318.75 196.269531 C 318.175781 195.882812 317.640625 195.449219 317.152344 194.957031 C 316.660156 194.46875 316.226562 193.933594 315.839844 193.359375 C 315.457031 192.785156 315.128906 192.175781 314.867188 191.535156 C 314.601562 190.894531 314.398438 190.238281 314.265625 189.558594 C 314.128906 188.878906 314.0625 188.191406 314.0625 187.5 L 314.0625 103.125 C 314.0625 102.433594 314.027344 101.746094 313.960938 101.058594 C 313.894531 100.371094 313.792969 99.6875 313.65625 99.011719 C 313.523438 98.332031 313.355469 97.664062 313.152344 97 C 312.953125 96.339844 312.722656 95.691406 312.457031 95.054688 C 312.191406 94.414062 311.898438 93.789062 311.570312 93.179688 C 311.246094 92.570312 310.890625 91.980469 310.507812 91.40625 C 310.125 90.832031 309.710938 90.277344 309.273438 89.742188 C 308.835938 89.210938 308.371094 88.699219 307.882812 88.210938 C 307.394531 87.722656 306.882812 87.257812 306.351562 86.820312 C 305.816406 86.382812 305.261719 85.96875 304.6875 85.585938 C 304.113281 85.203125 303.523438 84.847656 302.914062 84.523438 C 302.304688 84.195312 301.679688 83.902344 301.039062 83.636719 C 300.402344 83.371094 299.753906 83.140625 299.09375 82.941406 C 298.429688 82.738281 297.761719 82.570312 297.082031 82.4375 C 296.40625 82.300781 295.722656 82.199219 295.035156 82.132812 C 294.347656 82.066406 293.660156 82.03125 292.96875 82.03125 Z M 60.9375 82.03125 " fill-opacity="1" fill-rule="nonzero"/></g><g clip-path="url(#14f56b3b49)"><path fill="#00ff85" d="M 85.109375 127.296875 C 85.601562 126.808594 86.132812 126.367188 86.710938 125.984375 C 87.285156 125.597656 87.894531 125.269531 88.535156 125.003906 C 89.175781 124.738281 89.835938 124.539062 90.515625 124.402344 C 91.199219 124.269531 91.882812 124.199219 92.578125 124.199219 C 93.273438 124.199219 93.957031 124.269531 94.640625 124.402344 C 95.320312 124.539062 95.980469 124.738281 96.621094 125.003906 C 97.261719 125.269531 97.871094 125.597656 98.445312 125.984375 C 99.023438 126.367188 99.554688 126.808594 100.046875 127.296875 L 127.953125 155.226562 C 128.6875 155.960938 129.339844 156.761719 129.917969 157.625 C 130.492188 158.488281 130.980469 159.398438 131.375 160.355469 C 131.773438 161.316406 132.074219 162.304688 132.277344 163.320312 C 132.476562 164.339844 132.578125 165.367188 132.578125 166.40625 C 132.578125 167.445312 132.476562 168.472656 132.277344 169.488281 C 132.074219 170.507812 131.773438 171.496094 131.375 172.457031 C 130.980469 173.414062 130.492188 174.324219 129.917969 175.1875 C 129.339844 176.050781 128.6875 176.851562 127.953125 177.585938 L 100.046875 205.515625 C 99.554688 206.003906 99.023438 206.441406 98.445312 206.828125 C 97.867188 207.210938 97.261719 207.539062 96.621094 207.804688 C 95.980469 208.070312 95.320312 208.269531 94.636719 208.402344 C 93.957031 208.539062 93.273438 208.605469 92.578125 208.605469 C 91.882812 208.605469 91.199219 208.539062 90.519531 208.402344 C 89.835938 208.269531 89.175781 208.070312 88.535156 207.804688 C 87.894531 207.539062 87.289062 207.210938 86.710938 206.828125 C 86.132812 206.441406 85.601562 206.003906 85.109375 205.515625 C 84.621094 205.023438 84.183594 204.492188 83.796875 203.914062 C 83.414062 203.335938 83.085938 202.730469 82.820312 202.089844 C 82.554688 201.449219 82.355469 200.785156 82.222656 200.105469 C 82.085938 199.425781 82.019531 198.742188 82.019531 198.046875 C 82.019531 197.351562 82.085938 196.667969 82.222656 195.988281 C 82.355469 195.304688 82.554688 194.644531 82.820312 194.003906 C 83.085938 193.363281 83.414062 192.757812 83.796875 192.179688 C 84.183594 191.601562 84.621094 191.070312 85.109375 190.578125 L 109.304688 166.40625 L 85.109375 142.234375 C 84.621094 141.742188 84.179688 141.210938 83.796875 140.632812 C 83.410156 140.058594 83.082031 139.449219 82.816406 138.808594 C 82.550781 138.167969 82.351562 137.507812 82.214844 136.828125 C 82.082031 136.144531 82.011719 135.460938 82.011719 134.765625 C 82.011719 134.070312 82.082031 133.386719 82.214844 132.703125 C 82.351562 132.023438 82.550781 131.363281 82.816406 130.722656 C 83.082031 130.082031 83.410156 129.472656 83.796875 128.898438 C 84.179688 128.320312 84.621094 127.789062 85.109375 127.296875 M 134.765625 208.59375 C 134.765625 207.902344 134.832031 207.214844 134.96875 206.535156 C 135.101562 205.855469 135.304688 205.199219 135.570312 204.558594 C 135.832031 203.917969 136.160156 203.308594 136.542969 202.734375 C 136.929688 202.160156 137.363281 201.625 137.855469 201.136719 C 138.34375 200.644531 138.878906 200.210938 139.453125 199.824219 C 140.027344 199.441406 140.636719 199.113281 141.277344 198.851562 C 141.917969 198.585938 142.574219 198.382812 143.253906 198.25 C 143.933594 198.113281 144.621094 198.046875 145.3125 198.046875 L 187.5 198.046875 C 188.191406 198.046875 188.878906 198.113281 189.558594 198.25 C 190.238281 198.382812 190.894531 198.585938 191.535156 198.851562 C 192.175781 199.113281 192.785156 199.441406 193.359375 199.824219 C 193.933594 200.210938 194.46875 200.644531 194.957031 201.136719 C 195.449219 201.625 195.882812 202.160156 196.269531 202.734375 C 196.652344 203.308594 196.980469 203.917969 197.242188 204.558594 C 197.507812 205.199219 197.710938 205.855469 197.84375 206.535156 C 197.980469 207.214844 198.046875 207.902344 198.046875 208.59375 C 198.046875 209.285156 197.980469 209.972656 197.84375 210.652344 C 197.710938 211.332031 197.507812 211.988281 197.242188 212.628906 C 196.980469 213.269531 196.652344 213.878906 196.269531 214.453125 C 195.882812 215.027344 195.449219 215.5625 194.957031 216.050781 C 194.46875 216.542969 193.933594 216.976562 193.359375 217.363281 C 192.785156 217.746094 192.175781 218.074219 191.535156 218.335938 C 190.894531 218.601562 190.238281 218.804688 189.558594 218.9375 C 188.878906 219.074219 188.191406 219.140625 187.5 219.140625 L 145.3125 219.140625 C 144.621094 219.140625 143.933594 219.074219 143.253906 218.9375 C 142.574219 218.804688 141.917969 218.601562 141.277344 218.335938 C 140.636719 218.074219 140.027344 217.746094 139.453125 217.363281 C 138.878906 216.976562 138.34375 216.542969 137.855469 216.050781 C 137.363281 215.5625 136.929688 215.027344 136.542969 214.453125 C 136.160156 213.878906 135.832031 213.269531 135.570312 212.628906 C 135.304688 211.988281 135.101562 211.332031 134.96875 210.652344 C 134.832031 209.972656 134.765625 209.285156 134.765625 208.59375 M 356.25 282.421875 C 356.25 283.628906 356.21875 284.835938 356.160156 286.042969 C 356.101562 287.25 356.011719 288.457031 355.894531 289.660156 C 355.777344 290.859375 355.628906 292.058594 355.449219 293.253906 C 355.273438 294.449219 355.066406 295.640625 354.832031 296.824219 C 354.59375 298.011719 354.332031 299.1875 354.039062 300.359375 C 353.742188 301.53125 353.421875 302.695312 353.070312 303.851562 C 352.71875 305.007812 352.339844 306.15625 351.933594 307.292969 C 351.527344 308.429688 351.09375 309.558594 350.628906 310.675781 C 350.167969 311.789062 349.679688 312.894531 349.160156 313.988281 C 348.644531 315.078125 348.101562 316.160156 347.53125 317.222656 C 346.960938 318.289062 346.367188 319.339844 345.746094 320.378906 C 345.125 321.414062 344.480469 322.433594 343.808594 323.4375 C 343.136719 324.441406 342.441406 325.429688 341.722656 326.402344 C 341 327.371094 340.257812 328.324219 339.492188 329.257812 C 338.726562 330.191406 337.9375 331.105469 337.125 332 C 336.3125 332.898438 335.480469 333.773438 334.625 334.625 C 333.773438 335.480469 332.898438 336.3125 332 337.125 C 331.105469 337.9375 330.191406 338.726562 329.257812 339.492188 C 328.324219 340.257812 327.371094 341 326.402344 341.722656 C 325.429688 342.441406 324.441406 343.136719 323.4375 343.808594 C 322.433594 344.480469 321.414062 345.125 320.378906 345.746094 C 319.339844 346.367188 318.289062 346.960938 317.222656 347.53125 C 316.160156 348.101562 315.078125 348.644531 313.988281 349.160156 C 312.894531 349.679688 311.789062 350.167969 310.675781 350.628906 C 309.558594 351.09375 308.429688 351.527344 307.292969 351.933594 C 306.15625 352.339844 305.007812 352.71875 303.851562 353.070312 C 302.695312 353.421875 301.53125 353.742188 300.359375 354.039062 C 299.1875 354.332031 298.011719 354.59375 296.824219 354.832031 C 295.640625 355.066406 294.449219 355.273438 293.253906 355.449219 C 292.058594 355.628906 290.859375 355.777344 289.660156 355.894531 C 288.457031 356.011719 287.25 356.101562 286.042969 356.160156 C 284.835938 356.21875 283.628906 356.25 282.421875 356.25 C 281.214844 356.25 280.007812 356.21875 278.800781 356.160156 C 277.59375 356.101562 276.386719 356.011719 275.183594 355.894531 C 273.984375 355.777344 272.785156 355.628906 271.589844 355.449219 C 270.394531 355.273438 269.203125 355.066406 268.019531 354.832031 C 266.832031 354.59375 265.65625 354.332031 264.484375 354.039062 C 263.3125 353.742188 262.148438 353.421875 260.992188 353.070312 C 259.835938 352.71875 258.6875 352.339844 257.550781 351.933594 C 256.414062 351.527344 255.285156 351.09375 254.167969 350.628906 C 253.054688 350.167969 251.949219 349.679688 250.855469 349.160156 C 249.765625 348.644531 248.683594 348.101562 247.621094 347.53125 C 246.554688 346.960938 245.503906 346.367188 244.464844 345.746094 C 243.429688 345.125 242.410156 344.480469 241.40625 343.808594 C 240.402344 343.136719 239.414062 342.441406 238.441406 341.722656 C 237.472656 341 236.519531 340.257812 235.585938 339.492188 C 234.652344 338.726562 233.738281 337.9375 232.84375 337.125 C 231.945312 336.3125 231.070312 335.480469 230.21875 334.625 C 229.363281 333.773438 228.53125 332.898438 227.71875 332 C 226.90625 331.105469 226.117188 330.191406 225.351562 329.257812 C 224.585938 328.324219 223.84375 327.371094 223.121094 326.402344 C 222.402344 325.429688 221.707031 324.441406 221.035156 323.4375 C 220.363281 322.433594 219.71875 321.414062 219.097656 320.378906 C 218.476562 319.339844 217.878906 318.289062 217.3125 317.222656 C 216.742188 316.160156 216.199219 315.078125 215.683594 313.988281 C 215.164062 312.894531 214.675781 311.789062 214.214844 310.675781 C 213.75 309.558594 213.316406 308.429688 212.910156 307.292969 C 212.503906 306.15625 212.125 305.007812 211.773438 303.851562 C 211.421875 302.695312 211.101562 301.53125 210.804688 300.359375 C 210.511719 299.1875 210.25 298.011719 210.011719 296.824219 C 209.777344 295.640625 209.570312 294.449219 209.394531 293.253906 C 209.214844 292.058594 209.066406 290.859375 208.949219 289.660156 C 208.832031 288.457031 208.742188 287.25 208.683594 286.042969 C 208.625 284.835938 208.59375 283.628906 208.59375 282.421875 C 208.59375 281.214844 208.625 280.007812 208.683594 278.800781 C 208.742188 277.59375 208.832031 276.386719 208.949219 275.183594 C 209.066406 273.984375 209.214844 272.785156 209.394531 271.589844 C 209.570312 270.394531 209.777344 269.203125 210.011719 268.019531 C 210.25 266.832031 210.511719 265.65625 210.804688 264.484375 C 211.101562 263.3125 211.421875 262.148438 211.773438 260.992188 C 212.125 259.835938 212.503906 258.6875 212.910156 257.550781 C 213.316406 256.414062 213.75 255.285156 214.214844 254.167969 C 214.675781 253.054688 215.164062 251.949219 215.683594 250.855469 C 216.199219 249.765625 216.742188 248.683594 217.3125 247.621094 C 217.878906 246.554688 218.476562 245.503906 219.097656 244.464844 C 219.71875 243.429688 220.363281 242.410156 221.035156 241.40625 C 221.707031 240.402344 222.402344 239.414062 223.121094 238.441406 C 223.84375 237.472656 224.585938 236.519531 225.351562 235.585938 C 226.117188 234.652344 226.90625 233.738281 227.71875 232.84375 C 228.53125 231.945312 229.363281 231.070312 230.21875 230.21875 C 231.070312 229.363281 231.945312 228.53125 232.84375 227.71875 C 233.738281 226.90625 234.652344 226.117188 235.585938 225.351562 C 236.519531 224.585938 237.472656 223.84375 238.441406 223.121094 C 239.414062 222.402344 240.402344 221.707031 241.40625 221.035156 C 242.410156 220.363281 243.429688 219.71875 244.464844 219.097656 C 245.503906 218.476562 246.554688 217.878906 247.621094 217.3125 C 248.683594 216.742188 249.765625 216.199219 250.855469 215.683594 C 251.949219 215.164062 253.054688 214.675781 254.167969 214.214844 C 255.285156 213.75 256.414062 213.316406 257.550781 212.910156 C 258.6875 212.503906 259.835938 212.125 260.992188 211.773438 C 262.148438 211.421875 263.3125 211.101562 264.484375 210.804688 C 265.65625 210.511719 266.832031 210.246094 268.019531 210.011719 C 269.203125 209.777344 270.394531 209.570312 271.589844 209.394531 C 272.785156 209.214844 273.984375 209.066406 275.183594 208.949219 C 276.386719 208.832031 277.59375 208.742188 278.800781 208.683594 C 280.007812 208.625 281.214844 208.59375 282.421875 208.59375 C 283.628906 208.59375 284.835938 208.625 286.042969 208.683594 C 287.25 208.742188 288.457031 208.832031 289.660156 208.949219 C 290.859375 209.066406 292.058594 209.214844 293.253906 209.394531 C 294.449219 209.570312 295.640625 209.777344 296.824219 210.011719 C 298.011719 210.246094 299.1875 210.511719 300.359375 210.804688 C 301.53125 211.101562 302.695312 211.421875 303.851562 211.773438 C 305.007812 212.125 306.15625 212.503906 307.292969 212.910156 C 308.429688 213.316406 309.558594 213.75 310.675781 214.214844 C 311.789062 214.675781 312.894531 215.164062 313.988281 215.683594 C 315.078125 216.199219 316.160156 216.742188 317.222656 217.3125 C 318.289062 217.878906 319.339844 218.476562 320.378906 219.097656 C 321.414062 219.71875 322.433594 220.363281 323.4375 221.035156 C 324.441406 221.707031 325.429688 222.402344 326.402344 223.121094 C 327.371094 223.84375 328.324219 224.585938 329.257812 225.351562 C 330.191406 226.117188 331.105469 226.90625 332 227.71875 C 332.898438 228.53125 333.773438 229.363281 334.625 230.21875 C 335.480469 231.070312 336.3125 231.945312 337.125 232.84375 C 337.9375 233.738281 338.726562 234.652344 339.492188 235.585938 C 340.257812 236.519531 341 237.472656 341.722656 238.441406 C 342.441406 239.414062 343.136719 240.402344 343.808594 241.40625 C 344.480469 242.410156 345.125 243.429688 345.746094 244.464844 C 346.367188 245.503906 346.960938 246.554688 347.53125 247.621094 C 348.101562 248.683594 348.644531 249.765625 349.160156 250.855469 C 349.679688 251.949219 350.167969 253.054688 350.628906 254.167969 C 351.09375 255.285156 351.527344 256.414062 351.933594 257.550781 C 352.339844 258.6875 352.71875 259.835938 353.070312 260.992188 C 353.421875 262.148438 353.742188 263.3125 354.039062 264.484375 C 354.332031 265.65625 354.59375 266.832031 354.832031 268.019531 C 355.066406 269.203125 355.273438 270.394531 355.449219 271.589844 C 355.628906 272.785156 355.777344 273.984375 355.894531 275.183594 C 356.011719 276.386719 356.101562 277.59375 356.160156 278.800781 C 356.21875 280.007812 356.25 281.214844 356.25 282.421875 M 253.859375 253.859375 C 253.371094 254.351562 252.929688 254.882812 252.546875 255.460938 C 252.160156 256.035156 251.832031 256.644531 251.566406 257.285156 C 251.300781 257.925781 251.101562 258.585938 250.964844 259.265625 C 250.832031 259.949219 250.761719 260.632812 250.761719 261.328125 C 250.761719 262.023438 250.832031 262.707031 250.964844 263.390625 C 251.101562 264.070312 251.300781 264.730469 251.566406 265.371094 C 251.832031 266.011719 252.160156 266.621094 252.546875 267.195312 C 252.929688 267.773438 253.371094 268.304688 253.859375 268.796875 L 267.507812 282.421875 L 253.859375 296.046875 C 253.371094 296.539062 252.933594 297.070312 252.546875 297.648438 C 252.164062 298.226562 251.835938 298.832031 251.570312 299.472656 C 251.304688 300.113281 251.105469 300.773438 250.972656 301.457031 C 250.835938 302.136719 250.769531 302.820312 250.769531 303.515625 C 250.769531 304.207031 250.835938 304.894531 250.972656 305.574219 C 251.105469 306.253906 251.304688 306.917969 251.570312 307.558594 C 251.835938 308.199219 252.164062 308.804688 252.546875 309.382812 C 252.933594 309.960938 253.371094 310.492188 253.859375 310.984375 C 254.351562 311.472656 254.882812 311.910156 255.460938 312.296875 C 256.039062 312.679688 256.644531 313.007812 257.285156 313.273438 C 257.925781 313.539062 258.585938 313.738281 259.269531 313.871094 C 259.949219 314.007812 260.632812 314.074219 261.328125 314.074219 C 262.023438 314.074219 262.707031 314.007812 263.386719 313.871094 C 264.066406 313.738281 264.730469 313.539062 265.371094 313.273438 C 266.011719 313.007812 266.617188 312.679688 267.195312 312.296875 C 267.773438 311.910156 268.304688 311.472656 268.796875 310.984375 L 282.421875 297.335938 L 296.046875 310.984375 C 296.539062 311.472656 297.070312 311.910156 297.648438 312.296875 C 298.226562 312.679688 298.832031 313.007812 299.472656 313.273438 C 300.113281 313.539062 300.773438 313.738281 301.457031 313.871094 C 302.136719 314.007812 302.820312 314.074219 303.515625 314.074219 C 304.210938 314.074219 304.894531 314.007812 305.574219 313.871094 C 306.253906 313.738281 306.917969 313.539062 307.558594 313.273438 C 308.199219 313.007812 308.804688 312.679688 309.382812 312.296875 C 309.960938 311.910156 310.492188 311.472656 310.984375 310.984375 C 311.472656 310.492188 311.910156 309.960938 312.296875 309.382812 C 312.679688 308.804688 313.007812 308.199219 313.273438 307.558594 C 313.539062 306.917969 313.738281 306.253906 313.871094 305.574219 C 314.007812 304.894531 314.074219 304.207031 314.074219 303.515625 C 314.074219 302.820312 314.007812 302.136719 313.871094 301.457031 C 313.738281 300.773438 313.539062 300.113281 313.273438 299.472656 C 313.007812 298.832031 312.679688 298.226562 312.296875 297.648438 C 311.910156 297.070312 311.472656 296.539062 310.984375 296.046875 L 297.335938 282.421875 L 310.984375 268.796875 C 311.472656 268.304688 311.910156 267.773438 312.296875 267.195312 C 312.679688 266.617188 313.007812 266.011719 313.273438 265.371094 C 313.539062 264.730469 313.738281 264.066406 313.871094 263.386719 C 314.007812 262.707031 314.074219 262.023438 314.074219 261.328125 C 314.074219 260.632812 314.007812 259.949219 313.871094 259.269531 C 313.738281 258.585938 313.539062 257.925781 313.273438 257.285156 C 313.007812 256.644531 312.679688 256.039062 312.296875 255.460938 C 311.910156 254.882812 311.472656 254.351562 310.984375 253.859375 C 310.492188 253.371094 309.960938 252.933594 309.382812 252.546875 C 308.804688 252.164062 308.199219 251.835938 307.558594 251.570312 C 306.917969 251.304688 306.253906 251.105469 305.574219 250.972656 C 304.894531 250.835938 304.210938 250.769531 303.515625 250.769531 C 302.820312 250.769531 302.136719 250.835938 301.457031 250.972656 C 300.773438 251.105469 300.113281 251.304688 299.472656 251.570312 C 298.832031 251.835938 298.226562 252.164062 297.648438 252.546875 C 297.070312 252.933594 296.539062 253.371094 296.046875 253.859375 L 282.421875 267.507812 L 268.796875 253.859375 C 268.304688 253.371094 267.773438 252.929688 267.195312 252.546875 C 266.621094 252.160156 266.011719 251.832031 265.371094 251.566406 C 264.730469 251.300781 264.070312 251.101562 263.390625 250.964844 C 262.707031 250.832031 262.023438 250.761719 261.328125 250.761719 C 260.632812 250.761719 259.949219 250.832031 259.265625 250.964844 C 258.585938 251.101562 257.925781 251.300781 257.285156 251.566406 C 256.644531 251.832031 256.035156 252.160156 255.460938 252.546875 C 254.882812 252.929688 254.351562 253.371094 253.859375 253.859375 " fill-opacity="1" fill-rule="nonzero"/></g></svg>