<svg xmlns="http://www.w3.org/2000/svg" xmlns:xlink="http://www.w3.org/1999/xlink" width="500" zoomAndPan="magnify" viewBox="0 0 375 374.999991" height="500" preserveAspectRatio="xMidYMid meet" version="1.0"><defs><clipPath id="2eca6afffd"><path d="M 18.75 39 L 356.25 39 L 356.25 336 L 18.75 336 Z M 18.75 39 " clip-rule="nonzero"/></clipPath></defs><path fill="#00ff85" d="M 113.671875 145.3125 C 114.363281 145.3125 115.050781 145.246094 115.730469 145.109375 C 116.410156 144.976562 117.066406 144.773438 117.707031 144.507812 C 118.347656 144.246094 118.957031 143.917969 119.53125 143.535156 C 120.105469 143.148438 120.640625 142.714844 121.128906 142.222656 C 121.621094 141.734375 122.054688 141.199219 122.441406 140.625 C 122.824219 140.050781 123.152344 139.441406 123.414062 138.800781 C 123.679688 138.160156 123.882812 137.503906 124.015625 136.824219 C 124.152344 136.144531 124.21875 135.457031 124.21875 134.765625 C 124.21875 134.074219 124.152344 133.386719 124.015625 132.707031 C 123.882812 132.027344 123.679688 131.371094 123.414062 130.730469 C 123.152344 130.089844 122.824219 129.480469 122.441406 128.90625 C 122.054688 128.332031 121.621094 127.796875 121.128906 127.308594 C 120.640625 126.816406 120.105469 126.382812 119.53125 125.996094 C 118.957031 125.613281 118.347656 125.285156 117.707031 125.023438 C 117.066406 124.757812 116.410156 124.554688 115.730469 124.421875 C 115.050781 124.285156 114.363281 124.21875 113.671875 124.21875 C 112.980469 124.21875 112.292969 124.285156 111.613281 124.421875 C 110.933594 124.554688 110.277344 124.757812 109.636719 125.023438 C 108.996094 125.285156 108.386719 125.613281 107.8125 125.996094 C 107.238281 126.382812 106.703125 126.816406 106.214844 127.308594 C 105.722656 127.796875 105.289062 128.332031 104.902344 128.90625 C 104.519531 129.480469 104.191406 130.089844 103.929688 130.730469 C 103.664062 131.371094 103.460938 132.027344 103.328125 132.707031 C 103.191406 133.386719 103.125 134.074219 103.125 134.765625 C 103.125 135.457031 103.191406 136.144531 103.328125 136.824219 C 103.460938 137.503906 103.664062 138.160156 103.929688 138.800781 C 104.191406 139.441406 104.519531 140.050781 104.902344 140.625 C 105.289062 141.199219 105.722656 141.734375 106.214844 142.222656 C 106.703125 142.714844 107.238281 143.148438 107.8125 143.535156 C 108.386719 143.917969 108.996094 144.246094 109.636719 144.507812 C 110.277344 144.773438 110.933594 144.976562 111.613281 145.109375 C 112.292969 145.246094 112.980469 145.3125 113.671875 145.3125 M 145.3125 145.3125 C 146.003906 145.3125 146.691406 145.246094 147.371094 145.109375 C 148.050781 144.976562 148.707031 144.773438 149.347656 144.507812 C 149.988281 144.246094 150.597656 143.917969 151.171875 143.535156 C 151.746094 143.148438 152.28125 142.714844 152.769531 142.222656 C 153.261719 141.734375 153.695312 141.199219 154.082031 140.625 C 154.464844 140.050781 154.792969 139.441406 155.054688 138.800781 C 155.320312 138.160156 155.523438 137.503906 155.65625 136.824219 C 155.792969 136.144531 155.859375 135.457031 155.859375 134.765625 C 155.859375 134.074219 155.792969 133.386719 155.65625 132.707031 C 155.523438 132.027344 155.320312 131.371094 155.054688 130.730469 C 154.792969 130.089844 154.464844 129.480469 154.082031 128.90625 C 153.695312 128.332031 153.261719 127.796875 152.769531 127.308594 C 152.28125 126.816406 151.746094 126.382812 151.171875 125.996094 C 150.597656 125.613281 149.988281 125.285156 149.347656 125.023438 C 148.707031 124.757812 148.050781 124.554688 147.371094 124.421875 C 146.691406 124.285156 146.003906 124.21875 145.3125 124.21875 C 144.621094 124.21875 143.933594 124.285156 143.253906 124.421875 C 142.574219 124.554688 141.917969 124.757812 141.277344 125.023438 C 140.636719 125.285156 140.027344 125.613281 139.453125 125.996094 C 138.878906 126.382812 138.34375 126.816406 137.855469 127.308594 C 137.363281 127.796875 136.929688 128.332031 136.542969 128.90625 C 136.160156 129.480469 135.832031 130.089844 135.570312 130.730469 C 135.304688 131.371094 135.101562 132.027344 134.96875 132.707031 C 134.832031 133.386719 134.765625 134.074219 134.765625 134.765625 C 134.765625 135.457031 134.832031 136.144531 134.96875 136.824219 C 135.101562 137.503906 135.304688 138.160156 135.570312 138.800781 C 135.832031 139.441406 136.160156 140.050781 136.542969 140.625 C 136.929688 141.199219 137.363281 141.734375 137.855469 142.222656 C 138.34375 142.714844 138.878906 143.148438 139.453125 143.535156 C 140.027344 143.917969 140.636719 144.246094 141.277344 144.507812 C 141.917969 144.773438 142.574219 144.976562 143.253906 145.109375 C 143.933594 145.246094 144.621094 145.3125 145.3125 145.3125 M 187.5 134.765625 C 187.5 135.457031 187.433594 136.144531 187.296875 136.824219 C 187.164062 137.503906 186.960938 138.160156 186.695312 138.800781 C 186.433594 139.441406 186.105469 140.050781 185.722656 140.625 C 185.335938 141.199219 184.902344 141.734375 184.410156 142.222656 C 183.921875 142.714844 183.386719 143.148438 182.8125 143.535156 C 182.238281 143.917969 181.628906 144.246094 180.988281 144.507812 C 180.347656 144.773438 179.691406 144.976562 179.011719 145.109375 C 178.332031 145.246094 177.644531 145.3125 176.953125 145.3125 C 176.261719 145.3125 175.574219 145.246094 174.894531 145.109375 C 174.214844 144.976562 173.558594 144.773438 172.917969 144.507812 C 172.277344 144.246094 171.667969 143.917969 171.09375 143.535156 C 170.519531 143.148438 169.984375 142.714844 169.496094 142.222656 C 169.003906 141.734375 168.570312 141.199219 168.183594 140.625 C 167.800781 140.050781 167.472656 139.441406 167.210938 138.800781 C 166.945312 138.160156 166.742188 137.503906 166.609375 136.824219 C 166.472656 136.144531 166.40625 135.457031 166.40625 134.765625 C 166.40625 134.074219 166.472656 133.386719 166.609375 132.707031 C 166.742188 132.027344 166.945312 131.371094 167.210938 130.730469 C 167.472656 130.089844 167.800781 129.480469 168.183594 128.90625 C 168.570312 128.332031 169.003906 127.796875 169.496094 127.308594 C 169.984375 126.816406 170.519531 126.382812 171.09375 125.996094 C 171.667969 125.613281 172.277344 125.285156 172.917969 125.023438 C 173.558594 124.757812 174.214844 124.554688 174.894531 124.421875 C 175.574219 124.285156 176.261719 124.21875 176.953125 124.21875 C 177.644531 124.21875 178.332031 124.285156 179.011719 124.421875 C 179.691406 124.554688 180.347656 124.757812 180.988281 125.023438 C 181.628906 125.285156 182.238281 125.613281 182.8125 125.996094 C 183.386719 126.382812 183.921875 126.816406 184.410156 127.308594 C 184.902344 127.796875 185.335938 128.332031 185.722656 128.90625 C 186.105469 129.480469 186.433594 130.089844 186.695312 130.730469 C 186.960938 131.371094 187.164062 132.027344 187.296875 132.707031 C 187.433594 133.386719 187.5 134.074219 187.5 134.765625 " fill-opacity="1" fill-rule="nonzero"/><g clip-path="url(#2eca6afffd)"><path fill="#00ff85" d="M 271.875 39.84375 C 273.257812 39.84375 274.636719 39.910156 276.011719 40.046875 C 277.386719 40.183594 278.75 40.386719 280.105469 40.65625 C 281.460938 40.925781 282.800781 41.257812 284.121094 41.660156 C 285.445312 42.0625 286.742188 42.527344 288.019531 43.054688 C 289.296875 43.582031 290.542969 44.175781 291.761719 44.824219 C 292.980469 45.476562 294.164062 46.1875 295.3125 46.953125 C 296.460938 47.722656 297.570312 48.542969 298.636719 49.417969 C 299.707031 50.296875 300.730469 51.222656 301.707031 52.199219 C 302.683594 53.175781 303.609375 54.199219 304.488281 55.269531 C 305.363281 56.335938 306.183594 57.445312 306.953125 58.59375 C 307.71875 59.742188 308.429688 60.925781 309.082031 62.144531 C 309.730469 63.363281 310.324219 64.609375 310.851562 65.886719 C 311.378906 67.164062 311.84375 68.460938 312.246094 69.785156 C 312.648438 71.105469 312.980469 72.445312 313.25 73.800781 C 313.519531 75.15625 313.722656 76.519531 313.859375 77.894531 C 313.996094 79.269531 314.0625 80.648438 314.0625 82.03125 C 315.445312 82.03125 316.824219 82.097656 318.199219 82.234375 C 319.574219 82.371094 320.9375 82.574219 322.292969 82.84375 C 323.648438 83.113281 324.988281 83.445312 326.308594 83.847656 C 327.632812 84.25 328.929688 84.714844 330.207031 85.242188 C 331.484375 85.769531 332.730469 86.363281 333.949219 87.011719 C 335.167969 87.664062 336.351562 88.375 337.5 89.140625 C 338.648438 89.910156 339.757812 90.730469 340.824219 91.605469 C 341.894531 92.484375 342.917969 93.410156 343.894531 94.386719 C 344.871094 95.363281 345.796875 96.386719 346.675781 97.457031 C 347.550781 98.523438 348.371094 99.632812 349.140625 100.78125 C 349.90625 101.929688 350.617188 103.113281 351.269531 104.332031 C 351.917969 105.550781 352.511719 106.796875 353.039062 108.074219 C 353.566406 109.351562 354.03125 110.648438 354.433594 111.972656 C 354.835938 113.292969 355.167969 114.632812 355.4375 115.988281 C 355.707031 117.34375 355.910156 118.707031 356.046875 120.082031 C 356.183594 121.457031 356.25 122.835938 356.25 124.21875 L 356.25 292.96875 C 356.25 294.351562 356.183594 295.730469 356.046875 297.105469 C 355.910156 298.480469 355.707031 299.84375 355.4375 301.199219 C 355.167969 302.554688 354.835938 303.894531 354.433594 305.214844 C 354.03125 306.539062 353.566406 307.835938 353.039062 309.113281 C 352.511719 310.390625 351.917969 311.636719 351.269531 312.855469 C 350.617188 314.074219 349.90625 315.257812 349.140625 316.40625 C 348.371094 317.554688 347.550781 318.664062 346.675781 319.730469 C 345.796875 320.800781 344.871094 321.824219 343.894531 322.800781 C 342.917969 323.777344 341.894531 324.703125 340.824219 325.582031 C 339.757812 326.457031 338.648438 327.277344 337.5 328.046875 C 336.351562 328.8125 335.167969 329.523438 333.949219 330.175781 C 332.730469 330.824219 331.484375 331.417969 330.207031 331.945312 C 328.929688 332.472656 327.632812 332.9375 326.308594 333.339844 C 324.988281 333.742188 323.648438 334.074219 322.292969 334.34375 C 320.9375 334.613281 319.574219 334.816406 318.199219 334.953125 C 316.824219 335.089844 315.445312 335.15625 314.0625 335.15625 L 103.125 335.15625 C 101.742188 335.15625 100.363281 335.089844 98.988281 334.953125 C 97.613281 334.816406 96.25 334.613281 94.894531 334.34375 C 93.539062 334.074219 92.199219 333.742188 90.878906 333.339844 C 89.554688 332.9375 88.257812 332.472656 86.980469 331.945312 C 85.703125 331.417969 84.457031 330.824219 83.238281 330.175781 C 82.019531 329.523438 80.835938 328.8125 79.6875 328.046875 C 78.539062 327.277344 77.429688 326.457031 76.363281 325.582031 C 75.292969 324.703125 74.269531 323.777344 73.292969 322.800781 C 72.316406 321.824219 71.390625 320.800781 70.511719 319.730469 C 69.636719 318.664062 68.816406 317.554688 68.046875 316.40625 C 67.28125 315.257812 66.570312 314.074219 65.917969 312.855469 C 65.269531 311.636719 64.675781 310.390625 64.148438 309.113281 C 63.621094 307.835938 63.15625 306.539062 62.753906 305.214844 C 62.351562 303.894531 62.019531 302.554688 61.75 301.199219 C 61.480469 299.84375 61.277344 298.480469 61.140625 297.105469 C 61.003906 295.730469 60.9375 294.351562 60.9375 292.96875 C 59.554688 292.96875 58.175781 292.902344 56.800781 292.765625 C 55.425781 292.628906 54.0625 292.425781 52.707031 292.15625 C 51.351562 291.886719 50.011719 291.554688 48.691406 291.152344 C 47.367188 290.75 46.070312 290.285156 44.792969 289.757812 C 43.515625 289.230469 42.269531 288.636719 41.050781 287.988281 C 39.832031 287.335938 38.648438 286.625 37.5 285.859375 C 36.351562 285.089844 35.242188 284.269531 34.175781 283.394531 C 33.105469 282.515625 32.082031 281.589844 31.105469 280.613281 C 30.128906 279.636719 29.203125 278.613281 28.324219 277.542969 C 27.449219 276.476562 26.628906 275.367188 25.859375 274.21875 C 25.09375 273.070312 24.382812 271.886719 23.730469 270.667969 C 23.082031 269.449219 22.488281 268.203125 21.960938 266.925781 C 21.433594 265.648438 20.96875 264.351562 20.566406 263.027344 C 20.164062 261.707031 19.832031 260.367188 19.5625 259.011719 C 19.292969 257.65625 19.089844 256.292969 18.953125 254.917969 C 18.816406 253.542969 18.75 252.164062 18.75 250.78125 L 18.75 82.03125 C 18.75 80.648438 18.816406 79.269531 18.953125 77.894531 C 19.089844 76.519531 19.292969 75.15625 19.5625 73.800781 C 19.832031 72.445312 20.164062 71.105469 20.566406 69.785156 C 20.96875 68.460938 21.433594 67.164062 21.960938 65.886719 C 22.488281 64.609375 23.082031 63.363281 23.730469 62.144531 C 24.382812 60.925781 25.09375 59.742188 25.859375 58.59375 C 26.628906 57.445312 27.449219 56.335938 28.324219 55.269531 C 29.203125 54.199219 30.128906 53.175781 31.105469 52.199219 C 32.082031 51.222656 33.105469 50.296875 34.175781 49.417969 C 35.242188 48.542969 36.351562 47.722656 37.5 46.953125 C 38.648438 46.1875 39.832031 45.476562 41.050781 44.824219 C 42.269531 44.175781 43.515625 43.582031 44.792969 43.054688 C 46.070312 42.527344 47.367188 42.0625 48.691406 41.660156 C 50.011719 41.257812 51.351562 40.925781 52.707031 40.65625 C 54.0625 40.386719 55.425781 40.183594 56.800781 40.046875 C 58.175781 39.910156 59.554688 39.84375 60.9375 39.84375 Z M 60.9375 271.875 L 60.9375 124.21875 C 60.9375 122.835938 61.003906 121.457031 61.140625 120.082031 C 61.277344 118.707031 61.480469 117.34375 61.75 115.988281 C 62.019531 114.632812 62.351562 113.292969 62.753906 111.972656 C 63.15625 110.648438 63.621094 109.351562 64.148438 108.074219 C 64.675781 106.796875 65.269531 105.550781 65.917969 104.332031 C 66.570312 103.113281 67.28125 101.929688 68.046875 100.78125 C 68.816406 99.632812 69.636719 98.523438 70.511719 97.457031 C 71.390625 96.386719 72.316406 95.363281 73.292969 94.386719 C 74.269531 93.410156 75.292969 92.484375 76.363281 91.605469 C 77.429688 90.730469 78.539062 89.910156 79.6875 89.140625 C 80.835938 88.375 82.019531 87.664062 83.238281 87.011719 C 84.457031 86.363281 85.703125 85.769531 86.980469 85.242188 C 88.257812 84.714844 89.554688 84.25 90.878906 83.847656 C 92.199219 83.445312 93.539062 83.113281 94.894531 82.84375 C 96.25 82.574219 97.613281 82.371094 98.988281 82.234375 C 100.363281 82.097656 101.742188 82.03125 103.125 82.03125 L 292.96875 82.03125 C 292.96875 81.339844 292.933594 80.652344 292.867188 79.964844 C 292.800781 79.277344 292.699219 78.59375 292.5625 77.917969 C 292.429688 77.238281 292.261719 76.570312 292.058594 75.90625 C 291.859375 75.246094 291.628906 74.597656 291.363281 73.960938 C 291.097656 73.320312 290.804688 72.695312 290.476562 72.085938 C 290.152344 71.476562 289.796875 70.886719 289.414062 70.3125 C 289.03125 69.738281 288.617188 69.183594 288.179688 68.648438 C 287.742188 68.117188 287.277344 67.605469 286.789062 67.117188 C 286.300781 66.628906 285.789062 66.164062 285.257812 65.726562 C 284.722656 65.289062 284.167969 64.875 283.59375 64.492188 C 283.019531 64.109375 282.429688 63.753906 281.820312 63.429688 C 281.210938 63.101562 280.585938 62.808594 279.945312 62.542969 C 279.308594 62.277344 278.660156 62.046875 278 61.847656 C 277.335938 61.644531 276.667969 61.476562 275.988281 61.34375 C 275.3125 61.207031 274.628906 61.105469 273.941406 61.039062 C 273.253906 60.972656 272.566406 60.9375 271.875 60.9375 L 60.9375 60.9375 C 60.246094 60.9375 59.558594 60.972656 58.871094 61.039062 C 58.183594 61.105469 57.5 61.207031 56.824219 61.34375 C 56.144531 61.476562 55.476562 61.644531 54.8125 61.847656 C 54.152344 62.046875 53.503906 62.277344 52.867188 62.542969 C 52.226562 62.808594 51.601562 63.101562 50.992188 63.429688 C 50.382812 63.753906 49.792969 64.109375 49.21875 64.492188 C 48.644531 64.875 48.089844 65.289062 47.554688 65.726562 C 47.023438 66.164062 46.511719 66.628906 46.023438 67.117188 C 45.535156 67.605469 45.070312 68.117188 44.632812 68.648438 C 44.195312 69.183594 43.78125 69.738281 43.398438 70.3125 C 43.015625 70.886719 42.660156 71.476562 42.335938 72.085938 C 42.007812 72.695312 41.714844 73.320312 41.449219 73.960938 C 41.183594 74.597656 40.953125 75.246094 40.753906 75.90625 C 40.550781 76.570312 40.382812 77.238281 40.25 77.917969 C 40.113281 78.59375 40.011719 79.277344 39.945312 79.964844 C 39.878906 80.652344 39.84375 81.339844 39.84375 82.03125 L 39.84375 250.78125 C 39.84375 251.472656 39.878906 252.160156 39.945312 252.847656 C 40.011719 253.535156 40.113281 254.21875 40.25 254.894531 C 40.382812 255.574219 40.550781 256.242188 40.753906 256.90625 C 40.953125 257.566406 41.183594 258.214844 41.449219 258.851562 C 41.714844 259.492188 42.007812 260.117188 42.335938 260.726562 C 42.660156 261.335938 43.015625 261.925781 43.398438 262.5 C 43.78125 263.074219 44.195312 263.628906 44.632812 264.164062 C 45.070312 264.695312 45.535156 265.207031 46.023438 265.695312 C 46.511719 266.183594 47.023438 266.648438 47.554688 267.085938 C 48.089844 267.523438 48.644531 267.9375 49.21875 268.320312 C 49.792969 268.703125 50.382812 269.058594 50.992188 269.382812 C 51.601562 269.710938 52.226562 270.003906 52.867188 270.269531 C 53.503906 270.535156 54.152344 270.765625 54.8125 270.964844 C 55.476562 271.167969 56.144531 271.335938 56.824219 271.46875 C 57.5 271.605469 58.183594 271.707031 58.871094 271.773438 C 59.558594 271.839844 60.246094 271.875 60.9375 271.875 M 82.03125 187.5 L 82.03125 292.96875 C 82.03125 293.660156 82.066406 294.347656 82.132812 295.035156 C 82.199219 295.722656 82.300781 296.40625 82.4375 297.082031 C 82.570312 297.761719 82.738281 298.429688 82.941406 299.09375 C 83.140625 299.753906 83.371094 300.402344 83.636719 301.039062 C 83.902344 301.679688 84.195312 302.304688 84.523438 302.914062 C 84.847656 303.523438 85.203125 304.113281 85.585938 304.6875 C 85.96875 305.261719 86.382812 305.816406 86.820312 306.351562 C 87.257812 306.882812 87.722656 307.394531 88.210938 307.882812 C 88.699219 308.371094 89.210938 308.835938 89.742188 309.273438 C 90.277344 309.710938 90.832031 310.125 91.40625 310.507812 C 91.980469 310.890625 92.570312 311.246094 93.179688 311.570312 C 93.789062 311.898438 94.414062 312.191406 95.054688 312.457031 C 95.691406 312.722656 96.339844 312.953125 97 313.152344 C 97.664062 313.355469 98.332031 313.523438 99.011719 313.65625 C 99.6875 313.792969 100.371094 313.894531 101.058594 313.960938 C 101.746094 314.027344 102.433594 314.0625 103.125 314.0625 L 314.0625 314.0625 C 314.753906 314.0625 315.441406 314.027344 316.128906 313.960938 C 316.816406 313.894531 317.5 313.792969 318.175781 313.65625 C 318.855469 313.523438 319.523438 313.355469 320.1875 313.152344 C 320.847656 312.953125 321.496094 312.722656 322.132812 312.457031 C 322.773438 312.191406 323.398438 311.898438 324.007812 311.570312 C 324.617188 311.246094 325.207031 310.890625 325.78125 310.507812 C 326.355469 310.125 326.910156 309.710938 327.445312 309.273438 C 327.976562 308.835938 328.488281 308.371094 328.976562 307.882812 C 329.464844 307.394531 329.929688 306.882812 330.367188 306.351562 C 330.804688 305.816406 331.21875 305.261719 331.601562 304.6875 C 331.984375 304.113281 332.339844 303.523438 332.664062 302.914062 C 332.992188 302.304688 333.285156 301.679688 333.550781 301.039062 C 333.816406 300.402344 334.046875 299.753906 334.246094 299.09375 C 334.449219 298.429688 334.617188 297.761719 334.75 297.082031 C 334.886719 296.40625 334.988281 295.722656 335.054688 295.035156 C 335.121094 294.347656 335.15625 293.660156 335.15625 292.96875 L 335.15625 187.5 Z M 335.15625 166.40625 L 335.15625 124.21875 C 335.15625 123.527344 335.121094 122.839844 335.054688 122.152344 C 334.988281 121.464844 334.886719 120.78125 334.75 120.105469 C 334.617188 119.425781 334.449219 118.757812 334.246094 118.09375 C 334.046875 117.433594 333.816406 116.785156 333.550781 116.148438 C 333.285156 115.507812 332.992188 114.882812 332.664062 114.273438 C 332.339844 113.664062 331.984375 113.074219 331.601562 112.5 C 331.21875 111.925781 330.804688 111.371094 330.367188 110.835938 C 329.929688 110.304688 329.464844 109.792969 328.976562 109.304688 C 328.488281 108.816406 327.976562 108.351562 327.445312 107.914062 C 326.910156 107.476562 326.355469 107.0625 325.78125 106.679688 C 325.207031 106.296875 324.617188 105.941406 324.007812 105.617188 C 323.398438 105.289062 322.773438 104.996094 322.132812 104.730469 C 321.496094 104.464844 320.847656 104.234375 320.1875 104.035156 C 319.523438 103.832031 318.855469 103.664062 318.175781 103.53125 C 317.5 103.394531 316.816406 103.292969 316.128906 103.226562 C 315.441406 103.160156 314.753906 103.125 314.0625 103.125 L 103.125 103.125 C 102.433594 103.125 101.746094 103.160156 101.058594 103.226562 C 100.371094 103.292969 99.6875 103.394531 99.011719 103.53125 C 98.332031 103.664062 97.664062 103.832031 97 104.035156 C 96.339844 104.234375 95.691406 104.464844 95.054688 104.730469 C 94.414062 104.996094 93.789062 105.289062 93.179688 105.617188 C 92.570312 105.941406 91.980469 106.296875 91.40625 106.679688 C 90.832031 107.0625 90.277344 107.476562 89.742188 107.914062 C 89.210938 108.351562 88.699219 108.816406 88.210938 109.304688 C 87.722656 109.792969 87.257812 110.304688 86.820312 110.835938 C 86.382812 111.371094 85.96875 111.925781 85.585938 112.5 C 85.203125 113.074219 84.847656 113.664062 84.523438 114.273438 C 84.195312 114.882812 83.902344 115.507812 83.636719 116.148438 C 83.371094 116.785156 83.140625 117.433594 82.941406 118.09375 C 82.738281 118.757812 82.570312 119.425781 82.4375 120.105469 C 82.300781 120.78125 82.199219 121.464844 82.132812 122.152344 C 82.066406 122.839844 82.03125 123.527344 82.03125 124.21875 L 82.03125 166.40625 Z M 335.15625 166.40625 " fill-opacity="1" fill-rule="nonzero"/></g></svg>