<svg xmlns="http://www.w3.org/2000/svg" xmlns:xlink="http://www.w3.org/1999/xlink" width="500" zoomAndPan="magnify" viewBox="0 0 375 374.999991" height="500" preserveAspectRatio="xMidYMid meet" version="1.0"><defs><clipPath id="9c57d2e57e"><path d="M 229 18.75 L 356.25 18.75 L 356.25 146 L 229 146 Z M 229 18.75 " clip-rule="nonzero"/></clipPath></defs><path fill="#00e0ff" d="M 134.765625 60.9375 C 133.558594 60.9375 132.351562 60.96875 131.144531 61.027344 C 129.9375 61.085938 128.730469 61.175781 127.527344 61.292969 C 126.328125 61.410156 125.128906 61.558594 123.933594 61.738281 C 122.738281 61.914062 121.546875 62.121094 120.363281 62.355469 C 119.175781 62.589844 118 62.855469 116.828125 63.148438 C 115.65625 63.445312 114.492188 63.765625 113.335938 64.117188 C 112.179688 64.46875 111.03125 64.847656 109.894531 65.253906 C 108.757812 65.660156 107.628906 66.09375 106.511719 66.558594 C 105.398438 67.019531 104.292969 67.507812 103.199219 68.027344 C 102.109375 68.542969 101.027344 69.085938 99.964844 69.65625 C 98.898438 70.222656 97.847656 70.820312 96.808594 71.441406 C 95.773438 72.0625 94.753906 72.707031 93.75 73.378906 C 92.746094 74.050781 91.757812 74.746094 90.785156 75.464844 C 89.816406 76.1875 88.863281 76.929688 87.929688 77.695312 C 86.996094 78.460938 86.082031 79.25 85.1875 80.0625 C 84.289062 80.875 83.414062 81.707031 82.5625 82.5625 C 81.707031 83.414062 80.875 84.289062 80.0625 85.1875 C 79.25 86.082031 78.460938 86.996094 77.695312 87.929688 C 76.929688 88.863281 76.1875 89.816406 75.464844 90.785156 C 74.746094 91.757812 74.050781 92.746094 73.378906 93.75 C 72.707031 94.753906 72.0625 95.773438 71.441406 96.808594 C 70.820312 97.847656 70.222656 98.898438 69.65625 99.964844 C 69.085938 101.027344 68.542969 102.109375 68.027344 103.199219 C 67.507812 104.292969 67.019531 105.398438 66.558594 106.511719 C 66.09375 107.628906 65.660156 108.757812 65.253906 109.894531 C 64.847656 111.03125 64.46875 112.179688 64.117188 113.335938 C 63.765625 114.492188 63.445312 115.65625 63.148438 116.828125 C 62.855469 118 62.59375 119.175781 62.355469 120.363281 C 62.121094 121.546875 61.914062 122.738281 61.738281 123.933594 C 61.558594 125.128906 61.410156 126.328125 61.292969 127.527344 C 61.175781 128.730469 61.085938 129.9375 61.027344 131.144531 C 60.96875 132.351562 60.9375 133.558594 60.9375 134.765625 L 60.9375 240.234375 C 60.9375 241.441406 60.96875 242.648438 61.027344 243.855469 C 61.085938 245.0625 61.175781 246.269531 61.292969 247.472656 C 61.410156 248.671875 61.558594 249.871094 61.738281 251.066406 C 61.914062 252.261719 62.121094 253.453125 62.355469 254.636719 C 62.59375 255.824219 62.855469 257 63.148438 258.171875 C 63.445312 259.34375 63.765625 260.507812 64.117188 261.664062 C 64.46875 262.820312 64.847656 263.96875 65.253906 265.105469 C 65.660156 266.242188 66.09375 267.371094 66.558594 268.488281 C 67.019531 269.601562 67.507812 270.707031 68.027344 271.800781 C 68.542969 272.890625 69.085938 273.972656 69.65625 275.035156 C 70.222656 276.101562 70.820312 277.152344 71.441406 278.191406 C 72.0625 279.226562 72.707031 280.246094 73.378906 281.25 C 74.050781 282.253906 74.746094 283.242188 75.464844 284.214844 C 76.1875 285.183594 76.929688 286.136719 77.695312 287.070312 C 78.460938 288.003906 79.25 288.917969 80.0625 289.8125 C 80.875 290.710938 81.707031 291.585938 82.5625 292.4375 C 83.414062 293.292969 84.289062 294.125 85.1875 294.9375 C 86.082031 295.75 86.996094 296.539062 87.929688 297.304688 C 88.863281 298.070312 89.816406 298.8125 90.785156 299.535156 C 91.757812 300.253906 92.746094 300.949219 93.75 301.621094 C 94.753906 302.292969 95.773438 302.9375 96.808594 303.558594 C 97.847656 304.179688 98.898438 304.773438 99.964844 305.34375 C 101.027344 305.914062 102.109375 306.457031 103.199219 306.972656 C 104.292969 307.492188 105.398438 307.980469 106.511719 308.441406 C 107.628906 308.90625 108.757812 309.339844 109.894531 309.746094 C 111.03125 310.152344 112.179688 310.53125 113.335938 310.882812 C 114.492188 311.234375 115.65625 311.554688 116.828125 311.851562 C 118 312.144531 119.175781 312.40625 120.363281 312.644531 C 121.546875 312.878906 122.738281 313.085938 123.933594 313.261719 C 125.128906 313.441406 126.328125 313.589844 127.527344 313.707031 C 128.730469 313.824219 129.9375 313.914062 131.144531 313.972656 C 132.351562 314.03125 133.558594 314.0625 134.765625 314.0625 L 240.234375 314.0625 C 241.441406 314.0625 242.648438 314.03125 243.855469 313.972656 C 245.0625 313.914062 246.269531 313.824219 247.472656 313.707031 C 248.671875 313.589844 249.871094 313.441406 251.066406 313.261719 C 252.261719 313.085938 253.453125 312.878906 254.636719 312.644531 C 255.824219 312.40625 257 312.144531 258.171875 311.851562 C 259.34375 311.554688 260.507812 311.234375 261.664062 310.882812 C 262.820312 310.53125 263.96875 310.152344 265.105469 309.746094 C 266.242188 309.339844 267.371094 308.90625 268.488281 308.441406 C 269.601562 307.980469 270.707031 307.492188 271.800781 306.972656 C 272.890625 306.457031 273.972656 305.914062 275.035156 305.34375 C 276.101562 304.773438 277.152344 304.179688 278.191406 303.558594 C 279.226562 302.9375 280.246094 302.292969 281.25 301.621094 C 282.253906 300.949219 283.242188 300.253906 284.214844 299.535156 C 285.183594 298.8125 286.136719 298.070312 287.070312 297.304688 C 288.003906 296.539062 288.917969 295.75 289.8125 294.9375 C 290.710938 294.125 291.585938 293.292969 292.4375 292.4375 C 293.292969 291.585938 294.125 290.710938 294.9375 289.8125 C 295.75 288.917969 296.539062 288.003906 297.304688 287.070312 C 298.070312 286.136719 298.8125 285.183594 299.535156 284.214844 C 300.253906 283.242188 300.949219 282.253906 301.621094 281.25 C 302.292969 280.246094 302.9375 279.226562 303.558594 278.191406 C 304.179688 277.152344 304.773438 276.101562 305.34375 275.035156 C 305.914062 273.972656 306.457031 272.890625 306.972656 271.800781 C 307.492188 270.707031 307.980469 269.601562 308.441406 268.488281 C 308.90625 267.371094 309.339844 266.242188 309.746094 265.105469 C 310.152344 263.96875 310.53125 262.820312 310.882812 261.664062 C 311.234375 260.507812 311.554688 259.34375 311.851562 258.171875 C 312.144531 257 312.40625 255.824219 312.644531 254.636719 C 312.878906 253.453125 313.085938 252.261719 313.261719 251.066406 C 313.441406 249.871094 313.589844 248.671875 313.707031 247.472656 C 313.824219 246.269531 313.914062 245.0625 313.972656 243.855469 C 314.03125 242.648438 314.0625 241.441406 314.0625 240.234375 L 314.0625 187.5 C 314.0625 186.808594 314.128906 186.121094 314.265625 185.441406 C 314.398438 184.761719 314.601562 184.105469 314.867188 183.464844 C 315.128906 182.824219 315.457031 182.214844 315.839844 181.640625 C 316.226562 181.066406 316.660156 180.53125 317.152344 180.042969 C 317.640625 179.550781 318.175781 179.117188 318.75 178.730469 C 319.324219 178.347656 319.933594 178.019531 320.574219 177.757812 C 321.214844 177.492188 321.871094 177.289062 322.550781 177.15625 C 323.230469 177.019531 323.917969 176.953125 324.609375 176.953125 C 325.300781 176.953125 325.988281 177.019531 326.667969 177.15625 C 327.347656 177.289062 328.003906 177.492188 328.644531 177.757812 C 329.285156 178.019531 329.894531 178.347656 330.46875 178.730469 C 331.042969 179.117188 331.578125 179.550781 332.066406 180.042969 C 332.558594 180.53125 332.992188 181.066406 333.378906 181.640625 C 333.761719 182.214844 334.089844 182.824219 334.351562 183.464844 C 334.617188 184.105469 334.820312 184.761719 334.953125 185.441406 C 335.089844 186.121094 335.15625 186.808594 335.15625 187.5 L 335.15625 240.234375 C 335.15625 241.789062 335.117188 243.339844 335.042969 244.890625 C 334.964844 246.445312 334.851562 247.992188 334.699219 249.539062 C 334.546875 251.085938 334.355469 252.625 334.128906 254.164062 C 333.902344 255.699219 333.636719 257.230469 333.332031 258.753906 C 333.027344 260.277344 332.6875 261.792969 332.3125 263.296875 C 331.933594 264.804688 331.519531 266.300781 331.070312 267.789062 C 330.617188 269.273438 330.128906 270.75 329.609375 272.210938 C 329.085938 273.675781 328.523438 275.125 327.929688 276.558594 C 327.335938 277.996094 326.707031 279.414062 326.042969 280.820312 C 325.378906 282.222656 324.679688 283.609375 323.949219 284.980469 C 323.214844 286.351562 322.449219 287.703125 321.652344 289.035156 C 320.851562 290.367188 320.023438 291.679688 319.160156 292.96875 C 318.296875 294.261719 317.402344 295.53125 316.476562 296.777344 C 315.550781 298.027344 314.59375 299.25 313.609375 300.453125 C 312.625 301.652344 311.609375 302.828125 310.566406 303.980469 C 309.523438 305.132812 308.453125 306.253906 307.355469 307.355469 C 306.253906 308.453125 305.132812 309.523438 303.980469 310.566406 C 302.828125 311.609375 301.652344 312.625 300.453125 313.609375 C 299.25 314.59375 298.027344 315.550781 296.777344 316.476562 C 295.53125 317.402344 294.261719 318.296875 292.96875 319.160156 C 291.679688 320.023438 290.367188 320.851562 289.035156 321.652344 C 287.703125 322.449219 286.351562 323.214844 284.980469 323.949219 C 283.609375 324.679688 282.222656 325.378906 280.820312 326.042969 C 279.414062 326.707031 277.996094 327.335938 276.558594 327.929688 C 275.125 328.523438 273.675781 329.085938 272.210938 329.609375 C 270.75 330.128906 269.273438 330.617188 267.789062 331.070312 C 266.300781 331.519531 264.804688 331.933594 263.296875 332.3125 C 261.792969 332.6875 260.277344 333.027344 258.753906 333.332031 C 257.230469 333.636719 255.699219 333.902344 254.164062 334.128906 C 252.625 334.355469 251.085938 334.546875 249.539062 334.699219 C 247.992188 334.851562 246.445312 334.964844 244.890625 335.042969 C 243.339844 335.117188 241.789062 335.15625 240.234375 335.15625 L 134.765625 335.15625 C 133.210938 335.15625 131.660156 335.117188 130.109375 335.042969 C 128.554688 334.964844 127.007812 334.851562 125.460938 334.699219 C 123.914062 334.546875 122.375 334.355469 120.835938 334.128906 C 119.300781 333.902344 117.769531 333.636719 116.246094 333.332031 C 114.722656 333.027344 113.207031 332.6875 111.703125 332.3125 C 110.195312 331.933594 108.699219 331.519531 107.210938 331.070312 C 105.726562 330.617188 104.25 330.128906 102.789062 329.609375 C 101.324219 329.085938 99.875 328.523438 98.441406 327.929688 C 97.003906 327.335938 95.585938 326.707031 94.179688 326.042969 C 92.777344 325.378906 91.390625 324.679688 90.019531 323.949219 C 88.648438 323.214844 87.296875 322.449219 85.964844 321.652344 C 84.632812 320.851562 83.320312 320.023438 82.03125 319.160156 C 80.738281 318.296875 79.46875 317.402344 78.222656 316.476562 C 76.972656 315.550781 75.75 314.59375 74.546875 313.609375 C 73.347656 312.625 72.171875 311.609375 71.019531 310.566406 C 69.867188 309.523438 68.746094 308.453125 67.644531 307.355469 C 66.546875 306.253906 65.476562 305.132812 64.433594 303.980469 C 63.390625 302.828125 62.375 301.652344 61.390625 300.453125 C 60.40625 299.25 59.449219 298.027344 58.523438 296.777344 C 57.597656 295.53125 56.703125 294.261719 55.839844 292.96875 C 54.976562 291.679688 54.148438 290.367188 53.347656 289.035156 C 52.550781 287.703125 51.785156 286.351562 51.050781 284.980469 C 50.320312 283.609375 49.621094 282.222656 48.957031 280.820312 C 48.292969 279.414062 47.664062 277.996094 47.070312 276.558594 C 46.476562 275.125 45.914062 273.675781 45.390625 272.210938 C 44.871094 270.75 44.382812 269.273438 43.929688 267.789062 C 43.480469 266.300781 43.066406 264.804688 42.6875 263.296875 C 42.3125 261.792969 41.972656 260.277344 41.667969 258.753906 C 41.363281 257.230469 41.097656 255.699219 40.871094 254.164062 C 40.644531 252.625 40.453125 251.085938 40.300781 249.539062 C 40.148438 247.992188 40.035156 246.445312 39.957031 244.890625 C 39.882812 243.339844 39.84375 241.789062 39.84375 240.234375 L 39.84375 134.765625 C 39.84375 133.210938 39.882812 131.660156 39.957031 130.109375 C 40.035156 128.554688 40.148438 127.007812 40.300781 125.460938 C 40.453125 123.914062 40.644531 122.375 40.871094 120.835938 C 41.097656 119.300781 41.363281 117.769531 41.667969 116.246094 C 41.972656 114.722656 42.3125 113.207031 42.6875 111.703125 C 43.066406 110.195312 43.480469 108.699219 43.929688 107.210938 C 44.382812 105.726562 44.871094 104.25 45.390625 102.789062 C 45.914062 101.324219 46.476562 99.875 47.070312 98.441406 C 47.664062 97.003906 48.292969 95.585938 48.957031 94.179688 C 49.621094 92.777344 50.320312 91.390625 51.050781 90.019531 C 51.785156 88.648438 52.550781 87.296875 53.347656 85.964844 C 54.148438 84.632812 54.976562 83.320312 55.839844 82.03125 C 56.703125 80.738281 57.597656 79.46875 58.523438 78.222656 C 59.449219 76.972656 60.40625 75.75 61.390625 74.546875 C 62.375 73.347656 63.390625 72.171875 64.433594 71.019531 C 65.476562 69.867188 66.546875 68.746094 67.644531 67.644531 C 68.746094 66.546875 69.867188 65.476562 71.019531 64.433594 C 72.171875 63.390625 73.347656 62.375 74.546875 61.390625 C 75.75 60.40625 76.972656 59.449219 78.222656 58.523438 C 79.46875 57.597656 80.738281 56.703125 82.03125 55.839844 C 83.320312 54.976562 84.632812 54.148438 85.964844 53.347656 C 87.296875 52.550781 88.648438 51.785156 90.019531 51.050781 C 91.390625 50.320312 92.777344 49.621094 94.179688 48.957031 C 95.585938 48.292969 97.003906 47.664062 98.441406 47.070312 C 99.875 46.476562 101.324219 45.914062 102.789062 45.390625 C 104.25 44.871094 105.726562 44.382812 107.210938 43.929688 C 108.699219 43.480469 110.195312 43.066406 111.703125 42.6875 C 113.207031 42.3125 114.722656 41.972656 116.246094 41.667969 C 117.769531 41.363281 119.300781 41.097656 120.835938 40.871094 C 122.375 40.644531 123.914062 40.453125 125.460938 40.300781 C 127.007812 40.148438 128.554688 40.035156 130.109375 39.957031 C 131.660156 39.882812 133.210938 39.84375 134.765625 39.84375 L 187.5 39.84375 C 188.191406 39.84375 188.878906 39.910156 189.558594 40.046875 C 190.238281 40.179688 190.894531 40.382812 191.535156 40.648438 C 192.175781 40.910156 192.785156 41.238281 193.359375 41.621094 C 193.933594 42.007812 194.46875 42.441406 194.957031 42.933594 C 195.449219 43.421875 195.882812 43.957031 196.269531 44.53125 C 196.652344 45.105469 196.980469 45.714844 197.242188 46.355469 C 197.507812 46.996094 197.710938 47.652344 197.84375 48.332031 C 197.980469 49.011719 198.046875 49.699219 198.046875 50.390625 C 198.046875 51.082031 197.980469 51.769531 197.84375 52.449219 C 197.710938 53.128906 197.507812 53.785156 197.242188 54.425781 C 196.980469 55.066406 196.652344 55.675781 196.269531 56.25 C 195.882812 56.824219 195.449219 57.359375 194.957031 57.847656 C 194.46875 58.339844 193.933594 58.773438 193.359375 59.160156 C 192.785156 59.542969 192.175781 59.871094 191.535156 60.132812 C 190.894531 60.398438 190.238281 60.601562 189.558594 60.734375 C 188.878906 60.871094 188.191406 60.9375 187.5 60.9375 Z M 134.765625 60.9375 " fill-opacity="1" fill-rule="nonzero"/><g clip-path="url(#9c57d2e57e)"><path fill="#00e0ff" d="M 356.25 82.03125 C 356.25 84.105469 356.148438 86.171875 355.945312 88.234375 C 355.742188 90.296875 355.4375 92.34375 355.035156 94.375 C 354.628906 96.410156 354.125 98.417969 353.523438 100.402344 C 352.921875 102.382812 352.226562 104.332031 351.433594 106.246094 C 350.640625 108.164062 349.753906 110.035156 348.777344 111.863281 C 347.800781 113.691406 346.738281 115.464844 345.585938 117.1875 C 344.433594 118.910156 343.199219 120.574219 341.886719 122.175781 C 340.570312 123.777344 339.179688 125.3125 337.714844 126.777344 C 336.25 128.242188 334.714844 129.632812 333.113281 130.949219 C 331.511719 132.261719 329.847656 133.496094 328.125 134.648438 C 326.402344 135.800781 324.628906 136.863281 322.800781 137.839844 C 320.972656 138.816406 319.101562 139.703125 317.183594 140.496094 C 315.269531 141.289062 313.320312 141.984375 311.339844 142.585938 C 309.355469 143.1875 307.347656 143.691406 305.3125 144.097656 C 303.28125 144.5 301.234375 144.804688 299.171875 145.007812 C 297.109375 145.210938 295.042969 145.3125 292.96875 145.3125 C 290.894531 145.3125 288.828125 145.210938 286.765625 145.007812 C 284.703125 144.804688 282.65625 144.5 280.625 144.097656 C 278.589844 143.691406 276.582031 143.1875 274.597656 142.585938 C 272.617188 141.984375 270.667969 141.289062 268.753906 140.496094 C 266.835938 139.703125 264.964844 138.816406 263.136719 137.839844 C 261.308594 136.863281 259.535156 135.800781 257.8125 134.648438 C 256.089844 133.496094 254.425781 132.261719 252.824219 130.949219 C 251.222656 129.632812 249.6875 128.242188 248.222656 126.777344 C 246.757812 125.3125 245.367188 123.777344 244.050781 122.175781 C 242.738281 120.574219 241.503906 118.910156 240.351562 117.1875 C 239.199219 115.464844 238.136719 113.691406 237.160156 111.863281 C 236.183594 110.035156 235.296875 108.164062 234.503906 106.246094 C 233.710938 104.332031 233.015625 102.382812 232.414062 100.402344 C 231.8125 98.417969 231.308594 96.410156 230.902344 94.375 C 230.5 92.34375 230.195312 90.296875 229.992188 88.234375 C 229.789062 86.171875 229.6875 84.105469 229.6875 82.03125 C 229.6875 79.957031 229.789062 77.890625 229.992188 75.828125 C 230.195312 73.765625 230.5 71.71875 230.902344 69.6875 C 231.308594 67.652344 231.8125 65.644531 232.414062 63.660156 C 233.015625 61.679688 233.710938 59.730469 234.503906 57.816406 C 235.296875 55.898438 236.183594 54.027344 237.160156 52.199219 C 238.136719 50.371094 239.199219 48.597656 240.351562 46.875 C 241.503906 45.152344 242.738281 43.488281 244.050781 41.886719 C 245.367188 40.285156 246.757812 38.75 248.222656 37.285156 C 249.6875 35.820312 251.222656 34.429688 252.824219 33.113281 C 254.425781 31.800781 256.089844 30.566406 257.8125 29.414062 C 259.535156 28.261719 261.308594 27.199219 263.136719 26.222656 C 264.964844 25.246094 266.835938 24.359375 268.753906 23.566406 C 270.667969 22.773438 272.617188 22.078125 274.597656 21.476562 C 276.582031 20.875 278.589844 20.371094 280.625 19.964844 C 282.65625 19.5625 284.703125 19.257812 286.765625 19.054688 C 288.828125 18.851562 290.894531 18.75 292.96875 18.75 C 295.042969 18.75 297.109375 18.851562 299.171875 19.054688 C 301.234375 19.257812 303.28125 19.5625 305.3125 19.964844 C 307.347656 20.371094 309.355469 20.875 311.339844 21.476562 C 313.320312 22.078125 315.269531 22.773438 317.183594 23.566406 C 319.101562 24.359375 320.972656 25.246094 322.800781 26.222656 C 324.628906 27.199219 326.402344 28.261719 328.125 29.414062 C 329.847656 30.566406 331.511719 31.800781 333.113281 33.113281 C 334.714844 34.429688 336.25 35.820312 337.714844 37.285156 C 339.179688 38.75 340.570312 40.285156 341.886719 41.886719 C 343.199219 43.488281 344.433594 45.152344 345.585938 46.875 C 346.738281 48.597656 347.800781 50.371094 348.777344 52.199219 C 349.753906 54.027344 350.640625 55.898438 351.433594 57.816406 C 352.226562 59.730469 352.921875 61.679688 353.523438 63.660156 C 354.125 65.644531 354.628906 67.652344 355.035156 69.6875 C 355.4375 71.71875 355.742188 73.765625 355.945312 75.828125 C 356.148438 77.890625 356.25 79.957031 356.25 82.03125 " fill-opacity="1" fill-rule="nonzero"/></g></svg>